{"glyphs":{"0":{"ha":640,"x_min":44,"x_max":596,"o":"m 321 -17 q 113 106 182 -17 q 44 493 44 229 q 113 879 44 756 q 321 1003 182 1003 q 528 879 460 1003 q 596 493 596 756 q 528 106 596 229 q 321 -17 460 -17 m 321 113 q 382 142 357 113 q 421 240 407 171 q 435 429 435 310 l 435 557 q 421 747 435 678 q 382 845 407 817 q 321 874 357 874 q 259 844 285 874 q 220 747 233 815 q 207 557 207 678 l 207 429 q 220 240 207 310 q 259 142 233 171 q 321 113 285 113 z "},"1":{"ha":351,"x_min":14,"x_max":286,"o":"m 128 0 l 128 774 l 14 774 l 14 872 l 61 882 q 132 914 113 892 q 169 986 151 936 l 286 986 l 286 0 l 128 0 z "},"2":{"ha":565,"x_min":19,"x_max":526,"o":"m 46 0 l 46 117 l 258 451 q 338 597 308 531 q 368 736 368 663 q 345 840 368 807 q 282 874 322 874 q 206 825 232 874 q 188 653 181 776 l 36 657 q 90 915 19 828 q 282 1003 160 1003 q 466 930 406 1003 q 526 742 526 857 q 507 610 526 669 q 458 499 488 551 q 394 394 428 447 l 228 133 l 524 133 l 524 0 l 46 0 z "},"3":{"ha":600,"x_min":36,"x_max":557,"o":"m 303 -17 q 105 64 174 -17 q 36 301 36 144 l 188 306 q 219 154 190 196 q 297 113 247 113 q 371 149 343 113 q 399 274 399 186 q 368 397 399 353 q 271 440 338 440 l 200 440 l 200 568 l 268 568 q 362 610 335 568 q 389 724 389 651 q 362 841 389 808 q 293 874 335 874 q 217 837 246 874 q 186 697 189 800 l 36 703 q 103 925 36 847 q 299 1003 169 1003 q 483 929 418 1003 q 547 742 547 856 q 509 590 547 650 q 417 507 471 531 l 417 506 q 483 463 451 494 q 536 380 515 431 q 557 261 557 329 q 492 62 557 140 q 303 -17 428 -17 z "},"4":{"ha":581,"x_min":17,"x_max":557,"o":"m 17 201 l 17 304 l 261 986 l 467 986 l 467 326 l 557 326 l 557 201 l 467 201 l 467 0 l 308 0 l 308 201 l 17 201 m 146 326 l 308 326 l 308 778 l 146 326 z "},"5":{"ha":586,"x_min":38,"x_max":554,"o":"m 294 -17 q 106 63 174 -17 q 38 293 39 143 l 186 299 q 218 153 190 193 q 292 113 246 113 q 367 160 338 113 q 396 338 396 208 q 294 554 396 554 q 228 523 253 554 q 189 421 204 492 l 57 435 l 78 986 l 503 986 l 503 853 l 210 853 l 200 601 q 258 651 224 633 q 339 669 293 669 q 456 626 408 669 q 529 506 504 582 q 554 331 554 429 q 485 77 554 171 q 294 -17 417 -17 z "},"6":{"ha":615,"x_min":43,"x_max":579,"o":"m 332 -17 q 167 42 231 -17 q 73 206 103 100 q 43 457 43 313 q 56 652 43 556 q 101 828 69 749 q 190 955 133 907 q 335 1003 247 1003 q 492 937 431 1003 q 568 729 554 871 l 425 718 q 392 838 413 803 q 328 874 371 874 q 231 780 261 874 q 200 529 201 686 q 273 606 231 582 q 363 631 315 631 q 481 586 432 631 q 554 470 529 542 q 579 314 579 399 q 551 148 579 224 q 469 28 524 72 q 332 -17 414 -17 m 324 113 q 385 140 363 113 q 418 211 408 168 q 428 301 428 254 q 402 447 428 392 q 324 503 376 503 q 246 455 278 503 q 214 313 214 407 q 226 215 214 261 q 262 141 238 169 q 324 113 286 113 z "},"7":{"ha":510,"x_min":11,"x_max":490,"o":"m 103 0 l 324 853 l 11 853 l 11 986 l 490 986 l 490 882 l 263 0 l 103 0 z "},"8":{"ha":626,"x_min":40,"x_max":586,"o":"m 313 -17 q 115 48 190 -17 q 40 244 40 113 q 79 397 40 333 q 186 515 118 460 q 92 622 126 564 q 58 757 58 679 q 93 894 58 840 q 186 976 128 949 q 317 1003 244 1003 q 443 976 386 1003 q 534 897 500 950 q 568 767 568 844 q 534 633 568 696 q 439 517 500 571 q 549 405 511 464 q 586 251 586 346 q 511 50 586 117 q 313 -17 436 -17 m 326 590 l 344 578 q 399 663 382 621 q 415 753 415 704 q 390 842 415 808 q 313 875 365 875 q 237 843 263 875 q 211 757 211 811 q 242 665 211 706 q 326 590 274 624 m 194 265 q 228 151 194 189 q 313 113 261 113 q 399 149 365 113 q 432 253 432 185 q 409 347 432 313 q 333 415 386 381 l 275 453 q 214 370 233 413 q 194 265 194 328 z "},"9":{"ha":613,"x_min":35,"x_max":568,"o":"m 297 -17 q 138 46 206 -17 q 49 250 69 108 l 190 261 q 230 144 203 176 q 300 113 257 113 q 391 199 368 113 q 413 454 414 286 q 346 381 385 403 q 263 360 307 360 q 140 403 192 360 q 62 520 89 447 q 35 681 35 593 q 62 842 35 769 q 145 959 89 915 q 289 1003 201 1003 q 447 942 385 1003 q 538 772 508 882 q 568 514 568 663 q 557 313 568 408 q 517 142 546 217 q 434 26 488 68 q 297 -17 381 -17 m 289 489 q 366 537 335 489 q 397 675 397 585 q 386 773 397 728 q 351 846 375 818 q 289 874 326 874 q 228 846 250 874 q 196 774 206 818 q 186 681 186 729 q 210 543 186 597 q 289 489 235 489 z "},"A":{"ha":631,"x_min":11,"x_max":621,"o":"m 11 0 l 210 986 l 421 986 l 621 0 l 460 0 l 415 238 l 210 238 l 167 0 l 11 0 m 232 364 l 393 364 l 313 826 l 232 364 z "},"Á":{"ha":631,"x_min":11,"x_max":621,"o":"m 11 0 l 210 986 l 421 986 l 621 0 l 460 0 l 415 238 l 210 238 l 167 0 l 11 0 m 232 364 l 393 364 l 313 826 l 232 364 m 350 1060 l 260 1085 l 360 1288 l 468 1246 l 350 1060 z "},"Ă":{"ha":631,"x_min":11,"x_max":621,"o":"m 11 0 l 210 986 l 421 986 l 621 0 l 460 0 l 415 238 l 210 238 l 167 0 l 11 0 m 232 364 l 393 364 l 313 826 l 232 364 m 319 1072 q 219 1117 258 1072 q 175 1249 179 1161 l 268 1249 q 284 1179 271 1199 q 319 1160 297 1160 q 356 1179 342 1160 q 372 1249 369 1199 l 464 1249 q 420 1117 460 1161 q 319 1072 381 1072 z "},"Â":{"ha":631,"x_min":11,"x_max":621,"o":"m 11 0 l 210 986 l 421 986 l 621 0 l 460 0 l 415 238 l 210 238 l 167 0 l 11 0 m 232 364 l 393 364 l 313 826 l 232 364 m 147 1067 l 267 1235 l 371 1235 l 490 1067 l 381 1067 l 319 1156 l 258 1067 l 147 1067 z "},"Ä":{"ha":631,"x_min":11,"x_max":621,"o":"m 11 0 l 210 986 l 421 986 l 621 0 l 460 0 l 415 238 l 210 238 l 167 0 l 11 0 m 232 364 l 393 364 l 313 826 l 232 364 m 349 1083 l 349 1231 l 481 1231 l 481 1083 l 349 1083 m 165 1083 l 165 1231 l 297 1231 l 297 1083 l 165 1083 z "},"À":{"ha":631,"x_min":11,"x_max":621,"o":"m 11 0 l 210 986 l 421 986 l 621 0 l 460 0 l 415 238 l 210 238 l 167 0 l 11 0 m 232 364 l 393 364 l 313 826 l 232 364 m 289 1060 l 171 1246 l 279 1288 l 379 1085 l 289 1060 z "},"Ā":{"ha":631,"x_min":11,"x_max":621,"o":"m 11 0 l 210 986 l 421 986 l 621 0 l 460 0 l 415 238 l 210 238 l 167 0 l 11 0 m 232 364 l 393 364 l 313 826 l 232 364 m 131 1100 l 131 1199 l 508 1199 l 508 1100 l 131 1100 z "},"Ą":{"ha":636,"x_min":11,"x_max":625,"o":"m 596 -224 q 507 -222 549 -229 q 440 -189 465 -215 q 414 -114 414 -162 q 426 -52 414 -82 q 460 7 438 -22 l 417 238 l 213 238 l 169 0 l 11 0 l 210 986 l 425 986 l 625 0 l 551 0 q 518 -82 518 -33 q 538 -126 518 -115 q 596 -136 558 -137 l 596 -224 m 315 824 l 235 364 l 396 364 l 315 824 z "},"Å":{"ha":631,"x_min":11,"x_max":621,"o":"m 11 0 l 210 986 l 421 986 l 621 0 l 460 0 l 415 238 l 210 238 l 167 0 l 11 0 m 232 364 l 393 364 l 313 826 l 232 364 m 319 907 q 207 949 251 907 q 163 1051 163 990 q 207 1154 163 1113 q 319 1196 251 1196 q 431 1154 388 1196 q 475 1051 475 1113 q 431 949 475 990 q 319 907 388 907 m 319 986 q 366 1003 347 986 q 385 1051 385 1021 q 366 1099 385 1082 q 319 1117 347 1117 q 272 1099 290 1117 q 254 1051 254 1082 q 272 1003 254 1021 q 319 986 290 986 z "},"Ã":{"ha":631,"x_min":11,"x_max":621,"o":"m 11 0 l 210 986 l 421 986 l 621 0 l 460 0 l 415 238 l 210 238 l 167 0 l 11 0 m 232 364 l 393 364 l 313 826 l 232 364 m 388 1076 q 335 1090 357 1076 q 297 1116 313 1103 q 267 1129 281 1129 q 242 1116 249 1129 q 233 1079 236 1103 l 154 1079 q 185 1188 157 1157 q 250 1219 213 1219 q 304 1207 282 1219 q 343 1181 326 1194 q 374 1168 360 1168 q 406 1219 403 1168 l 485 1219 q 455 1108 483 1139 q 388 1076 426 1076 z "},"Æ":{"ha":925,"x_min":-10,"x_max":889,"o":"m -10 0 l 265 986 l 883 986 l 883 853 l 594 853 l 594 568 l 853 568 l 853 442 l 594 442 l 594 133 l 889 133 l 889 0 l 436 0 l 436 238 l 215 238 l 153 0 l -10 0 m 247 364 l 436 364 l 436 851 l 368 851 l 247 364 z "},"Ǽ":{"ha":925,"x_min":-10,"x_max":889,"o":"m -10 0 l 265 986 l 883 986 l 883 853 l 594 853 l 594 568 l 853 568 l 853 442 l 594 442 l 594 133 l 889 133 l 889 0 l 436 0 l 436 238 l 215 238 l 153 0 l -10 0 m 247 364 l 436 364 l 436 851 l 368 851 l 247 364 m 640 1060 l 550 1085 l 650 1288 l 758 1246 l 640 1060 z "},"B":{"ha":615,"x_min":63,"x_max":578,"o":"m 63 0 l 63 986 l 311 986 q 505 917 443 986 q 567 726 567 847 q 540 597 567 656 q 456 507 513 539 q 549 417 519 476 q 578 275 578 357 q 515 77 578 154 q 317 0 451 0 l 63 0 m 299 858 l 221 858 l 221 567 l 299 567 q 411 685 411 567 l 411 738 q 299 858 411 858 m 221 128 l 304 128 q 418 257 418 128 l 418 315 q 304 440 418 440 l 221 440 l 221 128 z "},"C":{"ha":611,"x_min":42,"x_max":575,"o":"m 319 -17 q 172 29 235 -17 q 76 186 110 75 q 42 493 42 297 q 76 800 42 689 q 172 957 110 911 q 319 1003 235 1003 q 450 967 393 1003 q 540 846 507 931 q 575 614 574 761 l 429 608 q 399 815 424 757 q 321 874 374 874 q 258 846 285 874 q 217 748 232 818 q 203 553 203 678 l 203 433 q 217 240 203 310 q 259 141 232 169 q 322 113 286 113 q 399 171 375 113 q 429 376 424 229 l 575 372 q 538 138 572 222 q 447 18 504 53 q 319 -17 390 -17 z "},"Ć":{"ha":611,"x_min":42,"x_max":575,"o":"m 319 -17 q 172 29 235 -17 q 76 186 110 75 q 42 493 42 297 q 76 800 42 689 q 172 957 110 911 q 319 1003 235 1003 q 450 967 393 1003 q 540 846 507 931 q 575 614 574 761 l 429 608 q 399 815 424 757 q 321 874 374 874 q 258 846 285 874 q 217 748 232 818 q 203 553 203 678 l 203 433 q 217 240 203 310 q 259 141 232 169 q 322 113 286 113 q 399 171 375 113 q 429 376 424 229 l 575 372 q 538 138 572 222 q 447 18 504 53 q 319 -17 390 -17 m 343 1060 l 253 1085 l 353 1288 l 461 1246 l 343 1060 z "},"Č":{"ha":611,"x_min":42,"x_max":575,"o":"m 319 -17 q 172 29 235 -17 q 76 186 110 75 q 42 493 42 297 q 76 800 42 689 q 172 957 110 911 q 319 1003 235 1003 q 450 967 393 1003 q 540 846 507 931 q 575 614 574 761 l 429 608 q 399 815 424 757 q 321 874 374 874 q 258 846 285 874 q 217 748 232 818 q 203 553 203 678 l 203 433 q 217 240 203 310 q 259 141 232 169 q 322 113 286 113 q 399 171 375 113 q 429 376 424 229 l 575 372 q 538 138 572 222 q 447 18 504 53 q 319 -17 390 -17 m 260 1067 l 140 1235 l 251 1235 l 313 1146 l 374 1235 l 483 1235 l 364 1067 l 260 1067 z "},"Ç":{"ha":611,"x_min":42,"x_max":575,"o":"m 319 -17 q 172 29 235 -17 q 76 186 110 75 q 42 493 42 297 q 76 800 42 689 q 172 957 110 911 q 319 1003 235 1003 q 450 967 393 1003 q 540 846 507 931 q 575 614 574 761 l 429 608 q 399 815 424 757 q 321 874 374 874 q 258 846 285 874 q 217 748 232 818 q 203 553 203 678 l 203 433 q 217 240 203 310 q 259 141 232 169 q 322 113 286 113 q 399 171 375 113 q 429 376 424 229 l 575 372 q 538 138 572 222 q 447 18 504 53 q 319 -17 390 -17 m 311 -232 q 276 -230 293 -232 q 236 -224 260 -228 l 236 -142 q 286 -149 261 -147 q 328 -144 311 -150 q 344 -119 344 -137 q 328 -94 344 -103 q 274 -78 313 -85 l 279 3 l 357 3 l 357 -36 q 416 -69 392 -46 q 440 -131 440 -92 q 403 -207 440 -182 q 311 -232 367 -232 z "},"Ĉ":{"ha":611,"x_min":42,"x_max":575,"o":"m 319 -17 q 172 29 235 -17 q 76 186 110 75 q 42 493 42 297 q 76 800 42 689 q 172 957 110 911 q 319 1003 235 1003 q 450 967 393 1003 q 540 846 507 931 q 575 614 574 761 l 429 608 q 399 815 424 757 q 321 874 374 874 q 258 846 285 874 q 217 748 232 818 q 203 553 203 678 l 203 433 q 217 240 203 310 q 259 141 232 169 q 322 113 286 113 q 399 171 375 113 q 429 376 424 229 l 575 372 q 538 138 572 222 q 447 18 504 53 q 319 -17 390 -17 m 140 1067 l 260 1235 l 364 1235 l 483 1067 l 374 1067 l 313 1156 l 251 1067 l 140 1067 z "},"Ċ":{"ha":611,"x_min":42,"x_max":575,"o":"m 319 -17 q 172 29 235 -17 q 76 186 110 75 q 42 493 42 297 q 76 800 42 689 q 172 957 110 911 q 319 1003 235 1003 q 450 967 393 1003 q 540 846 507 931 q 575 614 574 761 l 429 608 q 399 815 424 757 q 321 874 374 874 q 258 846 285 874 q 217 748 232 818 q 203 553 203 678 l 203 433 q 217 240 203 310 q 259 141 232 169 q 322 113 286 113 q 399 171 375 113 q 429 376 424 229 l 575 372 q 538 138 572 222 q 447 18 504 53 q 319 -17 390 -17 m 233 1083 l 233 1231 l 389 1231 l 389 1083 l 233 1083 z "},"D":{"ha":625,"x_min":63,"x_max":585,"o":"m 63 0 l 63 986 l 289 986 q 444 940 378 986 q 548 785 511 893 q 585 493 585 678 q 548 201 585 308 q 444 47 511 93 q 289 0 378 0 l 63 0 m 221 133 l 275 133 q 383 191 342 133 q 424 396 424 249 l 424 590 q 405 747 424 690 q 353 828 386 804 q 275 853 319 853 l 221 853 l 221 133 z "},"Ď":{"ha":625,"x_min":63,"x_max":585,"o":"m 63 0 l 63 986 l 289 986 q 444 940 378 986 q 548 785 511 893 q 585 493 585 678 q 548 201 585 308 q 444 47 511 93 q 289 0 378 0 l 63 0 m 221 133 l 275 133 q 383 191 342 133 q 424 396 424 249 l 424 590 q 405 747 424 690 q 353 828 386 804 q 275 853 319 853 l 221 853 l 221 133 m 215 1067 l 96 1235 l 207 1235 l 268 1146 l 329 1235 l 439 1235 l 319 1067 l 215 1067 z "},"Đ":{"ha":660,"x_min":24,"x_max":619,"o":"m 97 0 l 97 432 l 24 432 l 24 554 l 97 554 l 97 986 l 324 986 q 479 940 413 986 q 583 785 546 893 q 619 493 619 678 q 583 201 619 308 q 479 47 546 93 q 324 0 413 0 l 97 0 m 256 133 l 310 133 q 417 191 376 133 q 458 396 458 249 l 458 590 q 440 747 458 690 q 388 828 421 804 q 310 853 354 853 l 256 853 l 256 554 l 347 554 l 347 432 l 256 432 l 256 133 z "},"Ð":{"ha":660,"x_min":24,"x_max":619,"o":"m 97 0 l 97 432 l 24 432 l 24 554 l 97 554 l 97 986 l 324 986 q 479 940 413 986 q 583 785 546 893 q 619 493 619 678 q 583 201 619 308 q 479 47 546 93 q 324 0 413 0 l 97 0 m 256 133 l 310 133 q 417 191 376 133 q 458 396 458 249 l 458 590 q 440 747 458 690 q 388 828 421 804 q 310 853 354 853 l 256 853 l 256 554 l 347 554 l 347 432 l 256 432 l 256 133 z "},"E":{"ha":551,"x_min":63,"x_max":515,"o":"m 63 0 l 63 986 l 510 986 l 510 853 l 221 853 l 221 568 l 478 568 l 478 442 l 221 442 l 221 133 l 515 133 l 515 0 l 63 0 z "},"É":{"ha":551,"x_min":63,"x_max":515,"o":"m 63 0 l 63 986 l 510 986 l 510 853 l 221 853 l 221 568 l 478 568 l 478 442 l 221 442 l 221 133 l 515 133 l 515 0 l 63 0 m 311 1060 l 221 1085 l 321 1288 l 429 1246 l 311 1060 z "},"Ĕ":{"ha":551,"x_min":63,"x_max":515,"o":"m 63 0 l 63 986 l 510 986 l 510 853 l 221 853 l 221 568 l 478 568 l 478 442 l 221 442 l 221 133 l 515 133 l 515 0 l 63 0 m 281 1072 q 180 1117 219 1072 q 136 1249 140 1161 l 229 1249 q 245 1179 232 1199 q 281 1160 258 1160 q 317 1179 303 1160 q 333 1249 331 1199 l 425 1249 q 381 1117 421 1161 q 281 1072 342 1072 z "},"Ě":{"ha":551,"x_min":63,"x_max":515,"o":"m 63 0 l 63 986 l 510 986 l 510 853 l 221 853 l 221 568 l 478 568 l 478 442 l 221 442 l 221 133 l 515 133 l 515 0 l 63 0 m 229 1067 l 110 1235 l 221 1235 l 282 1146 l 343 1235 l 453 1235 l 333 1067 l 229 1067 z "},"Ê":{"ha":551,"x_min":63,"x_max":515,"o":"m 63 0 l 63 986 l 510 986 l 510 853 l 221 853 l 221 568 l 478 568 l 478 442 l 221 442 l 221 133 l 515 133 l 515 0 l 63 0 m 110 1067 l 229 1235 l 333 1235 l 453 1067 l 343 1067 l 282 1156 l 221 1067 l 110 1067 z "},"Ë":{"ha":551,"x_min":63,"x_max":515,"o":"m 63 0 l 63 986 l 510 986 l 510 853 l 221 853 l 221 568 l 478 568 l 478 442 l 221 442 l 221 133 l 515 133 l 515 0 l 63 0 m 311 1083 l 311 1231 l 443 1231 l 443 1083 l 311 1083 m 128 1083 l 128 1231 l 260 1231 l 260 1083 l 128 1083 z "},"Ė":{"ha":551,"x_min":63,"x_max":515,"o":"m 63 0 l 63 986 l 510 986 l 510 853 l 221 853 l 221 568 l 478 568 l 478 442 l 221 442 l 221 133 l 515 133 l 515 0 l 63 0 m 203 1083 l 203 1231 l 358 1231 l 358 1083 l 203 1083 z "},"È":{"ha":551,"x_min":63,"x_max":515,"o":"m 63 0 l 63 986 l 510 986 l 510 853 l 221 853 l 221 568 l 478 568 l 478 442 l 221 442 l 221 133 l 515 133 l 515 0 l 63 0 m 251 1060 l 133 1246 l 242 1288 l 342 1085 l 251 1060 z "},"Ē":{"ha":551,"x_min":63,"x_max":515,"o":"m 63 0 l 63 986 l 510 986 l 510 853 l 221 853 l 221 568 l 478 568 l 478 442 l 221 442 l 221 133 l 515 133 l 515 0 l 63 0 m 92 1100 l 92 1199 l 469 1199 l 469 1100 l 92 1100 z "},"Ę":{"ha":551,"x_min":63,"x_max":515,"o":"m 63 0 l 63 986 l 510 986 l 510 853 l 221 853 l 221 568 l 478 568 l 478 442 l 221 442 l 221 133 l 515 133 l 515 0 l 63 0 m 514 -224 q 432 -222 474 -229 q 363 -188 390 -214 q 335 -117 335 -162 q 353 -51 335 -81 q 397 3 371 -21 l 397 17 l 485 0 q 453 -36 467 -14 q 438 -85 439 -58 q 463 -127 438 -115 q 514 -136 488 -139 l 514 -224 z "},"F":{"ha":531,"x_min":63,"x_max":506,"o":"m 63 0 l 63 986 l 506 986 l 506 853 l 221 853 l 221 547 l 488 547 l 488 421 l 221 421 l 221 0 l 63 0 z "},"G":{"ha":632,"x_min":43,"x_max":579,"o":"m 282 -17 q 157 31 211 -17 q 73 189 103 78 q 43 493 43 300 q 77 800 43 689 q 174 957 111 911 q 321 1003 236 1003 q 452 967 396 1003 q 542 850 508 931 q 576 633 575 769 l 431 629 q 400 817 425 761 q 322 874 375 874 q 260 846 286 874 q 219 748 233 818 q 204 553 204 678 l 204 433 q 219 240 204 310 q 260 141 233 169 q 322 113 286 113 q 403 163 374 113 q 433 325 433 213 l 433 393 l 307 393 l 307 522 l 579 522 l 579 0 l 464 0 l 453 100 q 377 6 421 29 q 282 -17 333 -17 z "},"Ğ":{"ha":632,"x_min":43,"x_max":579,"o":"m 282 -17 q 157 31 211 -17 q 73 189 103 78 q 43 493 43 300 q 77 800 43 689 q 174 957 111 911 q 321 1003 236 1003 q 452 967 396 1003 q 542 850 508 931 q 576 633 575 769 l 431 629 q 400 817 425 761 q 322 874 375 874 q 260 846 286 874 q 219 748 233 818 q 204 553 204 678 l 204 433 q 219 240 204 310 q 260 141 233 169 q 322 113 286 113 q 403 163 374 113 q 433 325 433 213 l 433 393 l 307 393 l 307 522 l 579 522 l 579 0 l 464 0 l 453 100 q 377 6 421 29 q 282 -17 333 -17 m 321 1072 q 220 1117 260 1072 q 176 1249 181 1161 l 269 1249 q 285 1179 272 1199 q 321 1160 299 1160 q 357 1179 343 1160 q 374 1249 371 1199 l 465 1249 q 422 1117 461 1161 q 321 1072 382 1072 z "},"Ĝ":{"ha":632,"x_min":43,"x_max":579,"o":"m 282 -17 q 157 31 211 -17 q 73 189 103 78 q 43 493 43 300 q 77 800 43 689 q 174 957 111 911 q 321 1003 236 1003 q 452 967 396 1003 q 542 850 508 931 q 576 633 575 769 l 431 629 q 400 817 425 761 q 322 874 375 874 q 260 846 286 874 q 219 748 233 818 q 204 553 204 678 l 204 433 q 219 240 204 310 q 260 141 233 169 q 322 113 286 113 q 403 163 374 113 q 433 325 433 213 l 433 393 l 307 393 l 307 522 l 579 522 l 579 0 l 464 0 l 453 100 q 377 6 421 29 q 282 -17 333 -17 m 149 1067 l 268 1235 l 372 1235 l 492 1067 l 382 1067 l 321 1156 l 260 1067 l 149 1067 z "},"Ģ":{"ha":632,"x_min":43,"x_max":579,"o":"m 282 -17 q 157 31 211 -17 q 73 189 103 78 q 43 493 43 300 q 77 800 43 689 q 174 957 111 911 q 321 1003 236 1003 q 452 967 396 1003 q 542 850 508 931 q 576 633 575 769 l 431 629 q 400 817 425 761 q 322 874 375 874 q 260 846 286 874 q 219 748 233 818 q 204 553 204 678 l 204 433 q 219 240 204 310 q 260 141 233 169 q 322 113 286 113 q 403 163 374 113 q 433 325 433 213 l 433 393 l 307 393 l 307 522 l 579 522 l 579 0 l 464 0 l 453 100 q 377 6 421 29 q 282 -17 333 -17 m 278 -353 l 317 -232 l 256 -232 l 256 -100 l 406 -100 l 406 -208 l 347 -353 l 278 -353 z "},"Ġ":{"ha":632,"x_min":43,"x_max":579,"o":"m 282 -17 q 157 31 211 -17 q 73 189 103 78 q 43 493 43 300 q 77 800 43 689 q 174 957 111 911 q 321 1003 236 1003 q 452 967 396 1003 q 542 850 508 931 q 576 633 575 769 l 431 629 q 400 817 425 761 q 322 874 375 874 q 260 846 286 874 q 219 748 233 818 q 204 553 204 678 l 204 433 q 219 240 204 310 q 260 141 233 169 q 322 113 286 113 q 403 163 374 113 q 433 325 433 213 l 433 393 l 307 393 l 307 522 l 579 522 l 579 0 l 464 0 l 453 100 q 377 6 421 29 q 282 -17 333 -17 m 242 1083 l 242 1231 l 397 1231 l 397 1083 l 242 1083 z "},"H":{"ha":638,"x_min":63,"x_max":575,"o":"m 63 0 l 63 986 l 221 986 l 221 564 l 417 564 l 417 986 l 575 986 l 575 0 l 417 0 l 417 431 l 221 431 l 221 0 l 63 0 z "},"Ħ":{"ha":699,"x_min":17,"x_max":682,"o":"m 90 0 l 90 667 l 17 667 l 17 782 l 90 782 l 90 986 l 249 986 l 249 782 l 450 782 l 450 986 l 608 986 l 608 782 l 682 782 l 682 667 l 608 667 l 608 0 l 450 0 l 450 369 l 249 369 l 249 0 l 90 0 m 249 506 l 450 506 l 450 667 l 249 667 l 249 506 z "},"Ĥ":{"ha":638,"x_min":63,"x_max":575,"o":"m 63 0 l 63 986 l 221 986 l 221 564 l 417 564 l 417 986 l 575 986 l 575 0 l 417 0 l 417 431 l 221 431 l 221 0 l 63 0 m 144 1067 l 264 1235 l 368 1235 l 488 1067 l 378 1067 l 317 1156 l 256 1067 l 144 1067 z "},"I":{"ha":282,"x_min":63,"x_max":221,"o":"m 63 0 l 63 986 l 221 986 l 221 0 l 63 0 z "},"Ĳ":{"ha":590,"x_min":63,"x_max":533,"o":"m 286 -17 q 218 -12 253 -17 q 135 0 183 -8 l 135 128 q 194 119 165 122 q 257 115 222 115 q 342 133 308 115 q 375 207 375 151 l 375 986 l 533 986 l 533 219 q 501 80 533 132 q 412 6 468 28 q 286 -17 356 -17 m 63 294 l 63 986 l 221 986 l 221 294 l 63 294 z "},"Í":{"ha":282,"x_min":63,"x_max":290,"o":"m 63 0 l 63 986 l 221 986 l 221 0 l 63 0 m 172 1060 l 82 1085 l 182 1288 l 290 1246 l 172 1060 z "},"Ĭ":{"ha":282,"x_min":-3,"x_max":286,"o":"m 63 0 l 63 986 l 221 986 l 221 0 l 63 0 m 142 1072 q 41 1117 81 1072 q -3 1249 1 1161 l 90 1249 q 106 1179 93 1199 q 142 1160 119 1160 q 178 1179 164 1160 q 194 1249 192 1199 l 286 1249 q 242 1117 282 1161 q 142 1072 203 1072 z "},"Î":{"ha":282,"x_min":-29,"x_max":314,"o":"m 63 0 l 63 986 l 221 986 l 221 0 l 63 0 m -29 1067 l 90 1235 l 194 1235 l 314 1067 l 204 1067 l 143 1156 l 82 1067 l -29 1067 z "},"Ï":{"ha":282,"x_min":-11,"x_max":304,"o":"m 63 0 l 63 986 l 221 986 l 221 0 l 63 0 m 172 1083 l 172 1231 l 304 1231 l 304 1083 l 172 1083 m -11 1083 l -11 1231 l 121 1231 l 121 1083 l -11 1083 z "},"İ":{"ha":282,"x_min":63,"x_max":221,"o":"m 63 0 l 63 986 l 221 986 l 221 0 l 63 0 m 64 1083 l 64 1231 l 219 1231 l 219 1083 l 64 1083 z "},"Ì":{"ha":282,"x_min":-6,"x_max":221,"o":"m 63 0 l 63 986 l 221 986 l 221 0 l 63 0 m 113 1060 l -6 1246 l 103 1288 l 203 1085 l 113 1060 z "},"Ī":{"ha":282,"x_min":-47,"x_max":331,"o":"m 63 0 l 63 986 l 221 986 l 221 0 l 63 0 m -47 1100 l -47 1199 l 331 1199 l 331 1100 l -47 1100 z "},"Į":{"ha":282,"x_min":38,"x_max":221,"o":"m 63 0 l 63 986 l 221 986 l 221 0 l 63 0 m 217 -224 q 135 -222 176 -229 q 65 -188 93 -214 q 38 -117 38 -162 q 56 -51 38 -81 q 100 3 74 -21 l 100 17 l 188 0 q 156 -36 169 -14 q 140 -85 142 -58 q 165 -127 140 -115 q 217 -136 190 -139 l 217 -224 z "},"Ĩ":{"ha":282,"x_min":-24,"x_max":307,"o":"m 63 0 l 63 986 l 221 986 l 221 0 l 63 0 m 210 1076 q 157 1090 179 1076 q 119 1116 135 1103 q 89 1129 103 1129 q 65 1116 71 1129 q 56 1079 58 1103 l -24 1079 q 7 1188 -21 1157 q 72 1219 35 1219 q 126 1207 104 1219 q 165 1181 149 1194 q 196 1168 182 1168 q 228 1219 225 1168 l 307 1219 q 277 1108 306 1139 q 210 1076 249 1076 z "},"J":{"ha":417,"x_min":18,"x_max":360,"o":"m 139 -17 q 83 -12 111 -17 q 18 0 54 -8 l 18 128 q 62 119 42 122 q 108 115 82 115 q 176 136 150 115 q 201 213 201 157 l 201 986 l 360 986 l 360 218 q 330 79 360 131 q 250 6 300 28 q 139 -17 200 -17 z "},"Ĵ":{"ha":418,"x_min":18,"x_max":447,"o":"m 139 -17 q 83 -12 111 -17 q 18 0 54 -8 l 18 128 q 62 119 42 122 q 108 115 82 115 q 176 136 150 115 q 201 213 201 157 l 201 986 l 360 986 l 360 218 q 330 79 360 131 q 250 6 300 28 q 139 -17 200 -17 m 104 1067 l 224 1235 l 328 1235 l 447 1067 l 338 1067 l 276 1156 l 215 1067 l 104 1067 z "},"K":{"ha":582,"x_min":63,"x_max":579,"o":"m 63 0 l 63 986 l 219 986 l 219 479 l 414 986 l 567 986 l 399 596 l 579 0 l 417 0 l 292 447 l 219 257 l 219 0 l 63 0 z "},"Ķ":{"ha":582,"x_min":63,"x_max":579,"o":"m 63 0 l 63 986 l 219 986 l 219 479 l 414 986 l 567 986 l 399 596 l 579 0 l 417 0 l 292 447 l 219 257 l 219 0 l 63 0 m 265 -353 l 304 -232 l 243 -232 l 243 -100 l 393 -100 l 393 -208 l 335 -353 l 265 -353 z "},"L":{"ha":519,"x_min":63,"x_max":501,"o":"m 63 0 l 63 986 l 221 986 l 221 133 l 501 133 l 501 0 l 63 0 z "},"Ĺ":{"ha":519,"x_min":63,"x_max":501,"o":"m 63 0 l 63 986 l 221 986 l 221 133 l 501 133 l 501 0 l 63 0 m 182 1060 l 92 1085 l 192 1288 l 300 1246 l 182 1060 z "},"Ľ":{"ha":519,"x_min":63,"x_max":501,"o":"m 281 699 l 294 986 l 408 986 l 372 699 l 281 699 m 63 0 l 63 986 l 221 986 l 221 133 l 501 133 l 501 0 l 63 0 z "},"Ļ":{"ha":519,"x_min":63,"x_max":501,"o":"m 63 0 l 63 986 l 221 986 l 221 133 l 501 133 l 501 0 l 63 0 m 200 -353 l 239 -232 l 178 -232 l 178 -100 l 328 -100 l 328 -208 l 269 -353 l 200 -353 z "},"Ŀ":{"ha":525,"x_min":63,"x_max":501,"o":"m 63 0 l 63 986 l 221 986 l 221 133 l 501 133 l 501 0 l 63 0 m 333 461 l 333 613 l 488 613 l 488 461 l 333 461 z "},"Ł":{"ha":563,"x_min":22,"x_max":544,"o":"m 106 0 l 106 376 l 22 331 l 22 469 l 106 515 l 106 986 l 264 986 l 264 603 l 396 675 l 396 536 l 264 464 l 264 133 l 544 133 l 544 0 l 106 0 z "},"M":{"ha":832,"x_min":61,"x_max":769,"o":"m 61 0 l 61 986 l 308 986 l 418 196 l 421 196 l 531 986 l 769 986 l 769 0 l 626 0 l 626 842 l 622 843 l 493 0 l 335 0 l 206 842 l 200 842 l 200 0 l 61 0 z "},"N":{"ha":614,"x_min":63,"x_max":551,"o":"m 63 0 l 63 986 l 219 986 l 414 386 l 415 386 l 415 986 l 551 986 l 551 0 l 414 0 l 200 651 l 199 651 l 199 0 l 63 0 z "},"Ń":{"ha":614,"x_min":63,"x_max":551,"o":"m 63 0 l 63 986 l 219 986 l 414 386 l 415 386 l 415 986 l 551 986 l 551 0 l 414 0 l 200 651 l 199 651 l 199 0 l 63 0 m 338 1060 l 247 1085 l 347 1288 l 456 1246 l 338 1060 z "},"Ň":{"ha":614,"x_min":63,"x_max":551,"o":"m 63 0 l 63 986 l 219 986 l 414 386 l 415 386 l 415 986 l 551 986 l 551 0 l 414 0 l 200 651 l 199 651 l 199 0 l 63 0 m 256 1067 l 136 1235 l 247 1235 l 308 1146 l 369 1235 l 479 1235 l 360 1067 l 256 1067 z "},"Ņ":{"ha":614,"x_min":63,"x_max":551,"o":"m 63 0 l 63 986 l 219 986 l 414 386 l 415 386 l 415 986 l 551 986 l 551 0 l 414 0 l 200 651 l 199 651 l 199 0 l 63 0 m 254 -353 l 293 -232 l 232 -232 l 232 -100 l 382 -100 l 382 -208 l 324 -353 l 254 -353 z "},"Ñ":{"ha":614,"x_min":63,"x_max":551,"o":"m 63 0 l 63 986 l 219 986 l 414 386 l 415 386 l 415 986 l 551 986 l 551 0 l 414 0 l 200 651 l 199 651 l 199 0 l 63 0 m 375 1076 q 322 1090 344 1076 q 284 1116 300 1103 q 254 1129 268 1129 q 230 1116 236 1129 q 221 1079 224 1103 l 142 1079 q 172 1188 144 1157 q 238 1219 200 1219 q 292 1207 269 1219 q 331 1181 314 1194 q 361 1168 347 1168 q 393 1219 390 1168 l 472 1219 q 442 1108 471 1139 q 375 1076 414 1076 z "},"Ŋ":{"ha":618,"x_min":63,"x_max":556,"o":"m 340 -237 q 294 -235 314 -237 q 253 -229 275 -233 l 253 -100 q 306 -104 285 -104 q 377 -85 350 -104 q 404 -15 404 -67 l 404 38 l 201 644 l 200 644 l 200 0 l 63 0 l 63 986 l 221 986 l 417 393 l 418 393 l 418 986 l 556 986 l 556 -14 q 497 -187 556 -137 q 340 -237 439 -237 z "},"O":{"ha":650,"x_min":42,"x_max":608,"o":"m 325 -17 q 172 31 235 -17 q 75 190 108 78 q 42 493 42 301 q 75 799 42 688 q 172 956 108 910 q 325 1003 235 1003 q 478 956 415 1003 q 575 799 542 910 q 608 493 608 688 q 575 190 608 301 q 478 31 542 78 q 325 -17 415 -17 m 325 113 q 390 141 364 113 q 431 240 417 169 q 446 436 446 311 l 446 551 q 431 747 446 676 q 390 845 417 817 q 325 874 364 874 q 259 845 286 874 q 218 747 232 817 q 204 551 204 676 l 204 436 q 218 241 204 311 q 259 142 232 171 q 325 113 286 113 z "},"Ó":{"ha":650,"x_min":42,"x_max":608,"o":"m 325 -17 q 172 31 235 -17 q 75 190 108 78 q 42 493 42 301 q 75 799 42 688 q 172 956 108 910 q 325 1003 235 1003 q 478 956 415 1003 q 575 799 542 910 q 608 493 608 688 q 575 190 608 301 q 478 31 542 78 q 325 -17 415 -17 m 325 113 q 390 141 364 113 q 431 240 417 169 q 446 436 446 311 l 446 551 q 431 747 446 676 q 390 845 417 817 q 325 874 364 874 q 259 845 286 874 q 218 747 232 817 q 204 551 204 676 l 204 436 q 218 241 204 311 q 259 142 232 171 q 325 113 286 113 m 356 1060 l 265 1085 l 365 1288 l 474 1246 l 356 1060 z "},"Ŏ":{"ha":650,"x_min":42,"x_max":608,"o":"m 325 -17 q 172 31 235 -17 q 75 190 108 78 q 42 493 42 301 q 75 799 42 688 q 172 956 108 910 q 325 1003 235 1003 q 478 956 415 1003 q 575 799 542 910 q 608 493 608 688 q 575 190 608 301 q 478 31 542 78 q 325 -17 415 -17 m 325 113 q 390 141 364 113 q 431 240 417 169 q 446 436 446 311 l 446 551 q 431 747 446 676 q 390 845 417 817 q 325 874 364 874 q 259 845 286 874 q 218 747 232 817 q 204 551 204 676 l 204 436 q 218 241 204 311 q 259 142 232 171 q 325 113 286 113 m 325 1072 q 224 1117 264 1072 q 181 1249 185 1161 l 274 1249 q 290 1179 276 1199 q 325 1160 303 1160 q 361 1179 347 1160 q 378 1249 375 1199 l 469 1249 q 426 1117 465 1161 q 325 1072 386 1072 z "},"Ô":{"ha":650,"x_min":42,"x_max":608,"o":"m 325 -17 q 172 31 235 -17 q 75 190 108 78 q 42 493 42 301 q 75 799 42 688 q 172 956 108 910 q 325 1003 235 1003 q 478 956 415 1003 q 575 799 542 910 q 608 493 608 688 q 575 190 608 301 q 478 31 542 78 q 325 -17 415 -17 m 325 113 q 390 141 364 113 q 431 240 417 169 q 446 436 446 311 l 446 551 q 431 747 446 676 q 390 845 417 817 q 325 874 364 874 q 259 845 286 874 q 218 747 232 817 q 204 551 204 676 l 204 436 q 218 241 204 311 q 259 142 232 171 q 325 113 286 113 m 154 1067 l 274 1235 l 378 1235 l 497 1067 l 388 1067 l 326 1156 l 265 1067 l 154 1067 z "},"Ö":{"ha":650,"x_min":42,"x_max":608,"o":"m 325 -17 q 172 31 235 -17 q 75 190 108 78 q 42 493 42 301 q 75 799 42 688 q 172 956 108 910 q 325 1003 235 1003 q 478 956 415 1003 q 575 799 542 910 q 608 493 608 688 q 575 190 608 301 q 478 31 542 78 q 325 -17 415 -17 m 325 113 q 390 141 364 113 q 431 240 417 169 q 446 436 446 311 l 446 551 q 431 747 446 676 q 390 845 417 817 q 325 874 364 874 q 259 845 286 874 q 218 747 232 817 q 204 551 204 676 l 204 436 q 218 241 204 311 q 259 142 232 171 q 325 113 286 113 m 356 1083 l 356 1231 l 488 1231 l 488 1083 l 356 1083 m 172 1083 l 172 1231 l 304 1231 l 304 1083 l 172 1083 z "},"Ò":{"ha":650,"x_min":42,"x_max":608,"o":"m 325 -17 q 172 31 235 -17 q 75 190 108 78 q 42 493 42 301 q 75 799 42 688 q 172 956 108 910 q 325 1003 235 1003 q 478 956 415 1003 q 575 799 542 910 q 608 493 608 688 q 575 190 608 301 q 478 31 542 78 q 325 -17 415 -17 m 325 113 q 390 141 364 113 q 431 240 417 169 q 446 436 446 311 l 446 551 q 431 747 446 676 q 390 845 417 817 q 325 874 364 874 q 259 845 286 874 q 218 747 232 817 q 204 551 204 676 l 204 436 q 218 241 204 311 q 259 142 232 171 q 325 113 286 113 m 296 1060 l 178 1246 l 286 1288 l 386 1085 l 296 1060 z "},"Ő":{"ha":650,"x_min":42,"x_max":608,"o":"m 325 -17 q 172 31 235 -17 q 75 190 108 78 q 42 493 42 301 q 75 799 42 688 q 172 956 108 910 q 325 1003 235 1003 q 478 956 415 1003 q 575 799 542 910 q 608 493 608 688 q 575 190 608 301 q 478 31 542 78 q 325 -17 415 -17 m 325 113 q 390 141 364 113 q 431 240 417 169 q 446 436 446 311 l 446 551 q 431 747 446 676 q 390 845 417 817 q 325 874 364 874 q 259 845 286 874 q 218 747 232 817 q 204 551 204 676 l 204 436 q 218 241 204 311 q 259 142 232 171 q 325 113 286 113 m 260 1060 l 169 1085 l 269 1288 l 378 1246 l 260 1060 m 436 1060 l 347 1085 l 461 1288 l 568 1246 l 436 1060 z "},"Ō":{"ha":650,"x_min":42,"x_max":608,"o":"m 325 -17 q 172 31 235 -17 q 75 190 108 78 q 42 493 42 301 q 75 799 42 688 q 172 956 108 910 q 325 1003 235 1003 q 478 956 415 1003 q 575 799 542 910 q 608 493 608 688 q 575 190 608 301 q 478 31 542 78 q 325 -17 415 -17 m 325 113 q 390 141 364 113 q 431 240 417 169 q 446 436 446 311 l 446 551 q 431 747 446 676 q 390 845 417 817 q 325 874 364 874 q 259 845 286 874 q 218 747 232 817 q 204 551 204 676 l 204 436 q 218 241 204 311 q 259 142 232 171 q 325 113 286 113 m 136 1100 l 136 1199 l 514 1199 l 514 1100 l 136 1100 z "},"Ø":{"ha":656,"x_min":42,"x_max":615,"o":"m 165 -17 l 60 29 l 101 122 q 57 274 72 183 q 42 493 42 365 q 76 799 42 688 q 174 956 110 910 q 328 1003 238 1003 q 406 994 369 1003 q 474 964 443 985 l 490 1003 l 596 958 l 554 865 q 600 714 585 806 q 615 493 615 622 q 581 189 615 300 q 483 31 547 78 q 328 -17 418 -17 q 249 -8 286 -17 q 183 22 213 1 l 165 -17 m 203 408 q 204 354 203 381 l 413 826 q 375 861 396 850 q 328 872 354 872 q 260 844 288 872 q 217 746 232 815 q 203 551 203 676 l 203 408 m 328 114 q 397 142 368 114 q 440 241 425 171 q 454 436 454 311 l 454 579 q 453 635 454 610 l 244 161 q 328 114 274 114 z "},"Ǿ":{"ha":656,"x_min":42,"x_max":615,"o":"m 165 -17 l 60 29 l 101 122 q 57 274 72 183 q 42 493 42 365 q 76 799 42 688 q 174 956 110 910 q 328 1003 238 1003 q 406 994 369 1003 q 474 964 443 985 l 490 1003 l 596 958 l 554 865 q 600 714 585 806 q 615 493 615 622 q 581 189 615 300 q 483 31 547 78 q 328 -17 418 -17 q 249 -8 286 -17 q 183 22 213 1 l 165 -17 m 203 408 q 204 354 203 381 l 413 826 q 375 861 396 850 q 328 872 354 872 q 260 844 288 872 q 217 746 232 815 q 203 551 203 676 l 203 408 m 328 114 q 397 142 368 114 q 440 241 425 171 q 454 436 454 311 l 454 579 q 453 635 454 610 l 244 161 q 328 114 274 114 m 358 1060 l 268 1085 l 368 1288 l 476 1246 l 358 1060 z "},"Õ":{"ha":650,"x_min":42,"x_max":608,"o":"m 325 -17 q 172 31 235 -17 q 75 190 108 78 q 42 493 42 301 q 75 799 42 688 q 172 956 108 910 q 325 1003 235 1003 q 478 956 415 1003 q 575 799 542 910 q 608 493 608 688 q 575 190 608 301 q 478 31 542 78 q 325 -17 415 -17 m 325 113 q 390 141 364 113 q 431 240 417 169 q 446 436 446 311 l 446 551 q 431 747 446 676 q 390 845 417 817 q 325 874 364 874 q 259 845 286 874 q 218 747 232 817 q 204 551 204 676 l 204 436 q 218 241 204 311 q 259 142 232 171 q 325 113 286 113 m 393 1076 q 340 1090 363 1076 q 302 1116 318 1103 q 272 1129 286 1129 q 248 1116 254 1129 q 239 1079 242 1103 l 160 1079 q 190 1188 163 1157 q 256 1219 218 1219 q 310 1207 288 1219 q 349 1181 332 1194 q 379 1168 365 1168 q 411 1219 408 1168 l 490 1219 q 460 1108 489 1139 q 393 1076 432 1076 z "},"Œ":{"ha":904,"x_min":42,"x_max":868,"o":"m 343 0 q 185 47 253 0 q 79 201 117 93 q 42 493 42 310 q 79 785 42 678 q 185 940 117 893 q 343 986 253 986 l 863 986 l 863 853 l 574 853 l 574 568 l 831 568 l 831 442 l 574 442 l 574 133 l 868 133 l 868 0 l 343 0 m 360 133 l 415 133 l 415 853 l 360 853 q 246 796 288 853 q 204 590 204 739 l 204 397 q 246 191 204 249 q 360 133 288 133 z "},"P":{"ha":594,"x_min":63,"x_max":574,"o":"m 63 0 l 63 986 l 313 986 q 510 905 447 986 q 574 688 574 824 q 510 469 574 551 q 313 386 447 386 l 221 386 l 221 0 l 63 0 m 304 858 l 221 858 l 221 513 l 304 513 q 415 649 415 513 l 415 722 q 304 858 415 858 z "},"Þ":{"ha":606,"x_min":63,"x_max":574,"o":"m 63 0 l 63 986 l 221 986 l 221 806 l 314 806 q 507 729 440 807 q 574 506 574 651 q 507 282 574 360 q 314 204 440 204 l 221 203 l 221 0 l 63 0 m 304 678 l 221 676 l 221 331 l 304 332 q 386 364 357 332 q 415 468 415 396 l 415 540 q 392 638 415 597 q 304 678 368 678 z "},"Q":{"ha":654,"x_min":42,"x_max":613,"o":"m 326 -17 q 174 31 238 -17 q 76 190 110 78 q 42 493 42 301 q 76 799 42 688 q 174 956 110 910 q 326 1003 238 1003 q 481 956 417 1003 q 578 799 544 910 q 613 493 613 688 q 584 210 613 317 q 501 49 556 103 l 597 -81 l 474 -164 l 382 -12 q 326 -17 356 -17 m 326 113 q 392 141 365 113 q 434 240 419 169 q 449 436 449 311 l 449 551 q 434 747 449 676 q 392 845 419 817 q 326 874 365 874 q 262 845 289 874 q 220 747 235 817 q 206 551 206 676 l 206 436 q 220 241 206 311 q 262 142 235 171 q 326 113 289 113 z "},"R":{"ha":613,"x_min":63,"x_max":596,"o":"m 63 0 l 63 986 l 313 986 q 467 951 408 986 q 553 854 526 915 q 581 715 581 793 q 548 556 581 626 q 438 454 515 485 l 596 0 l 422 0 l 283 429 l 221 429 l 221 0 l 63 0 m 304 858 l 221 858 l 221 556 l 304 556 q 396 590 369 556 q 422 686 422 624 l 422 735 q 395 825 422 792 q 304 858 368 858 z "},"Ŕ":{"ha":613,"x_min":63,"x_max":596,"o":"m 63 0 l 63 986 l 313 986 q 467 951 408 986 q 553 854 526 915 q 581 715 581 793 q 548 556 581 626 q 438 454 515 485 l 596 0 l 422 0 l 283 429 l 221 429 l 221 0 l 63 0 m 304 858 l 221 858 l 221 556 l 304 556 q 396 590 369 556 q 422 686 422 624 l 422 735 q 395 825 422 792 q 304 858 368 858 m 368 1060 l 278 1085 l 378 1288 l 486 1246 l 368 1060 z "},"Ř":{"ha":613,"x_min":63,"x_max":596,"o":"m 63 0 l 63 986 l 313 986 q 467 951 408 986 q 553 854 526 915 q 581 715 581 793 q 548 556 581 626 q 438 454 515 485 l 596 0 l 422 0 l 283 429 l 221 429 l 221 0 l 63 0 m 304 858 l 221 858 l 221 556 l 304 556 q 396 590 369 556 q 422 686 422 624 l 422 735 q 395 825 422 792 q 304 858 368 858 m 285 1067 l 165 1235 l 276 1235 l 338 1146 l 399 1235 l 508 1235 l 389 1067 l 285 1067 z "},"Ŗ":{"ha":613,"x_min":63,"x_max":596,"o":"m 63 0 l 63 986 l 313 986 q 467 951 408 986 q 553 854 526 915 q 581 715 581 793 q 548 556 581 626 q 438 454 515 485 l 596 0 l 422 0 l 283 429 l 221 429 l 221 0 l 63 0 m 304 858 l 221 858 l 221 556 l 304 556 q 396 590 369 556 q 422 686 422 624 l 422 735 q 395 825 422 792 q 304 858 368 858 m 285 -353 l 324 -232 l 263 -232 l 263 -100 l 413 -100 l 413 -208 l 354 -353 l 285 -353 z "},"S":{"ha":578,"x_min":24,"x_max":544,"o":"m 293 -17 q 91 67 158 -17 q 33 311 24 150 l 178 318 q 201 167 175 221 q 290 111 226 113 q 353 131 331 111 q 383 180 375 150 q 392 239 392 210 q 366 336 392 300 q 292 410 340 372 l 206 472 q 90 588 136 524 q 44 751 44 653 q 114 938 44 872 q 289 1003 183 1003 q 472 933 408 1003 q 532 704 535 863 l 388 697 q 365 834 390 792 q 288 876 340 876 q 221 847 244 876 q 197 763 197 817 q 222 672 197 708 q 299 597 247 636 l 393 528 q 503 413 461 476 q 544 250 544 349 q 474 48 544 113 q 293 -17 404 -17 z "},"Ś":{"ha":578,"x_min":24,"x_max":544,"o":"m 293 -17 q 91 67 158 -17 q 33 311 24 150 l 178 318 q 201 167 175 221 q 290 111 226 113 q 353 131 331 111 q 383 180 375 150 q 392 239 392 210 q 366 336 392 300 q 292 410 340 372 l 206 472 q 90 588 136 524 q 44 751 44 653 q 114 938 44 872 q 289 1003 183 1003 q 472 933 408 1003 q 532 704 535 863 l 388 697 q 365 834 390 792 q 288 876 340 876 q 221 847 244 876 q 197 763 197 817 q 222 672 197 708 q 299 597 247 636 l 393 528 q 503 413 461 476 q 544 250 544 349 q 474 48 544 113 q 293 -17 404 -17 m 314 1060 l 224 1085 l 324 1288 l 432 1246 l 314 1060 z "},"Š":{"ha":578,"x_min":24,"x_max":544,"o":"m 293 -17 q 91 67 158 -17 q 33 311 24 150 l 178 318 q 201 167 175 221 q 290 111 226 113 q 353 131 331 111 q 383 180 375 150 q 392 239 392 210 q 366 336 392 300 q 292 410 340 372 l 206 472 q 90 588 136 524 q 44 751 44 653 q 114 938 44 872 q 289 1003 183 1003 q 472 933 408 1003 q 532 704 535 863 l 388 697 q 365 834 390 792 q 288 876 340 876 q 221 847 244 876 q 197 763 197 817 q 222 672 197 708 q 299 597 247 636 l 393 528 q 503 413 461 476 q 544 250 544 349 q 474 48 544 113 q 293 -17 404 -17 m 231 1067 l 111 1235 l 222 1235 l 283 1146 l 344 1235 l 454 1235 l 335 1067 l 231 1067 z "},"Ş":{"ha":578,"x_min":24,"x_max":544,"o":"m 293 -17 q 91 67 158 -17 q 33 311 24 150 l 178 318 q 201 167 175 221 q 290 111 226 113 q 353 131 331 111 q 383 180 375 150 q 392 239 392 210 q 366 336 392 300 q 292 410 340 372 l 206 472 q 90 588 136 524 q 44 751 44 653 q 114 938 44 872 q 289 1003 183 1003 q 472 933 408 1003 q 532 704 535 863 l 388 697 q 365 834 390 792 q 288 876 340 876 q 221 847 244 876 q 197 763 197 817 q 222 672 197 708 q 299 597 247 636 l 393 528 q 503 413 461 476 q 544 250 544 349 q 474 48 544 113 q 293 -17 404 -17 m 279 -232 q 244 -230 261 -232 q 204 -224 228 -228 l 204 -142 q 254 -149 229 -147 q 296 -144 279 -150 q 313 -119 313 -137 q 297 -94 313 -103 q 242 -78 281 -85 l 247 3 l 325 3 l 325 -36 q 384 -69 360 -46 q 408 -131 408 -92 q 372 -207 408 -182 q 279 -232 335 -232 z "},"Ŝ":{"ha":578,"x_min":24,"x_max":544,"o":"m 293 -17 q 91 67 158 -17 q 33 311 24 150 l 178 318 q 201 167 175 221 q 290 111 226 113 q 353 131 331 111 q 383 180 375 150 q 392 239 392 210 q 366 336 392 300 q 292 410 340 372 l 206 472 q 90 588 136 524 q 44 751 44 653 q 114 938 44 872 q 289 1003 183 1003 q 472 933 408 1003 q 532 704 535 863 l 388 697 q 365 834 390 792 q 288 876 340 876 q 221 847 244 876 q 197 763 197 817 q 222 672 197 708 q 299 597 247 636 l 393 528 q 503 413 461 476 q 544 250 544 349 q 474 48 544 113 q 293 -17 404 -17 m 111 1067 l 231 1235 l 335 1235 l 454 1067 l 344 1067 l 283 1156 l 222 1067 l 111 1067 z "},"Ș":{"ha":578,"x_min":24,"x_max":544,"o":"m 293 -17 q 91 67 158 -17 q 33 311 24 150 l 178 318 q 201 167 175 221 q 290 111 226 113 q 353 131 331 111 q 383 180 375 150 q 392 239 392 210 q 366 336 392 300 q 292 410 340 372 l 206 472 q 90 588 136 524 q 44 751 44 653 q 114 938 44 872 q 289 1003 183 1003 q 472 933 408 1003 q 532 704 535 863 l 388 697 q 365 834 390 792 q 288 876 340 876 q 221 847 244 876 q 197 763 197 817 q 222 672 197 708 q 299 597 247 636 l 393 528 q 503 413 461 476 q 544 250 544 349 q 474 48 544 113 q 293 -17 404 -17 m 240 -353 l 279 -232 l 218 -232 l 218 -100 l 368 -100 l 368 -208 l 310 -353 l 240 -353 z "},"ẞ":{"ha":644,"x_min":63,"x_max":614,"o":"m 365 -12 q 326 -10 347 -12 q 283 -1 306 -7 l 283 128 q 371 131 332 119 q 432 181 410 142 q 454 297 454 221 q 413 440 454 393 q 300 501 372 488 l 300 507 l 414 853 l 221 853 l 221 0 l 63 0 l 63 986 l 596 986 l 596 982 l 463 579 q 574 474 533 546 q 614 297 614 401 q 545 69 614 150 q 365 -12 476 -12 z "},"T":{"ha":544,"x_min":18,"x_max":526,"o":"m 193 0 l 193 853 l 18 853 l 18 986 l 526 986 l 526 853 l 351 853 l 351 0 l 193 0 z "},"Ŧ":{"ha":554,"x_min":24,"x_max":532,"o":"m 199 0 l 199 440 l 86 440 l 86 563 l 199 563 l 199 853 l 24 853 l 24 986 l 532 986 l 532 853 l 357 853 l 357 563 l 468 563 l 468 440 l 357 440 l 357 0 l 199 0 z "},"Ť":{"ha":544,"x_min":18,"x_max":526,"o":"m 193 0 l 193 853 l 18 853 l 18 986 l 526 986 l 526 853 l 351 853 l 351 0 l 193 0 m 221 1067 l 101 1235 l 213 1235 l 274 1146 l 335 1235 l 444 1235 l 325 1067 l 221 1067 z "},"Ț":{"ha":544,"x_min":18,"x_max":526,"o":"m 193 0 l 193 853 l 18 853 l 18 986 l 526 986 l 526 853 l 351 853 l 351 0 l 193 0 m 221 -353 l 260 -232 l 199 -232 l 199 -100 l 349 -100 l 349 -208 l 290 -353 l 221 -353 z "},"U":{"ha":639,"x_min":60,"x_max":579,"o":"m 318 -17 q 126 49 192 -17 q 60 250 60 115 l 60 986 l 218 986 l 218 250 q 322 121 218 121 q 428 250 428 121 l 428 986 l 579 986 l 579 250 q 513 49 579 115 q 318 -17 446 -17 z "},"Ú":{"ha":639,"x_min":60,"x_max":579,"o":"m 318 -17 q 126 49 192 -17 q 60 250 60 115 l 60 986 l 218 986 l 218 250 q 322 121 218 121 q 428 250 428 121 l 428 986 l 579 986 l 579 250 q 513 49 579 115 q 318 -17 446 -17 m 350 1060 l 260 1085 l 360 1288 l 468 1246 l 350 1060 z "},"Ŭ":{"ha":639,"x_min":60,"x_max":579,"o":"m 318 -17 q 126 49 192 -17 q 60 250 60 115 l 60 986 l 218 986 l 218 250 q 322 121 218 121 q 428 250 428 121 l 428 986 l 579 986 l 579 250 q 513 49 579 115 q 318 -17 446 -17 m 319 1072 q 219 1117 258 1072 q 175 1249 179 1161 l 268 1249 q 284 1179 271 1199 q 319 1160 297 1160 q 356 1179 342 1160 q 372 1249 369 1199 l 464 1249 q 420 1117 460 1161 q 319 1072 381 1072 z "},"Û":{"ha":639,"x_min":60,"x_max":579,"o":"m 318 -17 q 126 49 192 -17 q 60 250 60 115 l 60 986 l 218 986 l 218 250 q 322 121 218 121 q 428 250 428 121 l 428 986 l 579 986 l 579 250 q 513 49 579 115 q 318 -17 446 -17 m 149 1067 l 268 1235 l 372 1235 l 492 1067 l 382 1067 l 321 1156 l 260 1067 l 149 1067 z "},"Ü":{"ha":639,"x_min":60,"x_max":579,"o":"m 318 -17 q 126 49 192 -17 q 60 250 60 115 l 60 986 l 218 986 l 218 250 q 322 121 218 121 q 428 250 428 121 l 428 986 l 579 986 l 579 250 q 513 49 579 115 q 318 -17 446 -17 m 350 1083 l 350 1231 l 482 1231 l 482 1083 l 350 1083 m 167 1083 l 167 1231 l 299 1231 l 299 1083 l 167 1083 z "},"Ù":{"ha":639,"x_min":60,"x_max":579,"o":"m 318 -17 q 126 49 192 -17 q 60 250 60 115 l 60 986 l 218 986 l 218 250 q 322 121 218 121 q 428 250 428 121 l 428 986 l 579 986 l 579 250 q 513 49 579 115 q 318 -17 446 -17 m 290 1060 l 172 1246 l 281 1288 l 381 1085 l 290 1060 z "},"Ű":{"ha":639,"x_min":60,"x_max":579,"o":"m 318 -17 q 126 49 192 -17 q 60 250 60 115 l 60 986 l 218 986 l 218 250 q 322 121 218 121 q 428 250 428 121 l 428 986 l 579 986 l 579 250 q 513 49 579 115 q 318 -17 446 -17 m 254 1060 l 164 1085 l 264 1288 l 372 1246 l 254 1060 m 431 1060 l 342 1085 l 456 1288 l 563 1246 l 431 1060 z "},"Ū":{"ha":639,"x_min":60,"x_max":579,"o":"m 318 -17 q 126 49 192 -17 q 60 250 60 115 l 60 986 l 218 986 l 218 250 q 322 121 218 121 q 428 250 428 121 l 428 986 l 579 986 l 579 250 q 513 49 579 115 q 318 -17 446 -17 m 131 1100 l 131 1199 l 508 1199 l 508 1100 l 131 1100 z "},"Ų":{"ha":639,"x_min":60,"x_max":579,"o":"m 521 -224 q 437 -222 478 -229 q 369 -188 396 -214 q 343 -118 343 -162 q 356 -58 343 -86 q 386 -11 369 -29 q 354 -15 371 -14 q 318 -17 338 -17 q 126 49 192 -17 q 60 250 60 115 l 60 986 l 218 986 l 218 250 q 322 121 218 121 q 428 250 428 121 l 428 986 l 579 986 l 579 250 q 556 126 579 178 q 496 38 533 75 q 454 -24 464 7 q 444 -75 444 -56 q 467 -126 444 -114 q 521 -137 490 -139 l 521 -224 z "},"Ů":{"ha":639,"x_min":60,"x_max":579,"o":"m 318 -17 q 126 49 192 -17 q 60 250 60 115 l 60 986 l 218 986 l 218 250 q 322 121 218 121 q 428 250 428 121 l 428 986 l 579 986 l 579 250 q 513 49 579 115 q 318 -17 446 -17 m 321 907 q 208 949 253 907 q 164 1051 164 990 q 208 1154 164 1113 q 321 1196 253 1196 q 433 1154 389 1196 q 476 1051 476 1113 q 433 949 476 990 q 321 907 389 907 m 321 986 q 367 1003 349 986 q 386 1051 386 1021 q 367 1099 386 1082 q 321 1117 349 1117 q 274 1099 292 1117 q 256 1051 256 1082 q 274 1003 256 1021 q 321 986 292 986 z "},"Ũ":{"ha":639,"x_min":60,"x_max":579,"o":"m 318 -17 q 126 49 192 -17 q 60 250 60 115 l 60 986 l 218 986 l 218 250 q 322 121 218 121 q 428 250 428 121 l 428 986 l 579 986 l 579 250 q 513 49 579 115 q 318 -17 446 -17 m 388 1076 q 335 1090 357 1076 q 297 1116 313 1103 q 267 1129 281 1129 q 242 1116 249 1129 q 233 1079 236 1103 l 154 1079 q 185 1188 157 1157 q 250 1219 213 1219 q 304 1207 282 1219 q 343 1181 326 1194 q 374 1168 360 1168 q 406 1219 403 1168 l 485 1219 q 455 1108 483 1139 q 388 1076 426 1076 z "},"V":{"ha":611,"x_min":14,"x_max":597,"o":"m 201 0 l 14 986 l 175 986 l 310 171 l 446 986 l 597 986 l 410 0 l 201 0 z "},"W":{"ha":925,"x_min":21,"x_max":904,"o":"m 156 0 l 21 986 l 176 986 l 257 213 l 369 986 l 564 986 l 676 213 l 756 986 l 904 986 l 769 0 l 574 0 l 464 769 l 351 0 l 156 0 z "},"Ẃ":{"ha":925,"x_min":21,"x_max":904,"o":"m 156 0 l 21 986 l 176 986 l 257 213 l 369 986 l 564 986 l 676 213 l 756 986 l 904 986 l 769 0 l 574 0 l 464 769 l 351 0 l 156 0 m 493 1060 l 403 1085 l 503 1288 l 611 1246 l 493 1060 z "},"Ŵ":{"ha":925,"x_min":21,"x_max":904,"o":"m 156 0 l 21 986 l 176 986 l 257 213 l 369 986 l 564 986 l 676 213 l 756 986 l 904 986 l 769 0 l 574 0 l 464 769 l 351 0 l 156 0 m 292 1067 l 411 1235 l 515 1235 l 635 1067 l 525 1067 l 464 1156 l 403 1067 l 292 1067 z "},"Ẅ":{"ha":925,"x_min":21,"x_max":904,"o":"m 156 0 l 21 986 l 176 986 l 257 213 l 369 986 l 564 986 l 676 213 l 756 986 l 904 986 l 769 0 l 574 0 l 464 769 l 351 0 l 156 0 m 493 1083 l 493 1231 l 625 1231 l 625 1083 l 493 1083 m 310 1083 l 310 1231 l 442 1231 l 442 1083 l 310 1083 z "},"Ẁ":{"ha":925,"x_min":21,"x_max":904,"o":"m 156 0 l 21 986 l 176 986 l 257 213 l 369 986 l 564 986 l 676 213 l 756 986 l 904 986 l 769 0 l 574 0 l 464 769 l 351 0 l 156 0 m 433 1060 l 315 1246 l 424 1288 l 524 1085 l 433 1060 z "},"X":{"ha":601,"x_min":7,"x_max":596,"o":"m 7 0 l 207 499 l 8 986 l 175 986 l 303 638 l 431 986 l 594 986 l 396 499 l 596 0 l 431 0 l 299 360 l 168 0 l 7 0 z "},"Y":{"ha":581,"x_min":-1,"x_max":583,"o":"m 211 0 l 211 338 l -1 986 l 165 986 l 293 535 l 419 986 l 583 986 l 369 338 l 369 0 l 211 0 z "},"Ý":{"ha":581,"x_min":-1,"x_max":583,"o":"m 211 0 l 211 338 l -1 986 l 165 986 l 293 535 l 419 986 l 583 986 l 369 338 l 369 0 l 211 0 m 321 1060 l 231 1085 l 331 1288 l 439 1246 l 321 1060 z "},"Ŷ":{"ha":581,"x_min":-1,"x_max":583,"o":"m 211 0 l 211 338 l -1 986 l 165 986 l 293 535 l 419 986 l 583 986 l 369 338 l 369 0 l 211 0 m 119 1067 l 239 1235 l 343 1235 l 463 1067 l 353 1067 l 292 1156 l 231 1067 l 119 1067 z "},"Ÿ":{"ha":581,"x_min":-1,"x_max":583,"o":"m 211 0 l 211 338 l -1 986 l 165 986 l 293 535 l 419 986 l 583 986 l 369 338 l 369 0 l 211 0 m 321 1083 l 321 1231 l 453 1231 l 453 1083 l 321 1083 m 138 1083 l 138 1231 l 269 1231 l 269 1083 l 138 1083 z "},"Ỳ":{"ha":581,"x_min":-1,"x_max":583,"o":"m 211 0 l 211 338 l -1 986 l 165 986 l 293 535 l 419 986 l 583 986 l 369 338 l 369 0 l 211 0 m 261 1060 l 143 1246 l 251 1288 l 351 1085 l 261 1060 z "},"Z":{"ha":515,"x_min":28,"x_max":488,"o":"m 28 0 l 28 111 l 314 853 l 33 853 l 33 986 l 483 986 l 483 876 l 197 133 l 488 133 l 488 0 l 28 0 z "},"Ź":{"ha":515,"x_min":28,"x_max":488,"o":"m 28 0 l 28 111 l 314 853 l 33 853 l 33 986 l 483 986 l 483 876 l 197 133 l 488 133 l 488 0 l 28 0 m 288 1060 l 197 1085 l 297 1288 l 406 1246 l 288 1060 z "},"Ž":{"ha":515,"x_min":28,"x_max":488,"o":"m 28 0 l 28 111 l 314 853 l 33 853 l 33 986 l 483 986 l 483 876 l 197 133 l 488 133 l 488 0 l 28 0 m 206 1067 l 86 1235 l 197 1235 l 258 1146 l 319 1235 l 429 1235 l 310 1067 l 206 1067 z "},"Ż":{"ha":515,"x_min":28,"x_max":488,"o":"m 28 0 l 28 111 l 314 853 l 33 853 l 33 986 l 483 986 l 483 876 l 197 133 l 488 133 l 488 0 l 28 0 m 179 1083 l 179 1231 l 335 1231 l 335 1083 l 179 1083 z "},"a":{"ha":550,"x_min":31,"x_max":501,"o":"m 201 -11 q 76 40 121 -11 q 31 182 31 90 q 78 325 31 274 q 213 407 126 376 l 340 454 l 340 511 q 320 583 340 564 q 267 603 300 603 q 209 578 231 603 q 181 486 188 553 l 38 504 q 108 667 49 611 q 274 724 167 724 q 496 493 496 724 l 496 181 q 497 110 496 146 q 501 0 497 74 l 357 0 l 349 76 q 288 10 326 32 q 201 -11 250 -11 m 183 194 q 202 121 183 142 q 256 100 221 100 q 317 126 294 100 q 340 192 340 151 l 340 349 l 271 319 q 207 275 231 301 q 183 194 183 249 z "},"á":{"ha":550,"x_min":31,"x_max":501,"o":"m 201 -11 q 76 40 121 -11 q 31 182 31 90 q 78 325 31 274 q 213 407 126 376 l 340 454 l 340 511 q 320 583 340 564 q 267 603 300 603 q 209 578 231 603 q 181 486 188 553 l 38 504 q 108 667 49 611 q 274 724 167 724 q 496 493 496 724 l 496 181 q 497 110 496 146 q 501 0 497 74 l 357 0 l 349 76 q 288 10 326 32 q 201 -11 250 -11 m 183 194 q 202 121 183 142 q 256 100 221 100 q 317 126 294 100 q 340 192 340 151 l 340 349 l 271 319 q 207 275 231 301 q 183 194 183 249 m 310 794 l 219 819 l 332 1057 l 440 1015 l 310 794 z "},"ă":{"ha":550,"x_min":31,"x_max":501,"o":"m 201 -11 q 76 40 121 -11 q 31 182 31 90 q 78 325 31 274 q 213 407 126 376 l 340 454 l 340 511 q 320 583 340 564 q 267 603 300 603 q 209 578 231 603 q 181 486 188 553 l 38 504 q 108 667 49 611 q 274 724 167 724 q 496 493 496 724 l 496 181 q 497 110 496 146 q 501 0 497 74 l 357 0 l 349 76 q 288 10 326 32 q 201 -11 250 -11 m 183 194 q 202 121 183 142 q 256 100 221 100 q 317 126 294 100 q 340 192 340 151 l 340 349 l 271 319 q 207 275 231 301 q 183 194 183 249 m 267 800 q 167 842 206 800 q 125 978 129 885 l 218 978 q 233 905 221 922 q 267 888 244 888 q 301 905 289 888 q 317 978 314 922 l 408 978 q 366 842 404 885 q 267 800 328 800 z "},"â":{"ha":550,"x_min":31,"x_max":501,"o":"m 201 -11 q 76 40 121 -11 q 31 182 31 90 q 78 325 31 274 q 213 407 126 376 l 340 454 l 340 511 q 320 583 340 564 q 267 603 300 603 q 209 578 231 603 q 181 486 188 553 l 38 504 q 108 667 49 611 q 274 724 167 724 q 496 493 496 724 l 496 181 q 497 110 496 146 q 501 0 497 74 l 357 0 l 349 76 q 288 10 326 32 q 201 -11 250 -11 m 183 194 q 202 121 183 142 q 256 100 221 100 q 317 126 294 100 q 340 192 340 151 l 340 349 l 271 319 q 207 275 231 301 q 183 194 183 249 m 96 808 l 215 976 l 319 976 l 439 808 l 329 808 l 268 897 l 207 808 l 96 808 z "},"ä":{"ha":550,"x_min":31,"x_max":501,"o":"m 201 -11 q 76 40 121 -11 q 31 182 31 90 q 78 325 31 274 q 213 407 126 376 l 340 454 l 340 511 q 320 583 340 564 q 267 603 300 603 q 209 578 231 603 q 181 486 188 553 l 38 504 q 108 667 49 611 q 274 724 167 724 q 496 493 496 724 l 496 181 q 497 110 496 146 q 501 0 497 74 l 357 0 l 349 76 q 288 10 326 32 q 201 -11 250 -11 m 183 194 q 202 121 183 142 q 256 100 221 100 q 317 126 294 100 q 340 192 340 151 l 340 349 l 271 319 q 207 275 231 301 q 183 194 183 249 m 297 811 l 297 958 l 429 958 l 429 811 l 297 811 m 114 811 l 114 958 l 246 958 l 246 811 l 114 811 z "},"à":{"ha":550,"x_min":31,"x_max":501,"o":"m 201 -11 q 76 40 121 -11 q 31 182 31 90 q 78 325 31 274 q 213 407 126 376 l 340 454 l 340 511 q 320 583 340 564 q 267 603 300 603 q 209 578 231 603 q 181 486 188 553 l 38 504 q 108 667 49 611 q 274 724 167 724 q 496 493 496 724 l 496 181 q 497 110 496 146 q 501 0 497 74 l 357 0 l 349 76 q 288 10 326 32 q 201 -11 250 -11 m 183 194 q 202 121 183 142 q 256 100 221 100 q 317 126 294 100 q 340 192 340 151 l 340 349 l 271 319 q 207 275 231 301 q 183 194 183 249 m 354 794 l 224 1015 l 332 1057 l 444 819 l 354 794 z "},"ā":{"ha":550,"x_min":31,"x_max":501,"o":"m 201 -11 q 76 40 121 -11 q 31 182 31 90 q 78 325 31 274 q 213 407 126 376 l 340 454 l 340 511 q 320 583 340 564 q 267 603 300 603 q 209 578 231 603 q 181 486 188 553 l 38 504 q 108 667 49 611 q 274 724 167 724 q 496 493 496 724 l 496 181 q 497 110 496 146 q 501 0 497 74 l 357 0 l 349 76 q 288 10 326 32 q 201 -11 250 -11 m 183 194 q 202 121 183 142 q 256 100 221 100 q 317 126 294 100 q 340 192 340 151 l 340 349 l 271 319 q 207 275 231 301 q 183 194 183 249 m 92 828 l 92 926 l 443 926 l 443 828 l 92 828 z "},"ą":{"ha":550,"x_min":31,"x_max":506,"o":"m 201 -11 q 76 40 121 -11 q 31 182 31 90 q 78 325 31 274 q 213 407 126 376 l 340 454 l 340 511 q 320 583 340 564 q 268 603 300 603 q 209 576 231 603 q 181 486 188 549 l 38 504 q 108 665 49 607 q 276 724 168 724 q 496 493 496 724 l 496 181 q 497 110 496 146 q 501 0 497 74 l 456 0 q 437 -37 444 -18 q 429 -81 429 -57 q 454 -126 429 -114 q 506 -136 479 -139 l 506 -224 q 424 -223 465 -229 q 354 -191 382 -217 q 326 -114 326 -165 q 340 -51 326 -81 q 368 0 353 -21 l 357 0 l 349 76 q 288 10 326 32 q 201 -11 250 -11 m 183 194 q 202 121 183 142 q 256 100 221 100 q 317 126 294 100 q 340 192 340 151 l 340 349 l 271 319 q 207 275 231 301 q 183 194 183 249 z "},"å":{"ha":550,"x_min":31,"x_max":501,"o":"m 201 -11 q 76 40 121 -11 q 31 182 31 90 q 78 325 31 274 q 213 407 126 376 l 340 454 l 340 511 q 320 583 340 564 q 267 603 300 603 q 209 578 231 603 q 181 486 188 553 l 38 504 q 108 667 49 611 q 274 724 167 724 q 496 493 496 724 l 496 181 q 497 110 496 146 q 501 0 497 74 l 357 0 l 349 76 q 288 10 326 32 q 201 -11 250 -11 m 183 194 q 202 121 183 142 q 256 100 221 100 q 317 126 294 100 q 340 192 340 151 l 340 349 l 271 319 q 207 275 231 301 q 183 194 183 249 m 267 794 q 174 831 211 794 q 136 919 136 867 q 174 1009 136 974 q 267 1044 211 1044 q 360 1009 324 1044 q 397 919 397 974 q 360 831 397 867 q 267 794 324 794 m 267 863 q 305 878 290 863 q 319 919 319 893 q 305 963 319 947 q 267 978 290 978 q 230 963 244 978 q 215 919 215 947 q 230 878 215 893 q 267 863 244 863 z "},"ã":{"ha":550,"x_min":31,"x_max":501,"o":"m 201 -11 q 76 40 121 -11 q 31 182 31 90 q 78 325 31 274 q 213 407 126 376 l 340 454 l 340 511 q 320 583 340 564 q 267 603 300 603 q 209 578 231 603 q 181 486 188 553 l 38 504 q 108 667 49 611 q 274 724 167 724 q 496 493 496 724 l 496 181 q 497 110 496 146 q 501 0 497 74 l 357 0 l 349 76 q 288 10 326 32 q 201 -11 250 -11 m 183 194 q 202 121 183 142 q 256 100 221 100 q 317 126 294 100 q 340 192 340 151 l 340 349 l 271 319 q 207 275 231 301 q 183 194 183 249 m 335 826 q 282 840 304 826 q 244 866 260 853 q 214 879 228 879 q 190 866 196 879 q 181 829 183 853 l 101 829 q 132 938 104 907 q 197 969 160 969 q 251 957 229 969 q 290 931 274 944 q 321 918 307 918 q 353 969 350 918 l 432 969 q 402 858 431 889 q 335 826 374 826 z "},"æ":{"ha":850,"x_min":31,"x_max":814,"o":"m 232 -17 q 84 35 138 -17 q 31 182 31 88 q 78 325 31 274 q 213 407 126 376 l 340 454 l 340 511 q 320 583 340 564 q 268 603 300 603 q 209 576 231 603 q 181 486 188 549 l 38 504 q 106 665 49 607 q 265 724 164 724 q 362 704 319 724 q 431 643 404 685 q 504 706 463 688 q 593 724 546 724 q 715 688 669 724 q 783 592 761 651 q 809 465 804 533 q 807 331 814 396 l 494 331 l 494 281 q 518 140 494 179 q 588 101 542 101 q 649 136 631 101 q 674 253 668 171 l 811 242 q 744 43 806 103 q 590 -17 682 -17 q 487 6 533 -17 q 413 74 440 28 q 338 5 385 26 q 232 -17 290 -17 m 494 433 l 494 429 l 674 429 l 674 449 q 652 572 674 536 q 589 608 631 608 q 519 570 544 608 q 494 433 494 532 m 183 194 q 203 117 183 139 q 258 96 224 96 q 318 121 296 96 q 340 190 340 146 l 340 349 l 271 319 q 207 275 231 301 q 183 194 183 249 z "},"ǽ":{"ha":850,"x_min":31,"x_max":814,"o":"m 232 -17 q 84 35 138 -17 q 31 182 31 88 q 78 325 31 274 q 213 407 126 376 l 340 454 l 340 511 q 320 583 340 564 q 268 603 300 603 q 209 576 231 603 q 181 486 188 549 l 38 504 q 106 665 49 607 q 265 724 164 724 q 362 704 319 724 q 431 643 404 685 q 504 706 463 688 q 593 724 546 724 q 715 688 669 724 q 783 592 761 651 q 809 465 804 533 q 807 331 814 396 l 494 331 l 494 281 q 518 140 494 179 q 588 101 542 101 q 649 136 631 101 q 674 253 668 171 l 811 242 q 744 43 806 103 q 590 -17 682 -17 q 487 6 533 -17 q 413 74 440 28 q 338 5 385 26 q 232 -17 290 -17 m 494 433 l 494 429 l 674 429 l 674 449 q 652 572 674 536 q 589 608 631 608 q 519 570 544 608 q 494 433 494 532 m 183 194 q 203 117 183 139 q 258 96 224 96 q 318 121 296 96 q 340 190 340 146 l 340 349 l 271 319 q 207 275 231 301 q 183 194 183 249 m 478 794 l 388 819 l 500 1057 l 608 1015 l 478 794 z "},"b":{"ha":590,"x_min":57,"x_max":553,"o":"m 57 0 l 57 986 l 213 986 l 213 642 q 270 704 236 685 q 346 724 304 724 q 451 688 404 724 q 525 572 497 653 q 553 353 553 492 q 525 135 553 217 q 451 19 497 54 q 349 -17 404 -17 q 263 5 301 -17 q 201 71 225 26 l 192 0 l 57 0 m 213 247 q 240 133 213 163 q 304 104 267 104 q 372 144 349 104 q 394 271 394 185 l 394 436 q 372 564 394 524 q 304 604 349 604 q 240 574 267 604 q 213 451 213 543 l 213 247 z "},"c":{"ha":543,"x_min":38,"x_max":511,"o":"m 285 -17 q 157 19 213 -17 q 69 137 101 56 q 38 353 38 218 q 69 570 38 489 q 157 688 101 651 q 285 724 213 724 q 397 697 347 724 q 476 608 446 671 q 510 435 507 544 l 374 426 q 350 563 368 522 q 288 603 332 603 q 219 563 242 603 q 196 425 196 524 l 196 282 q 219 145 196 185 q 288 106 242 106 q 351 146 333 106 q 374 282 368 186 l 511 274 q 478 101 508 164 q 397 10 447 38 q 285 -17 347 -17 z "},"ć":{"ha":543,"x_min":38,"x_max":511,"o":"m 285 -17 q 157 19 213 -17 q 69 137 101 56 q 38 353 38 218 q 69 570 38 489 q 157 688 101 651 q 285 724 213 724 q 397 697 347 724 q 476 608 446 671 q 510 435 507 544 l 374 426 q 350 563 368 522 q 288 603 332 603 q 219 563 242 603 q 196 425 196 524 l 196 282 q 219 145 196 185 q 288 106 242 106 q 351 146 333 106 q 374 282 368 186 l 511 274 q 478 101 508 164 q 397 10 447 38 q 285 -17 347 -17 m 315 793 l 225 818 l 338 1056 l 446 1014 l 315 793 z "},"č":{"ha":543,"x_min":38,"x_max":511,"o":"m 285 -17 q 157 19 213 -17 q 69 137 101 56 q 38 353 38 218 q 69 570 38 489 q 157 688 101 651 q 285 724 213 724 q 397 697 347 724 q 476 608 446 671 q 510 435 507 544 l 374 426 q 350 563 368 522 q 288 603 332 603 q 219 563 242 603 q 196 425 196 524 l 196 282 q 219 145 196 185 q 288 106 242 106 q 351 146 333 106 q 374 282 368 186 l 511 274 q 478 101 508 164 q 397 10 447 38 q 285 -17 347 -17 m 224 807 l 104 975 l 213 975 l 274 886 l 335 975 l 442 975 l 322 807 l 224 807 z "},"ç":{"ha":542,"x_min":38,"x_max":511,"o":"m 285 -17 q 157 19 213 -17 q 69 137 101 56 q 38 353 38 218 q 69 570 38 489 q 157 688 101 651 q 285 724 213 724 q 397 697 347 724 q 476 608 446 671 q 510 435 507 544 l 374 426 q 350 563 368 522 q 288 603 332 603 q 219 563 242 603 q 196 425 196 524 l 196 282 q 219 145 196 185 q 288 106 242 106 q 351 146 333 106 q 374 282 368 186 l 511 274 q 478 101 508 164 q 397 10 447 38 q 285 -17 347 -17 m 279 -232 q 244 -230 261 -232 q 204 -224 228 -228 l 204 -142 q 254 -149 229 -147 q 296 -144 279 -150 q 313 -119 313 -137 q 297 -94 313 -103 q 242 -78 281 -85 l 247 3 l 325 3 l 325 -36 q 384 -69 360 -46 q 408 -131 408 -92 q 372 -207 408 -182 q 279 -232 335 -232 z "},"ĉ":{"ha":543,"x_min":38,"x_max":511,"o":"m 285 -17 q 157 19 213 -17 q 69 137 101 56 q 38 353 38 218 q 69 570 38 489 q 157 688 101 651 q 285 724 213 724 q 397 697 347 724 q 476 608 446 671 q 510 435 507 544 l 374 426 q 350 563 368 522 q 288 603 332 603 q 219 563 242 603 q 196 425 196 524 l 196 282 q 219 145 196 185 q 288 106 242 106 q 351 146 333 106 q 374 282 368 186 l 511 274 q 478 101 508 164 q 397 10 447 38 q 285 -17 347 -17 m 101 807 l 221 975 l 325 975 l 444 807 l 335 807 l 274 896 l 213 807 l 101 807 z "},"ċ":{"ha":543,"x_min":38,"x_max":511,"o":"m 285 -17 q 157 19 213 -17 q 69 137 101 56 q 38 353 38 218 q 69 570 38 489 q 157 688 101 651 q 285 724 213 724 q 397 697 347 724 q 476 608 446 671 q 510 435 507 544 l 374 426 q 350 563 368 522 q 288 603 332 603 q 219 563 242 603 q 196 425 196 524 l 196 282 q 219 145 196 185 q 288 106 242 106 q 351 146 333 106 q 374 282 368 186 l 511 274 q 478 101 508 164 q 397 10 447 38 q 285 -17 347 -17 m 194 810 l 194 957 l 350 957 l 350 810 l 194 810 z "},"d":{"ha":590,"x_min":38,"x_max":533,"o":"m 242 -17 q 140 19 186 -17 q 65 135 93 54 q 38 353 38 217 q 65 572 38 492 q 140 688 93 653 q 244 724 188 724 q 320 704 286 724 q 378 642 354 685 l 378 986 l 533 986 l 533 0 l 379 0 l 379 71 q 322 4 357 25 q 242 -17 286 -17 m 196 271 q 219 144 196 185 q 285 104 242 104 q 351 133 324 104 q 378 247 378 163 l 378 451 q 351 574 378 543 q 285 604 324 604 q 219 564 242 604 q 196 436 196 524 l 196 271 z "},"ď":{"ha":681,"x_min":38,"x_max":733,"o":"m 606 699 l 619 986 l 733 986 l 696 699 l 606 699 m 242 -17 q 140 19 186 -17 q 65 135 93 54 q 38 353 38 217 q 65 572 38 492 q 140 688 93 653 q 244 724 188 724 q 320 704 286 724 q 378 642 354 685 l 378 986 l 533 986 l 533 0 l 379 0 l 379 71 q 322 4 357 25 q 242 -17 286 -17 m 196 271 q 219 144 196 185 q 285 104 242 104 q 351 133 324 104 q 378 247 378 163 l 378 451 q 351 574 378 543 q 285 604 324 604 q 219 564 242 604 q 196 436 196 524 l 196 271 z "},"đ":{"ha":590,"x_min":38,"x_max":592,"o":"m 242 -17 q 140 19 186 -17 q 65 135 93 54 q 38 353 38 217 q 65 572 38 492 q 140 688 93 653 q 244 724 188 724 q 320 704 286 724 q 378 642 354 685 l 378 790 l 247 790 l 247 894 l 378 894 l 378 986 l 533 986 l 533 894 l 592 894 l 592 790 l 533 790 l 533 0 l 379 0 l 379 71 q 322 4 357 25 q 242 -17 286 -17 m 196 271 q 219 144 196 185 q 285 104 242 104 q 351 133 324 104 q 378 247 378 163 l 378 451 q 351 574 378 543 q 285 604 324 604 q 219 564 242 604 q 196 436 196 524 l 196 271 z "},"ð":{"ha":579,"x_min":38,"x_max":540,"o":"m 289 -17 q 158 19 215 -17 q 69 136 101 54 q 38 354 38 218 q 69 571 38 490 q 153 688 100 651 q 268 724 206 724 q 309 720 290 724 q 346 707 328 717 q 310 763 331 736 q 261 817 289 790 l 131 742 l 131 822 l 201 864 q 131 907 169 886 l 213 1003 q 317 931 269 969 l 442 1003 l 442 922 l 369 881 q 485 710 449 799 q 531 535 521 621 q 540 375 540 449 q 508 142 540 228 q 419 20 476 57 q 289 -17 363 -17 m 289 104 q 358 143 333 104 q 382 281 382 182 l 382 426 q 358 564 382 525 q 289 603 333 603 q 220 564 244 603 q 196 426 196 525 l 196 281 q 220 143 196 182 q 289 104 244 104 z "},"e":{"ha":549,"x_min":38,"x_max":513,"o":"m 285 -17 q 156 19 213 -17 q 69 135 100 54 q 38 353 38 217 q 69 570 38 489 q 157 688 101 651 q 285 724 213 724 q 411 688 364 724 q 481 592 458 651 q 508 465 504 533 q 507 331 513 396 l 193 331 l 193 281 q 217 140 193 179 q 288 101 242 101 q 348 136 331 101 q 374 253 365 171 l 511 242 q 440 43 503 103 q 285 -17 378 -17 m 193 433 l 193 429 l 372 429 l 372 438 q 351 572 372 536 q 288 608 331 608 q 218 570 243 608 q 193 433 193 532 z "},"é":{"ha":549,"x_min":38,"x_max":513,"o":"m 285 -17 q 156 19 213 -17 q 69 135 100 54 q 38 353 38 217 q 69 570 38 489 q 157 688 101 651 q 285 724 213 724 q 411 688 364 724 q 481 592 458 651 q 508 465 504 533 q 507 331 513 396 l 193 331 l 193 281 q 217 140 193 179 q 288 101 242 101 q 348 136 331 101 q 374 253 365 171 l 511 242 q 440 43 503 103 q 285 -17 378 -17 m 193 433 l 193 429 l 372 429 l 372 438 q 351 572 372 536 q 288 608 331 608 q 218 570 243 608 q 193 433 193 532 m 326 794 l 236 819 l 349 1057 l 457 1015 l 326 794 z "},"ĕ":{"ha":549,"x_min":38,"x_max":513,"o":"m 285 -17 q 156 19 213 -17 q 69 135 100 54 q 38 353 38 217 q 69 570 38 489 q 157 688 101 651 q 285 724 213 724 q 411 688 364 724 q 481 592 458 651 q 508 465 504 533 q 507 331 513 396 l 193 331 l 193 281 q 217 140 193 179 q 288 101 242 101 q 348 136 331 101 q 374 253 365 171 l 511 242 q 440 43 503 103 q 285 -17 378 -17 m 193 433 l 193 429 l 372 429 l 372 438 q 351 572 372 536 q 288 608 331 608 q 218 570 243 608 q 193 433 193 532 m 285 800 q 185 842 224 800 q 143 978 147 885 l 236 978 q 251 905 239 922 q 285 888 263 888 q 319 905 307 888 q 335 978 332 922 l 426 978 q 384 842 422 885 q 285 800 346 800 z "},"ě":{"ha":549,"x_min":38,"x_max":513,"o":"m 285 -17 q 156 19 213 -17 q 69 135 100 54 q 38 353 38 217 q 69 570 38 489 q 157 688 101 651 q 285 724 213 724 q 411 688 364 724 q 481 592 458 651 q 508 465 504 533 q 507 331 513 396 l 193 331 l 193 281 q 217 140 193 179 q 288 101 242 101 q 348 136 331 101 q 374 253 365 171 l 511 242 q 440 43 503 103 q 285 -17 378 -17 m 193 433 l 193 429 l 372 429 l 372 438 q 351 572 372 536 q 288 608 331 608 q 218 570 243 608 q 193 433 193 532 m 235 808 l 115 976 l 224 976 l 285 888 l 346 976 l 453 976 l 333 808 l 235 808 z "},"ê":{"ha":549,"x_min":38,"x_max":513,"o":"m 285 -17 q 156 19 213 -17 q 69 135 100 54 q 38 353 38 217 q 69 570 38 489 q 157 688 101 651 q 285 724 213 724 q 411 688 364 724 q 481 592 458 651 q 508 465 504 533 q 507 331 513 396 l 193 331 l 193 281 q 217 140 193 179 q 288 101 242 101 q 348 136 331 101 q 374 253 365 171 l 511 242 q 440 43 503 103 q 285 -17 378 -17 m 193 433 l 193 429 l 372 429 l 372 438 q 351 572 372 536 q 288 608 331 608 q 218 570 243 608 q 193 433 193 532 m 113 808 l 232 976 l 336 976 l 456 808 l 346 808 l 285 897 l 224 808 l 113 808 z "},"ë":{"ha":549,"x_min":38,"x_max":513,"o":"m 285 -17 q 156 19 213 -17 q 69 135 100 54 q 38 353 38 217 q 69 570 38 489 q 157 688 101 651 q 285 724 213 724 q 411 688 364 724 q 481 592 458 651 q 508 465 504 533 q 507 331 513 396 l 193 331 l 193 281 q 217 140 193 179 q 288 101 242 101 q 348 136 331 101 q 374 253 365 171 l 511 242 q 440 43 503 103 q 285 -17 378 -17 m 193 433 l 193 429 l 372 429 l 372 438 q 351 572 372 536 q 288 608 331 608 q 218 570 243 608 q 193 433 193 532 m 314 811 l 314 958 l 446 958 l 446 811 l 314 811 m 131 811 l 131 958 l 263 958 l 263 811 l 131 811 z "},"ė":{"ha":549,"x_min":38,"x_max":513,"o":"m 285 -17 q 156 19 213 -17 q 69 135 100 54 q 38 353 38 217 q 69 570 38 489 q 157 688 101 651 q 285 724 213 724 q 411 688 364 724 q 481 592 458 651 q 508 465 504 533 q 507 331 513 396 l 193 331 l 193 281 q 217 140 193 179 q 288 101 242 101 q 348 136 331 101 q 374 253 365 171 l 511 242 q 440 43 503 103 q 285 -17 378 -17 m 193 433 l 193 429 l 372 429 l 372 438 q 351 572 372 536 q 288 608 331 608 q 218 570 243 608 q 193 433 193 532 m 206 811 l 206 958 l 361 958 l 361 811 l 206 811 z "},"è":{"ha":549,"x_min":38,"x_max":513,"o":"m 285 -17 q 156 19 213 -17 q 69 135 100 54 q 38 353 38 217 q 69 570 38 489 q 157 688 101 651 q 285 724 213 724 q 411 688 364 724 q 481 592 458 651 q 508 465 504 533 q 507 331 513 396 l 193 331 l 193 281 q 217 140 193 179 q 288 101 242 101 q 348 136 331 101 q 374 253 365 171 l 511 242 q 440 43 503 103 q 285 -17 378 -17 m 193 433 l 193 429 l 372 429 l 372 438 q 351 572 372 536 q 288 608 331 608 q 218 570 243 608 q 193 433 193 532 m 371 794 l 240 1015 l 349 1057 l 461 819 l 371 794 z "},"ē":{"ha":549,"x_min":38,"x_max":513,"o":"m 285 -17 q 156 19 213 -17 q 69 135 100 54 q 38 353 38 217 q 69 570 38 489 q 157 688 101 651 q 285 724 213 724 q 411 688 364 724 q 481 592 458 651 q 508 465 504 533 q 507 331 513 396 l 193 331 l 193 281 q 217 140 193 179 q 288 101 242 101 q 348 136 331 101 q 374 253 365 171 l 511 242 q 440 43 503 103 q 285 -17 378 -17 m 193 433 l 193 429 l 372 429 l 372 438 q 351 572 372 536 q 288 608 331 608 q 218 570 243 608 q 193 433 193 532 m 108 828 l 108 926 l 460 926 l 460 828 l 108 828 z "},"ę":{"ha":549,"x_min":36,"x_max":513,"o":"m 458 -224 q 376 -222 418 -229 q 307 -190 335 -215 q 279 -119 279 -165 q 294 -60 279 -89 q 332 -10 310 -32 q 279 -17 306 -17 q 153 19 208 -17 q 67 135 99 54 q 36 353 36 217 q 68 570 36 489 q 156 688 100 651 q 283 724 211 724 q 410 688 363 724 q 481 592 458 651 q 508 465 503 533 q 506 331 513 396 l 193 331 l 193 281 q 217 140 193 179 q 286 101 240 101 q 347 136 329 101 q 372 253 364 171 l 510 242 q 487 126 507 174 q 439 43 467 79 q 382 -76 382 -32 q 407 -126 382 -112 q 458 -136 432 -139 l 458 -224 m 193 433 l 193 429 l 372 429 l 372 438 q 351 572 372 536 q 286 608 329 608 q 217 570 242 608 q 193 433 193 532 z "},"f":{"ha":371,"x_min":21,"x_max":385,"o":"m 96 0 l 96 589 l 21 589 l 21 707 l 96 707 l 96 786 q 152 951 96 900 q 292 1003 208 1003 q 385 989 339 1003 l 385 874 q 351 878 365 876 q 324 881 336 881 q 272 861 292 881 q 251 793 251 842 l 251 707 l 361 707 l 361 589 l 251 589 l 251 0 l 96 0 z "},"g":{"ha":579,"x_min":17,"x_max":565,"o":"m 276 -246 q 79 -198 142 -246 q 17 -78 17 -150 q 49 13 17 -29 q 146 78 81 56 q 97 124 113 96 q 81 182 81 153 q 94 240 81 213 q 131 288 108 267 q 32 486 32 349 q 94 657 32 590 q 274 724 156 724 q 401 696 347 724 q 455 764 424 742 q 522 786 486 786 q 556 782 539 786 l 556 657 q 508 657 531 660 q 468 642 486 654 q 518 486 518 579 q 455 315 518 381 q 274 250 392 250 q 210 256 239 250 q 201 224 201 240 q 264 172 201 185 l 394 147 q 525 81 485 129 q 565 -33 565 32 q 487 -192 565 -137 q 276 -246 408 -246 m 274 349 q 343 384 322 349 q 364 488 364 419 q 343 590 364 554 q 274 625 322 625 q 205 589 225 625 q 185 488 185 553 q 206 383 185 417 q 274 349 226 349 m 149 -54 q 185 -119 149 -99 q 286 -140 221 -140 q 392 -119 354 -140 q 431 -60 431 -99 q 408 -9 431 -29 q 333 21 385 11 l 225 38 q 149 -54 149 7 z "},"ğ":{"ha":579,"x_min":17,"x_max":565,"o":"m 276 -246 q 79 -198 142 -246 q 17 -78 17 -150 q 49 13 17 -29 q 146 78 81 56 q 97 124 113 96 q 81 182 81 153 q 94 240 81 213 q 131 288 108 267 q 32 486 32 349 q 94 657 32 590 q 274 724 156 724 q 401 696 347 724 q 455 764 424 742 q 522 786 486 786 q 556 782 539 786 l 556 657 q 508 657 531 660 q 468 642 486 654 q 518 486 518 579 q 455 315 518 381 q 274 250 392 250 q 210 256 239 250 q 201 224 201 240 q 264 172 201 185 l 394 147 q 525 81 485 129 q 565 -33 565 32 q 487 -192 565 -137 q 276 -246 408 -246 m 274 349 q 343 384 322 349 q 364 488 364 419 q 343 590 364 554 q 274 625 322 625 q 205 589 225 625 q 185 488 185 553 q 206 383 185 417 q 274 349 226 349 m 149 -54 q 185 -119 149 -99 q 286 -140 221 -140 q 392 -119 354 -140 q 431 -60 431 -99 q 408 -9 431 -29 q 333 21 385 11 l 225 38 q 149 -54 149 7 m 274 800 q 174 842 213 800 q 132 978 136 885 l 225 978 q 240 905 228 922 q 274 888 251 888 q 308 905 296 888 q 324 978 321 922 l 415 978 q 373 842 411 885 q 274 800 335 800 z "},"ĝ":{"ha":579,"x_min":17,"x_max":565,"o":"m 276 -246 q 79 -198 142 -246 q 17 -78 17 -150 q 49 13 17 -29 q 146 78 81 56 q 97 124 113 96 q 81 182 81 153 q 94 240 81 213 q 131 288 108 267 q 32 486 32 349 q 94 657 32 590 q 274 724 156 724 q 401 696 347 724 q 455 764 424 742 q 522 786 486 786 q 556 782 539 786 l 556 657 q 508 657 531 660 q 468 642 486 654 q 518 486 518 579 q 455 315 518 381 q 274 250 392 250 q 210 256 239 250 q 201 224 201 240 q 264 172 201 185 l 394 147 q 525 81 485 129 q 565 -33 565 32 q 487 -192 565 -137 q 276 -246 408 -246 m 274 349 q 343 384 322 349 q 364 488 364 419 q 343 590 364 554 q 274 625 322 625 q 205 589 225 625 q 185 488 185 553 q 206 383 185 417 q 274 349 226 349 m 149 -54 q 185 -119 149 -99 q 286 -140 221 -140 q 392 -119 354 -140 q 431 -60 431 -99 q 408 -9 431 -29 q 333 21 385 11 l 225 38 q 149 -54 149 7 m 101 808 l 221 976 l 325 976 l 444 808 l 335 808 l 274 897 l 213 808 l 101 808 z "},"ģ":{"ha":579,"x_min":17,"x_max":565,"o":"m 326 1060 l 288 939 l 349 939 l 349 807 l 199 807 l 199 915 l 257 1060 l 326 1060 m 276 -246 q 79 -198 142 -246 q 17 -78 17 -150 q 49 13 17 -29 q 146 78 81 56 q 97 124 113 96 q 81 182 81 153 q 94 240 81 213 q 131 288 108 267 q 32 486 32 349 q 94 657 32 590 q 274 724 156 724 q 401 696 347 724 q 455 764 424 742 q 522 786 486 786 q 556 782 539 786 l 556 657 q 508 657 531 660 q 468 642 486 654 q 518 486 518 579 q 455 315 518 381 q 274 250 392 250 q 210 256 239 250 q 201 224 201 240 q 264 172 201 185 l 394 147 q 525 81 485 129 q 565 -33 565 32 q 487 -192 565 -137 q 276 -246 408 -246 m 274 349 q 343 384 322 349 q 364 488 364 419 q 343 590 364 554 q 274 625 322 625 q 205 589 225 625 q 185 488 185 553 q 206 383 185 417 q 274 349 226 349 m 149 -54 q 185 -119 149 -99 q 286 -140 221 -140 q 392 -119 354 -140 q 431 -60 431 -99 q 408 -9 431 -29 q 333 21 385 11 l 225 38 q 149 -54 149 7 z "},"ġ":{"ha":579,"x_min":17,"x_max":565,"o":"m 276 -246 q 79 -198 142 -246 q 17 -78 17 -150 q 49 13 17 -29 q 146 78 81 56 q 97 124 113 96 q 81 182 81 153 q 94 240 81 213 q 131 288 108 267 q 32 486 32 349 q 94 657 32 590 q 274 724 156 724 q 401 696 347 724 q 455 764 424 742 q 522 786 486 786 q 556 782 539 786 l 556 657 q 508 657 531 660 q 468 642 486 654 q 518 486 518 579 q 455 315 518 381 q 274 250 392 250 q 210 256 239 250 q 201 224 201 240 q 264 172 201 185 l 394 147 q 525 81 485 129 q 565 -33 565 32 q 487 -192 565 -137 q 276 -246 408 -246 m 274 349 q 343 384 322 349 q 364 488 364 419 q 343 590 364 554 q 274 625 322 625 q 205 589 225 625 q 185 488 185 553 q 206 383 185 417 q 274 349 226 349 m 149 -54 q 185 -119 149 -99 q 286 -140 221 -140 q 392 -119 354 -140 q 431 -60 431 -99 q 408 -9 431 -29 q 333 21 385 11 l 225 38 q 149 -54 149 7 m 194 811 l 194 958 l 350 958 l 350 811 l 194 811 z "},"h":{"ha":578,"x_min":57,"x_max":525,"o":"m 57 0 l 57 986 l 213 986 l 213 625 q 279 700 239 676 q 364 724 319 724 q 481 674 438 724 q 525 522 525 624 l 525 0 l 368 0 l 368 496 q 349 576 368 553 q 296 600 331 600 q 238 577 263 600 q 213 493 213 554 l 213 0 l 57 0 z "},"ħ":{"ha":578,"x_min":-7,"x_max":525,"o":"m 57 0 l 57 790 l -7 790 l -7 894 l 57 894 l 57 986 l 213 986 l 213 894 l 336 894 l 336 790 l 213 790 l 213 625 q 279 700 239 676 q 364 724 319 724 q 481 674 438 724 q 525 522 525 624 l 525 0 l 368 0 l 368 496 q 349 576 368 553 q 296 600 331 600 q 238 577 263 600 q 213 493 213 554 l 213 0 l 57 0 z "},"ĥ":{"ha":578,"x_min":57,"x_max":525,"o":"m 57 0 l 57 986 l 213 986 l 213 625 q 279 700 239 676 q 364 724 319 724 q 481 674 438 724 q 525 522 525 624 l 525 0 l 368 0 l 368 496 q 349 576 368 553 q 296 600 331 600 q 238 577 263 600 q 213 493 213 554 l 213 0 l 57 0 m 57 1067 l 176 1235 l 281 1235 l 400 1067 l 290 1067 l 229 1156 l 168 1067 l 57 1067 z "},"i":{"ha":268,"x_min":57,"x_max":213,"o":"m 57 811 l 57 958 l 213 958 l 213 811 l 57 811 m 57 0 l 57 707 l 213 707 l 213 0 l 57 0 z "},"ı":{"ha":268,"x_min":57,"x_max":213,"o":"m 57 0 l 57 707 l 213 707 l 213 0 l 57 0 z "},"í":{"ha":268,"x_min":57,"x_max":308,"o":"m 57 0 l 57 707 l 213 707 l 213 0 l 57 0 m 178 794 l 88 819 l 200 1057 l 308 1015 l 178 794 z "},"ĭ":{"ha":268,"x_min":-7,"x_max":276,"o":"m 57 0 l 57 707 l 213 707 l 213 0 l 57 0 m 135 800 q 35 842 74 800 q -7 978 -3 885 l 86 978 q 101 905 89 922 q 135 888 113 888 q 169 905 157 888 q 185 978 182 922 l 276 978 q 234 842 272 885 q 135 800 196 800 z "},"î":{"ha":268,"x_min":-33,"x_max":304,"o":"m 57 0 l 57 707 l 213 707 l 213 0 l 57 0 m -33 819 l 86 988 l 185 988 l 304 819 l 197 819 l 136 908 l 75 819 l -33 819 z "},"ï":{"ha":268,"x_min":-12,"x_max":283,"o":"m 57 0 l 57 707 l 213 707 l 213 0 l 57 0 m -12 811 l -12 958 l 108 958 l 108 811 l -12 811 m 163 811 l 163 958 l 283 958 l 283 811 l 163 811 z "},"ì":{"ha":268,"x_min":57,"x_max":313,"o":"m 57 0 l 57 707 l 213 707 l 213 0 l 57 0 m 222 794 l 92 1015 l 200 1057 l 313 819 l 222 794 z "},"ī":{"ha":268,"x_min":-28,"x_max":299,"o":"m 57 0 l 57 707 l 213 707 l 213 0 l 57 0 m -28 828 l -28 926 l 299 926 l 299 828 l -28 828 z "},"į":{"ha":268,"x_min":33,"x_max":213,"o":"m 57 811 l 57 958 l 213 958 l 213 811 l 57 811 m 213 -224 q 131 -222 172 -229 q 61 -188 89 -214 q 33 -117 33 -162 q 50 -52 33 -82 q 92 0 67 -22 l 57 0 l 57 707 l 213 707 l 213 0 l 183 0 q 151 -36 165 -14 q 136 -85 136 -58 q 161 -127 136 -115 q 213 -136 186 -139 l 213 -224 z "},"ĩ":{"ha":268,"x_min":-17,"x_max":288,"o":"m 57 0 l 57 707 l 213 707 l 213 0 l 57 0 m 203 819 q 153 835 175 819 q 114 865 131 850 q 85 879 97 879 q 63 865 69 879 q 54 822 57 850 l -17 822 q 11 931 -14 900 q 68 963 36 963 q 119 948 97 963 q 158 919 140 933 q 188 904 175 904 q 217 963 215 904 l 288 963 q 260 851 286 882 q 203 819 235 819 z "},"ĳ":{"ha":536,"x_min":57,"x_max":481,"o":"m 57 811 l 57 958 l 213 958 l 213 811 l 57 811 m 57 0 l 57 707 l 213 707 l 213 0 l 57 0 m 325 811 l 325 958 l 481 958 l 481 811 l 325 811 m 297 -246 q 248 -242 271 -246 q 197 -232 225 -237 l 197 -115 q 229 -121 217 -119 q 254 -122 242 -122 q 304 -108 283 -122 q 325 -50 325 -94 l 325 707 l 481 707 l 481 -47 q 428 -201 481 -156 q 297 -246 376 -246 z "},"j":{"ha":268,"x_min":-71,"x_max":213,"o":"m 57 811 l 57 958 l 213 958 l 213 811 l 57 811 m 29 -246 q -20 -242 3 -246 q -71 -232 -43 -237 l -71 -115 q -39 -121 -51 -119 q -14 -122 -26 -122 q 36 -108 15 -122 q 57 -50 57 -94 l 57 707 l 213 707 l 213 -47 q 160 -201 213 -156 q 29 -246 108 -246 z "},"ȷ":{"ha":268,"x_min":-71,"x_max":213,"o":"m 29 -246 q -20 -242 3 -246 q -71 -232 -43 -237 l -71 -115 q -39 -121 -51 -119 q -14 -122 -26 -122 q 36 -108 15 -122 q 57 -50 57 -94 l 57 707 l 213 707 l 213 -47 q 160 -201 213 -156 q 29 -246 108 -246 z "},"ĵ":{"ha":268,"x_min":-71,"x_max":301,"o":"m 29 -246 q -20 -242 3 -246 q -71 -232 -43 -237 l -71 -115 q -39 -121 -51 -119 q -14 -122 -26 -122 q 36 -108 15 -122 q 57 -50 57 -94 l 57 707 l 213 707 l 213 -47 q 160 -201 213 -156 q 29 -246 108 -246 m -36 819 l 83 988 l 182 988 l 301 819 l 194 819 l 133 908 l 72 819 l -36 819 z "},"k":{"ha":535,"x_min":57,"x_max":533,"o":"m 57 0 l 57 986 l 213 986 l 213 418 l 378 707 l 528 707 l 372 439 l 533 0 l 375 0 l 264 313 l 213 222 l 213 0 l 57 0 z "},"ķ":{"ha":535,"x_min":57,"x_max":533,"o":"m 57 0 l 57 986 l 213 986 l 213 418 l 378 707 l 528 707 l 372 439 l 533 0 l 375 0 l 264 313 l 213 222 l 213 0 l 57 0 m 229 -353 l 268 -232 l 207 -232 l 207 -100 l 357 -100 l 357 -208 l 299 -353 l 229 -353 z "},"ĸ":{"ha":536,"x_min":57,"x_max":533,"o":"m 57 0 l 57 707 l 213 707 l 213 418 l 378 707 l 532 707 l 374 435 l 533 0 l 375 0 l 267 306 l 213 210 l 213 0 l 57 0 z "},"l":{"ha":268,"x_min":57,"x_max":213,"o":"m 57 0 l 57 986 l 213 986 l 213 0 l 57 0 z "},"ĺ":{"ha":268,"x_min":57,"x_max":297,"o":"m 57 0 l 57 986 l 213 986 l 213 0 l 57 0 m 179 1060 l 89 1085 l 189 1288 l 297 1246 l 179 1060 z "},"ľ":{"ha":360,"x_min":57,"x_max":411,"o":"m 283 699 l 297 986 l 411 986 l 375 699 l 283 699 m 57 0 l 57 986 l 213 986 l 213 0 l 57 0 z "},"ļ":{"ha":268,"x_min":57,"x_max":213,"o":"m 57 0 l 57 986 l 213 986 l 213 0 l 57 0 m 82 -353 l 121 -232 l 60 -232 l 60 -100 l 210 -100 l 210 -208 l 151 -353 l 82 -353 z "},"ŀ":{"ha":444,"x_min":57,"x_max":435,"o":"m 57 0 l 57 986 l 213 986 l 213 0 l 57 0 m 281 339 l 281 490 l 435 490 l 435 339 l 281 339 z "},"ł":{"ha":378,"x_min":19,"x_max":360,"o":"m 113 0 l 113 367 l 19 311 l 19 446 l 113 500 l 113 986 l 268 986 l 268 592 l 360 646 l 360 513 l 268 458 l 268 0 l 113 0 z "},"m":{"ha":847,"x_min":57,"x_max":794,"o":"m 57 0 l 57 707 l 211 707 l 211 629 q 357 724 258 724 q 437 699 401 724 q 488 622 472 675 q 553 699 514 675 q 642 724 593 724 q 714 707 679 724 q 772 647 749 690 q 794 525 794 604 l 794 0 l 639 0 l 639 501 q 622 576 639 554 q 574 597 606 597 q 523 576 543 597 q 503 496 503 556 l 503 0 l 347 0 l 347 501 q 329 576 347 556 q 283 597 311 597 q 234 578 256 597 q 213 497 213 558 l 213 0 l 57 0 z "},"n":{"ha":578,"x_min":57,"x_max":524,"o":"m 57 0 l 57 707 l 211 707 l 211 622 q 277 699 236 675 q 364 724 318 724 q 481 674 438 724 q 524 522 524 624 l 524 0 l 368 0 l 368 496 q 349 576 368 553 q 296 600 331 600 q 238 577 263 600 q 213 493 213 554 l 213 0 l 57 0 z "},"ń":{"ha":578,"x_min":57,"x_max":524,"o":"m 57 0 l 57 707 l 211 707 l 211 622 q 277 699 236 675 q 364 724 318 724 q 481 674 438 724 q 524 522 524 624 l 524 0 l 368 0 l 368 496 q 349 576 368 553 q 296 600 331 600 q 238 577 263 600 q 213 493 213 554 l 213 0 l 57 0 m 343 790 l 253 815 l 365 1053 l 474 1011 l 343 790 z "},"ň":{"ha":578,"x_min":57,"x_max":524,"o":"m 57 0 l 57 707 l 211 707 l 211 622 q 277 699 236 675 q 364 724 318 724 q 481 674 438 724 q 524 522 524 624 l 524 0 l 368 0 l 368 496 q 349 576 368 553 q 296 600 331 600 q 238 577 263 600 q 213 493 213 554 l 213 0 l 57 0 m 251 804 l 132 972 l 240 972 l 301 883 l 363 972 l 469 972 l 350 804 l 251 804 z "},"ņ":{"ha":578,"x_min":57,"x_max":524,"o":"m 57 0 l 57 707 l 211 707 l 211 622 q 277 699 236 675 q 364 724 318 724 q 481 674 438 724 q 524 522 524 624 l 524 0 l 368 0 l 368 496 q 349 576 368 553 q 296 600 331 600 q 238 577 263 600 q 213 493 213 554 l 213 0 l 57 0 m 244 -353 l 283 -232 l 222 -232 l 222 -100 l 372 -100 l 372 -208 l 314 -353 l 244 -353 z "},"ñ":{"ha":578,"x_min":57,"x_max":524,"o":"m 57 0 l 57 707 l 211 707 l 211 622 q 277 699 236 675 q 364 724 318 724 q 481 674 438 724 q 524 522 524 624 l 524 0 l 368 0 l 368 496 q 349 576 368 553 q 296 600 331 600 q 238 577 263 600 q 213 493 213 554 l 213 0 l 57 0 m 368 822 q 315 835 338 822 q 277 862 293 849 q 247 875 261 875 q 223 862 229 875 q 214 825 217 849 l 135 825 q 165 934 138 903 q 231 965 193 965 q 285 953 263 965 q 324 927 307 940 q 354 914 340 914 q 386 965 383 914 l 465 965 q 435 853 464 885 q 368 822 407 822 z "},"ŋ":{"ha":578,"x_min":57,"x_max":524,"o":"m 57 0 l 57 707 l 211 707 l 211 622 q 277 699 236 675 q 364 724 318 724 q 481 674 438 724 q 524 522 524 624 l 524 -47 q 472 -201 524 -156 q 340 -246 421 -246 q 291 -242 314 -246 q 240 -232 268 -237 l 240 -115 q 273 -121 260 -119 q 297 -122 286 -122 q 347 -108 326 -122 q 368 -50 368 -94 l 368 496 q 349 576 368 553 q 296 600 331 600 q 238 577 263 600 q 213 493 213 554 l 213 0 l 57 0 z "},"o":{"ha":575,"x_min":36,"x_max":539,"o":"m 288 -17 q 157 19 214 -17 q 68 136 100 54 q 36 354 36 218 q 68 571 36 490 q 157 688 100 651 q 288 724 214 724 q 419 688 363 724 q 507 571 475 651 q 539 354 539 490 q 507 136 539 218 q 419 19 475 54 q 288 -17 363 -17 m 288 104 q 356 143 332 104 q 381 281 381 182 l 381 426 q 356 564 381 525 q 288 603 332 603 q 219 564 243 603 q 194 426 194 525 l 194 281 q 219 143 194 182 q 288 104 243 104 z "},"ó":{"ha":575,"x_min":36,"x_max":539,"o":"m 288 -17 q 157 19 214 -17 q 68 136 100 54 q 36 354 36 218 q 68 571 36 490 q 157 688 100 651 q 288 724 214 724 q 419 688 363 724 q 507 571 475 651 q 539 354 539 490 q 507 136 539 218 q 419 19 475 54 q 288 -17 363 -17 m 288 104 q 356 143 332 104 q 381 281 381 182 l 381 426 q 356 564 381 525 q 288 603 332 603 q 219 564 243 603 q 194 426 194 525 l 194 281 q 219 143 194 182 q 288 104 243 104 m 331 794 l 240 819 l 353 1057 l 461 1015 l 331 794 z "},"ŏ":{"ha":575,"x_min":36,"x_max":539,"o":"m 288 -17 q 157 19 214 -17 q 68 136 100 54 q 36 354 36 218 q 68 571 36 490 q 157 688 100 651 q 288 724 214 724 q 419 688 363 724 q 507 571 475 651 q 539 354 539 490 q 507 136 539 218 q 419 19 475 54 q 288 -17 363 -17 m 288 104 q 356 143 332 104 q 381 281 381 182 l 381 426 q 356 564 381 525 q 288 603 332 603 q 219 564 243 603 q 194 426 194 525 l 194 281 q 219 143 194 182 q 288 104 243 104 m 288 800 q 188 842 226 800 q 146 978 150 885 l 239 978 q 253 905 242 922 q 288 888 265 888 q 322 905 310 888 q 338 978 335 922 l 429 978 q 387 842 425 885 q 288 800 349 800 z "},"ô":{"ha":575,"x_min":36,"x_max":539,"o":"m 288 -17 q 157 19 214 -17 q 68 136 100 54 q 36 354 36 218 q 68 571 36 490 q 157 688 100 651 q 288 724 214 724 q 419 688 363 724 q 507 571 475 651 q 539 354 539 490 q 507 136 539 218 q 419 19 475 54 q 288 -17 363 -17 m 288 104 q 356 143 332 104 q 381 281 381 182 l 381 426 q 356 564 381 525 q 288 603 332 603 q 219 564 243 603 q 194 426 194 525 l 194 281 q 219 143 194 182 q 288 104 243 104 m 117 808 l 236 976 l 340 976 l 460 808 l 350 808 l 289 897 l 228 808 l 117 808 z "},"ö":{"ha":575,"x_min":36,"x_max":539,"o":"m 288 -17 q 157 19 214 -17 q 68 136 100 54 q 36 354 36 218 q 68 571 36 490 q 157 688 100 651 q 288 724 214 724 q 419 688 363 724 q 507 571 475 651 q 539 354 539 490 q 507 136 539 218 q 419 19 475 54 q 288 -17 363 -17 m 288 104 q 356 143 332 104 q 381 281 381 182 l 381 426 q 356 564 381 525 q 288 603 332 603 q 219 564 243 603 q 194 426 194 525 l 194 281 q 219 143 194 182 q 288 104 243 104 m 318 811 l 318 958 l 450 958 l 450 811 l 318 811 m 135 811 l 135 958 l 267 958 l 267 811 l 135 811 z "},"ò":{"ha":575,"x_min":36,"x_max":539,"o":"m 288 -17 q 157 19 214 -17 q 68 136 100 54 q 36 354 36 218 q 68 571 36 490 q 157 688 100 651 q 288 724 214 724 q 419 688 363 724 q 507 571 475 651 q 539 354 539 490 q 507 136 539 218 q 419 19 475 54 q 288 -17 363 -17 m 288 104 q 356 143 332 104 q 381 281 381 182 l 381 426 q 356 564 381 525 q 288 603 332 603 q 219 564 243 603 q 194 426 194 525 l 194 281 q 219 143 194 182 q 288 104 243 104 m 375 794 l 244 1015 l 353 1057 l 465 819 l 375 794 z "},"ő":{"ha":575,"x_min":36,"x_max":539,"o":"m 288 -17 q 157 19 214 -17 q 68 136 100 54 q 36 354 36 218 q 68 571 36 490 q 157 688 100 651 q 288 724 214 724 q 419 688 363 724 q 507 571 475 651 q 539 354 539 490 q 507 136 539 218 q 419 19 475 54 q 288 -17 363 -17 m 288 104 q 356 143 332 104 q 381 281 381 182 l 381 426 q 356 564 381 525 q 288 603 332 603 q 219 564 243 603 q 194 426 194 525 l 194 281 q 219 143 194 182 q 288 104 243 104 m 392 778 l 324 814 l 435 1054 l 533 1000 l 392 778 m 208 778 l 140 814 l 251 1054 l 351 1000 l 208 778 z "},"ō":{"ha":575,"x_min":36,"x_max":539,"o":"m 288 -17 q 157 19 214 -17 q 68 136 100 54 q 36 354 36 218 q 68 571 36 490 q 157 688 100 651 q 288 724 214 724 q 419 688 363 724 q 507 571 475 651 q 539 354 539 490 q 507 136 539 218 q 419 19 475 54 q 288 -17 363 -17 m 288 104 q 356 143 332 104 q 381 281 381 182 l 381 426 q 356 564 381 525 q 288 603 332 603 q 219 564 243 603 q 194 426 194 525 l 194 281 q 219 143 194 182 q 288 104 243 104 m 113 828 l 113 926 l 464 926 l 464 828 l 113 828 z "},"ø":{"ha":575,"x_min":36,"x_max":539,"o":"m 139 -17 l 54 31 l 89 93 q 50 202 64 138 q 36 354 36 267 q 68 571 36 490 q 157 688 100 651 q 288 724 214 724 q 357 715 324 724 q 418 688 390 707 l 438 724 l 522 678 l 486 613 q 525 504 511 568 q 539 354 539 440 q 507 136 539 218 q 419 19 475 54 q 288 -17 363 -17 q 219 -8 251 -17 q 158 18 186 0 l 139 -17 m 194 426 l 194 285 l 353 571 q 288 603 331 603 q 219 564 243 603 q 194 426 194 525 m 288 104 q 356 143 332 104 q 381 281 381 182 l 381 421 l 224 136 q 288 104 244 104 z "},"ǿ":{"ha":575,"x_min":36,"x_max":539,"o":"m 139 -17 l 54 31 l 89 93 q 50 202 64 138 q 36 354 36 267 q 68 571 36 490 q 157 688 100 651 q 288 724 214 724 q 357 715 324 724 q 418 688 390 707 l 438 724 l 522 678 l 486 613 q 525 504 511 568 q 539 354 539 440 q 507 136 539 218 q 419 19 475 54 q 288 -17 363 -17 q 219 -8 251 -17 q 158 18 186 0 l 139 -17 m 194 426 l 194 285 l 353 571 q 288 603 331 603 q 219 564 243 603 q 194 426 194 525 m 288 104 q 356 143 332 104 q 381 281 381 182 l 381 421 l 224 136 q 288 104 244 104 m 332 794 l 242 819 l 354 1057 l 463 1015 l 332 794 z "},"õ":{"ha":575,"x_min":36,"x_max":539,"o":"m 288 -17 q 157 19 214 -17 q 68 136 100 54 q 36 354 36 218 q 68 571 36 490 q 157 688 100 651 q 288 724 214 724 q 419 688 363 724 q 507 571 475 651 q 539 354 539 490 q 507 136 539 218 q 419 19 475 54 q 288 -17 363 -17 m 288 104 q 356 143 332 104 q 381 281 381 182 l 381 426 q 356 564 381 525 q 288 603 332 603 q 219 564 243 603 q 194 426 194 525 l 194 281 q 219 143 194 182 q 288 104 243 104 m 356 826 q 303 840 325 826 q 265 866 281 853 q 235 879 249 879 q 210 866 217 879 q 201 829 204 853 l 122 829 q 153 938 125 907 q 218 969 181 969 q 272 957 250 969 q 311 931 294 944 q 342 918 328 918 q 374 969 371 918 l 453 969 q 423 858 451 889 q 356 826 394 826 z "},"œ":{"ha":893,"x_min":38,"x_max":856,"o":"m 281 -17 q 155 19 210 -17 q 69 136 100 54 q 38 354 38 218 q 69 571 38 490 q 155 688 100 651 q 281 724 210 724 q 381 700 336 724 q 458 619 426 676 q 533 700 489 676 q 632 724 578 724 q 756 688 710 724 q 825 592 803 651 q 851 465 847 533 q 850 331 856 396 l 536 331 l 536 281 q 560 140 536 179 q 631 101 585 101 q 691 136 674 101 q 717 253 708 171 l 854 242 q 785 43 847 103 q 633 -17 724 -17 q 533 8 578 -17 q 457 88 489 32 q 381 8 426 32 q 281 -17 336 -17 m 536 433 l 536 429 l 715 429 l 715 433 q 694 571 715 533 q 631 608 674 608 q 561 570 586 608 q 536 433 536 532 m 289 104 q 358 143 333 104 q 382 281 382 182 l 382 426 q 358 564 382 525 q 289 603 333 603 q 220 564 244 603 q 196 426 196 525 l 196 281 q 220 143 196 182 q 289 104 244 104 z "},"p":{"ha":590,"x_min":57,"x_max":553,"o":"m 57 -229 l 57 707 l 210 707 l 210 626 q 350 724 253 724 q 451 688 406 724 q 525 572 497 653 q 553 353 553 490 q 525 135 553 217 q 451 19 497 54 q 347 -17 404 -17 q 270 2 304 -17 q 213 61 236 21 l 213 -229 l 57 -229 m 213 254 q 239 136 213 168 q 304 104 265 104 q 372 144 349 104 q 394 272 394 183 l 394 435 q 372 564 394 524 q 304 604 349 604 q 239 574 265 604 q 213 461 213 543 l 213 254 z "},"þ":{"ha":590,"x_min":57,"x_max":553,"o":"m 57 -229 l 57 986 l 213 986 l 213 633 q 350 724 257 724 q 451 688 406 724 q 525 572 497 653 q 553 353 553 490 q 525 135 553 217 q 451 19 497 54 q 347 -17 404 -17 q 270 2 304 -17 q 213 61 236 21 l 213 -229 l 57 -229 m 213 254 q 239 136 213 168 q 304 104 265 104 q 372 144 349 104 q 394 272 394 183 l 394 435 q 372 564 394 524 q 304 604 349 604 q 239 574 265 604 q 213 461 213 543 l 213 254 z "},"q":{"ha":590,"x_min":38,"x_max":533,"o":"m 243 -17 q 140 19 188 -17 q 65 135 93 54 q 38 353 38 217 q 65 572 38 490 q 140 688 93 653 q 244 724 188 724 q 327 701 290 724 q 388 631 364 678 l 399 707 l 533 707 l 533 -229 l 378 -229 l 378 61 q 319 2 354 21 q 243 -17 285 -17 m 196 272 q 219 144 196 183 q 286 104 242 104 q 351 136 325 104 q 378 254 378 168 l 378 461 q 352 574 378 543 q 286 604 326 604 q 219 564 242 604 q 196 435 196 524 l 196 272 z "},"r":{"ha":400,"x_min":57,"x_max":388,"o":"m 57 0 l 57 707 l 211 707 l 211 613 q 269 696 233 671 q 343 721 304 721 q 364 719 353 721 q 388 714 375 718 l 388 575 q 299 574 339 581 q 236 540 260 568 q 213 449 213 511 l 213 0 l 57 0 z "},"ŕ":{"ha":400,"x_min":57,"x_max":388,"o":"m 57 0 l 57 707 l 211 707 l 211 613 q 269 696 233 671 q 343 721 304 721 q 364 719 353 721 q 388 714 375 718 l 388 575 q 299 574 339 581 q 236 540 260 568 q 213 449 213 511 l 213 0 l 57 0 m 247 793 l 157 818 l 269 1056 l 378 1014 l 247 793 z "},"ř":{"ha":400,"x_min":36,"x_max":388,"o":"m 57 0 l 57 707 l 211 707 l 211 613 q 269 696 233 671 q 343 721 304 721 q 364 719 353 721 q 388 714 375 718 l 388 575 q 299 574 339 581 q 236 540 260 568 q 213 449 213 511 l 213 0 l 57 0 m 156 807 l 36 975 l 144 975 l 206 886 l 267 975 l 374 975 l 254 807 l 156 807 z "},"ŗ":{"ha":400,"x_min":57,"x_max":388,"o":"m 57 0 l 57 707 l 211 707 l 211 613 q 269 696 233 671 q 343 721 304 721 q 364 719 353 721 q 388 714 375 718 l 388 575 q 299 574 339 581 q 236 540 260 568 q 213 449 213 511 l 213 0 l 57 0 m 83 -353 l 122 -232 l 61 -232 l 61 -100 l 211 -100 l 211 -208 l 153 -353 l 83 -353 z "},"s":{"ha":510,"x_min":25,"x_max":479,"o":"m 257 -17 q 80 53 135 -17 q 26 229 25 122 l 158 233 q 257 99 160 99 q 318 120 297 99 q 339 176 339 142 q 315 237 339 214 q 251 282 292 260 l 188 317 q 78 408 114 357 q 42 529 42 460 q 101 672 42 619 q 254 724 161 724 q 420 661 368 724 q 469 490 472 599 l 338 488 q 315 581 336 553 q 256 608 293 608 q 198 589 217 608 q 179 540 179 569 q 198 485 179 507 q 257 440 217 464 l 339 393 q 443 310 407 354 q 479 189 479 265 q 422 40 479 96 q 257 -17 364 -17 z "},"ś":{"ha":510,"x_min":25,"x_max":479,"o":"m 257 -17 q 80 53 135 -17 q 26 229 25 122 l 158 233 q 257 99 160 99 q 318 120 297 99 q 339 176 339 142 q 315 237 339 214 q 251 282 292 260 l 188 317 q 78 408 114 357 q 42 529 42 460 q 101 672 42 619 q 254 724 161 724 q 420 661 368 724 q 469 490 472 599 l 338 488 q 315 581 336 553 q 256 608 293 608 q 198 589 217 608 q 179 540 179 569 q 198 485 179 507 q 257 440 217 464 l 339 393 q 443 310 407 354 q 479 189 479 265 q 422 40 479 96 q 257 -17 364 -17 m 293 794 l 203 819 l 315 1057 l 424 1015 l 293 794 z "},"š":{"ha":510,"x_min":25,"x_max":479,"o":"m 257 -17 q 80 53 135 -17 q 26 229 25 122 l 158 233 q 257 99 160 99 q 318 120 297 99 q 339 176 339 142 q 315 237 339 214 q 251 282 292 260 l 188 317 q 78 408 114 357 q 42 529 42 460 q 101 672 42 619 q 254 724 161 724 q 420 661 368 724 q 469 490 472 599 l 338 488 q 315 581 336 553 q 256 608 293 608 q 198 589 217 608 q 179 540 179 569 q 198 485 179 507 q 257 440 217 464 l 339 393 q 443 310 407 354 q 479 189 479 265 q 422 40 479 96 q 257 -17 364 -17 m 201 808 l 82 976 l 190 976 l 251 888 l 313 976 l 419 976 l 300 808 l 201 808 z "},"ş":{"ha":510,"x_min":25,"x_max":479,"o":"m 257 -17 q 80 53 135 -17 q 26 229 25 122 l 158 233 q 257 99 160 99 q 318 120 297 99 q 339 176 339 142 q 315 237 339 214 q 251 282 292 260 l 188 317 q 78 408 114 357 q 42 529 42 460 q 101 672 42 619 q 254 724 161 724 q 420 661 368 724 q 469 490 472 599 l 338 488 q 315 581 336 553 q 256 608 293 608 q 198 589 217 608 q 179 540 179 569 q 198 485 179 507 q 257 440 217 464 l 339 393 q 443 310 407 354 q 479 189 479 265 q 422 40 479 96 q 257 -17 364 -17 m 242 -232 q 207 -230 224 -232 q 167 -224 190 -228 l 167 -142 q 217 -149 192 -147 q 258 -144 242 -150 q 275 -119 275 -137 q 259 -94 275 -103 q 204 -78 243 -85 l 210 3 l 288 3 l 288 -36 q 347 -69 322 -46 q 371 -131 371 -92 q 334 -207 371 -182 q 242 -232 297 -232 z "},"ŝ":{"ha":510,"x_min":25,"x_max":479,"o":"m 257 -17 q 80 53 135 -17 q 26 229 25 122 l 158 233 q 257 99 160 99 q 318 120 297 99 q 339 176 339 142 q 315 237 339 214 q 251 282 292 260 l 188 317 q 78 408 114 357 q 42 529 42 460 q 101 672 42 619 q 254 724 161 724 q 420 661 368 724 q 469 490 472 599 l 338 488 q 315 581 336 553 q 256 608 293 608 q 198 589 217 608 q 179 540 179 569 q 198 485 179 507 q 257 440 217 464 l 339 393 q 443 310 407 354 q 479 189 479 265 q 422 40 479 96 q 257 -17 364 -17 m 79 808 l 199 976 l 303 976 l 422 808 l 313 808 l 251 897 l 190 808 l 79 808 z "},"ș":{"ha":510,"x_min":25,"x_max":479,"o":"m 257 -17 q 80 53 135 -17 q 26 229 25 122 l 158 233 q 257 99 160 99 q 318 120 297 99 q 339 176 339 142 q 315 237 339 214 q 251 282 292 260 l 188 317 q 78 408 114 357 q 42 529 42 460 q 101 672 42 619 q 254 724 161 724 q 420 661 368 724 q 469 490 472 599 l 338 488 q 315 581 336 553 q 256 608 293 608 q 198 589 217 608 q 179 540 179 569 q 198 485 179 507 q 257 440 217 464 l 339 393 q 443 310 407 354 q 479 189 479 265 q 422 40 479 96 q 257 -17 364 -17 m 217 -353 l 256 -232 l 194 -232 l 194 -100 l 344 -100 l 344 -208 l 286 -353 l 217 -353 z "},"ß":{"ha":574,"x_min":57,"x_max":539,"o":"m 57 0 l 57 721 q 78 870 57 807 q 152 968 100 933 q 294 1003 204 1003 q 426 968 375 1003 q 500 875 476 933 q 524 744 524 817 q 498 611 524 664 q 424 529 472 558 q 508 438 476 503 q 539 278 539 372 q 466 55 539 132 q 258 0 393 -22 l 258 119 q 351 147 313 113 q 389 286 389 182 q 365 412 389 363 q 289 461 342 461 l 268 461 l 268 579 l 286 579 q 354 619 335 579 q 374 725 374 658 q 353 844 374 807 q 292 882 332 882 q 233 853 254 882 q 211 750 211 824 l 211 0 l 57 0 z "},"t":{"ha":397,"x_min":17,"x_max":379,"o":"m 261 -17 q 135 27 179 -17 q 92 158 92 71 l 92 589 l 17 589 l 17 707 l 97 707 l 115 889 l 247 889 l 247 707 l 369 707 l 369 589 l 247 589 l 247 189 q 267 129 247 146 q 317 113 286 113 q 345 114 331 113 q 379 121 360 115 l 379 4 q 261 -17 321 -17 z "},"ŧ":{"ha":404,"x_min":22,"x_max":385,"o":"m 267 -17 q 141 27 185 -17 q 97 158 97 71 l 97 350 l 22 350 l 22 453 l 97 453 l 97 589 l 22 589 l 22 707 l 103 707 l 121 889 l 253 889 l 253 707 l 375 707 l 375 589 l 253 589 l 253 453 l 375 453 l 375 350 l 253 350 l 253 189 q 272 129 253 146 q 322 113 292 113 q 351 114 336 113 q 385 121 365 115 l 385 4 q 267 -17 326 -17 z "},"ť":{"ha":397,"x_min":17,"x_max":438,"o":"m 310 761 l 324 986 l 438 986 l 401 761 l 310 761 m 261 -17 q 135 27 179 -17 q 92 158 92 71 l 92 589 l 17 589 l 17 707 l 97 707 l 115 889 l 247 889 l 247 707 l 369 707 l 369 589 l 247 589 l 247 189 q 267 129 247 146 q 317 113 286 113 q 345 114 331 113 q 379 121 360 115 l 379 4 q 261 -17 321 -17 z "},"ț":{"ha":397,"x_min":17,"x_max":379,"o":"m 261 -17 q 135 27 179 -17 q 92 158 92 71 l 92 589 l 17 589 l 17 707 l 97 707 l 115 889 l 247 889 l 247 707 l 369 707 l 369 589 l 247 589 l 247 189 q 267 129 247 146 q 317 113 286 113 q 345 114 331 113 q 379 121 360 115 l 379 4 q 261 -17 321 -17 m 197 -353 l 236 -232 l 175 -232 l 175 -100 l 325 -100 l 325 -208 l 267 -353 l 197 -353 z "},"u":{"ha":572,"x_min":54,"x_max":517,"o":"m 213 -17 q 99 31 144 -17 q 54 183 54 78 l 54 707 l 210 707 l 210 211 q 229 128 210 150 q 281 107 249 107 q 336 129 311 107 q 361 211 361 151 l 361 707 l 517 707 l 517 0 l 363 0 l 363 82 q 299 7 338 31 q 213 -17 260 -17 z "},"ú":{"ha":572,"x_min":54,"x_max":517,"o":"m 213 -17 q 99 31 144 -17 q 54 183 54 78 l 54 707 l 210 707 l 210 211 q 229 128 210 150 q 281 107 249 107 q 336 129 311 107 q 361 211 361 151 l 361 707 l 517 707 l 517 0 l 363 0 l 363 82 q 299 7 338 31 q 213 -17 260 -17 m 329 794 l 239 819 l 351 1057 l 460 1015 l 329 794 z "},"ŭ":{"ha":572,"x_min":54,"x_max":517,"o":"m 213 -17 q 99 31 144 -17 q 54 183 54 78 l 54 707 l 210 707 l 210 211 q 229 128 210 150 q 281 107 249 107 q 336 129 311 107 q 361 211 361 151 l 361 707 l 517 707 l 517 0 l 363 0 l 363 82 q 299 7 338 31 q 213 -17 260 -17 m 288 800 q 188 842 226 800 q 146 978 150 885 l 239 978 q 253 905 242 922 q 288 888 265 888 q 322 905 310 888 q 338 978 335 922 l 429 978 q 387 842 425 885 q 288 800 349 800 z "},"û":{"ha":572,"x_min":54,"x_max":517,"o":"m 213 -17 q 99 31 144 -17 q 54 183 54 78 l 54 707 l 210 707 l 210 211 q 229 128 210 150 q 281 107 249 107 q 336 129 311 107 q 361 211 361 151 l 361 707 l 517 707 l 517 0 l 363 0 l 363 82 q 299 7 338 31 q 213 -17 260 -17 m 115 808 l 235 976 l 339 976 l 458 808 l 349 808 l 288 897 l 226 808 l 115 808 z "},"ü":{"ha":572,"x_min":54,"x_max":517,"o":"m 213 -17 q 99 31 144 -17 q 54 183 54 78 l 54 707 l 210 707 l 210 211 q 229 128 210 150 q 281 107 249 107 q 336 129 311 107 q 361 211 361 151 l 361 707 l 517 707 l 517 0 l 363 0 l 363 82 q 299 7 338 31 q 213 -17 260 -17 m 317 811 l 317 958 l 449 958 l 449 811 l 317 811 m 133 811 l 133 958 l 265 958 l 265 811 l 133 811 z "},"ù":{"ha":572,"x_min":54,"x_max":517,"o":"m 213 -17 q 99 31 144 -17 q 54 183 54 78 l 54 707 l 210 707 l 210 211 q 229 128 210 150 q 281 107 249 107 q 336 129 311 107 q 361 211 361 151 l 361 707 l 517 707 l 517 0 l 363 0 l 363 82 q 299 7 338 31 q 213 -17 260 -17 m 374 794 l 243 1015 l 351 1057 l 464 819 l 374 794 z "},"ű":{"ha":572,"x_min":54,"x_max":533,"o":"m 213 -17 q 99 31 144 -17 q 54 183 54 78 l 54 707 l 210 707 l 210 211 q 229 128 210 150 q 281 107 249 107 q 336 129 311 107 q 361 211 361 151 l 361 707 l 517 707 l 517 0 l 363 0 l 363 82 q 299 7 338 31 q 213 -17 260 -17 m 392 778 l 324 814 l 435 1054 l 533 1000 l 392 778 m 208 778 l 140 814 l 251 1054 l 351 1000 l 208 778 z "},"ū":{"ha":572,"x_min":54,"x_max":517,"o":"m 213 -17 q 99 31 144 -17 q 54 183 54 78 l 54 707 l 210 707 l 210 211 q 229 128 210 150 q 281 107 249 107 q 336 129 311 107 q 361 211 361 151 l 361 707 l 517 707 l 517 0 l 363 0 l 363 82 q 299 7 338 31 q 213 -17 260 -17 m 111 828 l 111 926 l 463 926 l 463 828 l 111 828 z "},"ų":{"ha":572,"x_min":54,"x_max":517,"o":"m 213 -17 q 99 31 144 -17 q 54 183 54 78 l 54 707 l 210 707 l 210 211 q 229 128 210 150 q 281 107 249 107 q 336 129 311 107 q 361 211 361 151 l 361 707 l 517 707 l 517 0 l 472 0 q 445 -35 458 -14 q 432 -81 432 -56 q 457 -125 432 -111 q 508 -136 482 -139 l 508 -224 q 426 -222 468 -229 q 357 -188 385 -214 q 329 -117 329 -162 q 344 -54 329 -85 q 379 0 358 -24 l 363 0 l 363 82 q 299 7 338 31 q 213 -17 260 -17 z "},"ů":{"ha":572,"x_min":54,"x_max":517,"o":"m 213 -17 q 99 31 144 -17 q 54 183 54 78 l 54 707 l 210 707 l 210 211 q 229 128 210 150 q 281 107 249 107 q 336 129 311 107 q 361 211 361 151 l 361 707 l 517 707 l 517 0 l 363 0 l 363 82 q 299 7 338 31 q 213 -17 260 -17 m 288 794 q 194 831 232 794 q 157 919 157 867 q 194 1009 157 974 q 288 1044 232 1044 q 381 1009 344 1044 q 418 919 418 974 q 381 831 418 867 q 288 794 344 794 m 288 863 q 326 878 311 863 q 340 919 340 893 q 326 963 340 947 q 288 978 311 978 q 251 963 265 978 q 236 919 236 947 q 251 878 236 893 q 288 863 265 863 z "},"ũ":{"ha":572,"x_min":54,"x_max":517,"o":"m 213 -17 q 99 31 144 -17 q 54 183 54 78 l 54 707 l 210 707 l 210 211 q 229 128 210 150 q 281 107 249 107 q 336 129 311 107 q 361 211 361 151 l 361 707 l 517 707 l 517 0 l 363 0 l 363 82 q 299 7 338 31 q 213 -17 260 -17 m 356 826 q 303 840 325 826 q 265 866 281 853 q 235 879 249 879 q 210 866 217 879 q 201 829 204 853 l 122 829 q 153 938 125 907 q 218 969 181 969 q 272 957 250 969 q 311 931 294 944 q 342 918 328 918 q 374 969 371 918 l 453 969 q 423 858 451 889 q 356 826 394 826 z "},"v":{"ha":556,"x_min":14,"x_max":543,"o":"m 186 0 l 14 707 l 171 707 l 282 153 l 392 707 l 543 707 l 371 0 l 186 0 z "},"w":{"ha":807,"x_min":18,"x_max":789,"o":"m 144 0 l 18 707 l 165 707 l 238 190 l 322 707 l 494 707 l 579 190 l 651 707 l 789 707 l 664 0 l 494 0 l 406 522 l 317 0 l 144 0 z "},"ẃ":{"ha":807,"x_min":18,"x_max":789,"o":"m 144 0 l 18 707 l 165 707 l 238 190 l 322 707 l 494 707 l 579 190 l 651 707 l 789 707 l 664 0 l 494 0 l 406 522 l 317 0 l 144 0 m 446 794 l 356 819 l 468 1057 l 576 1015 l 446 794 z "},"ŵ":{"ha":807,"x_min":18,"x_max":789,"o":"m 144 0 l 18 707 l 165 707 l 238 190 l 322 707 l 494 707 l 579 190 l 651 707 l 789 707 l 664 0 l 494 0 l 406 522 l 317 0 l 144 0 m 232 808 l 351 976 l 456 976 l 575 808 l 465 808 l 404 897 l 343 808 l 232 808 z "},"ẅ":{"ha":807,"x_min":18,"x_max":789,"o":"m 144 0 l 18 707 l 165 707 l 238 190 l 322 707 l 494 707 l 579 190 l 651 707 l 789 707 l 664 0 l 494 0 l 406 522 l 317 0 l 144 0 m 433 811 l 433 958 l 565 958 l 565 811 l 433 811 m 250 811 l 250 958 l 382 958 l 382 811 l 250 811 z "},"ẁ":{"ha":807,"x_min":18,"x_max":789,"o":"m 144 0 l 18 707 l 165 707 l 238 190 l 322 707 l 494 707 l 579 190 l 651 707 l 789 707 l 664 0 l 494 0 l 406 522 l 317 0 l 144 0 m 490 794 l 360 1015 l 468 1057 l 581 819 l 490 794 z "},"x":{"ha":515,"x_min":4,"x_max":513,"o":"m 4 0 l 164 357 l 7 707 l 175 707 l 264 478 l 351 707 l 510 707 l 353 357 l 513 0 l 344 0 l 254 236 l 163 0 l 4 0 z "},"y":{"ha":532,"x_min":10,"x_max":522,"o":"m 126 -246 q 83 -243 104 -246 q 35 -233 61 -240 l 35 -122 q 128 -119 94 -129 q 175 -56 161 -110 l 192 10 l 10 707 l 167 707 l 269 207 l 371 707 l 522 707 l 325 -58 q 250 -205 299 -164 q 126 -246 201 -246 z "},"ý":{"ha":532,"x_min":10,"x_max":522,"o":"m 126 -246 q 83 -243 104 -246 q 35 -233 61 -240 l 35 -122 q 128 -119 94 -129 q 175 -56 161 -110 l 192 10 l 10 707 l 167 707 l 269 207 l 371 707 l 522 707 l 325 -58 q 250 -205 299 -164 q 126 -246 201 -246 m 308 794 l 218 819 l 331 1057 l 439 1015 l 308 794 z "},"ŷ":{"ha":532,"x_min":10,"x_max":522,"o":"m 126 -246 q 83 -243 104 -246 q 35 -233 61 -240 l 35 -122 q 128 -119 94 -129 q 175 -56 161 -110 l 192 10 l 10 707 l 167 707 l 269 207 l 371 707 l 522 707 l 325 -58 q 250 -205 299 -164 q 126 -246 201 -246 m 94 808 l 214 976 l 318 976 l 438 808 l 328 808 l 267 897 l 206 808 l 94 808 z "},"ÿ":{"ha":532,"x_min":10,"x_max":522,"o":"m 126 -246 q 83 -243 104 -246 q 35 -233 61 -240 l 35 -122 q 128 -119 94 -129 q 175 -56 161 -110 l 192 10 l 10 707 l 167 707 l 269 207 l 371 707 l 522 707 l 325 -58 q 250 -205 299 -164 q 126 -246 201 -246 m 296 811 l 296 958 l 428 958 l 428 811 l 296 811 m 113 811 l 113 958 l 244 958 l 244 811 l 113 811 z "},"ỳ":{"ha":532,"x_min":10,"x_max":522,"o":"m 126 -246 q 83 -243 104 -246 q 35 -233 61 -240 l 35 -122 q 128 -119 94 -129 q 175 -56 161 -110 l 192 10 l 10 707 l 167 707 l 269 207 l 371 707 l 522 707 l 325 -58 q 250 -205 299 -164 q 126 -246 201 -246 m 353 794 l 222 1015 l 331 1057 l 443 819 l 353 794 z "},"z":{"ha":472,"x_min":31,"x_max":447,"o":"m 31 0 l 31 103 l 271 585 l 31 585 l 31 707 l 438 707 l 438 606 l 197 124 l 447 124 l 447 0 l 31 0 z "},"ź":{"ha":472,"x_min":31,"x_max":447,"o":"m 31 0 l 31 103 l 271 585 l 31 585 l 31 707 l 438 707 l 438 606 l 197 124 l 447 124 l 447 0 l 31 0 m 279 794 l 189 819 l 301 1057 l 410 1015 l 279 794 z "},"ž":{"ha":472,"x_min":31,"x_max":447,"o":"m 31 0 l 31 103 l 271 585 l 31 585 l 31 707 l 438 707 l 438 606 l 197 124 l 447 124 l 447 0 l 31 0 m 188 808 l 68 976 l 176 976 l 238 888 l 299 976 l 406 976 l 286 808 l 188 808 z "},"ż":{"ha":472,"x_min":31,"x_max":447,"o":"m 31 0 l 31 103 l 271 585 l 31 585 l 31 707 l 438 707 l 438 606 l 197 124 l 447 124 l 447 0 l 31 0 m 158 811 l 158 958 l 314 958 l 314 811 l 158 811 z "},"ª":{"ha":383,"x_min":46,"x_max":331,"o":"m 149 550 q 74 580 101 550 q 46 664 46 610 q 74 749 46 718 q 157 800 101 781 l 232 828 l 232 863 q 221 905 232 893 q 190 917 210 917 q 156 902 168 917 q 139 847 144 888 l 50 858 q 94 956 58 921 q 193 990 129 990 q 328 851 328 990 l 328 664 q 328 622 328 643 q 331 556 329 600 l 243 556 l 238 601 q 149 550 213 550 m 140 672 q 151 629 140 642 q 182 617 163 617 q 219 632 206 617 q 232 671 232 647 l 232 765 l 192 747 q 154 722 168 738 q 140 672 140 706 m 53 438 l 53 507 l 331 507 l 331 438 l 53 438 z "},"º":{"ha":393,"x_min":46,"x_max":350,"o":"m 197 546 q 88 596 131 546 q 46 768 46 646 q 88 940 46 890 q 197 990 131 990 q 308 940 265 990 q 350 768 350 890 q 308 596 350 646 q 197 546 265 546 m 197 619 q 238 642 224 619 q 253 724 253 665 l 253 813 q 238 894 253 871 q 197 917 224 917 q 156 894 171 917 q 142 813 142 871 l 142 724 q 156 642 142 665 q 197 619 171 619 m 56 438 l 56 507 l 333 507 l 333 438 l 56 438 z "},"Δ":{"ha":638,"x_min":15,"x_max":622,"o":"m 15 0 l 15 118 l 225 986 l 413 986 l 622 118 l 622 0 l 15 0 m 168 138 l 468 138 l 319 774 l 168 138 z "},"Μ":{"ha":832,"x_min":61,"x_max":769,"o":"m 61 0 l 61 986 l 308 986 l 418 196 l 421 196 l 531 986 l 769 986 l 769 0 l 626 0 l 626 842 l 622 843 l 493 0 l 335 0 l 206 842 l 200 842 l 200 0 l 61 0 z "},"Ω":{"ha":665,"x_min":46,"x_max":619,"o":"m 60 0 l 60 129 l 142 129 q 70 281 94 183 q 46 546 46 379 q 80 819 46 719 q 178 961 114 919 q 333 1003 243 1003 q 488 961 424 1003 q 585 819 551 919 q 619 546 619 719 q 595 281 619 379 q 525 129 571 183 l 606 129 l 606 0 l 360 0 l 360 131 q 410 189 389 154 q 442 288 431 224 q 453 461 453 351 l 453 574 q 439 753 453 689 q 399 845 425 818 q 333 872 372 872 q 269 845 296 872 q 228 753 242 818 q 214 574 214 689 l 214 461 q 225 288 214 351 q 257 189 236 224 q 306 131 278 154 l 306 0 l 60 0 z "},"μ":{"ha":603,"x_min":57,"x_max":579,"o":"m 57 -229 l 57 707 l 213 707 l 213 211 q 232 128 213 150 q 283 107 251 107 q 339 129 314 107 q 364 211 364 151 l 364 707 l 519 707 l 519 172 q 533 117 519 129 q 579 107 547 104 l 579 3 q 503 -10 542 -10 q 435 6 467 -10 q 388 68 403 22 q 331 4 365 25 q 257 -17 297 -17 q 213 -8 233 -17 l 213 -229 l 57 -229 z "},"π":{"ha":596,"x_min":29,"x_max":564,"o":"m 51 0 l 115 578 l 29 578 l 29 707 l 564 707 l 564 578 l 485 578 l 485 172 q 502 118 485 129 q 558 111 519 107 l 558 3 q 465 -10 508 -10 q 401 1 431 -10 q 352 44 371 13 q 333 138 333 76 l 333 578 l 261 578 l 211 0 l 51 0 z "}," ":{"ha":199,"x_min":0,"x_max":0,"o":""}," ":{"ha":199,"x_min":0,"x_max":0,"o":""},"\r":{"ha":199,"x_min":0,"x_max":0,"o":""},".":{"ha":246,"x_min":46,"x_max":200,"o":"m 46 0 l 46 151 l 200 151 l 200 0 l 46 0 z "},",":{"ha":236,"x_min":42,"x_max":196,"o":"m 54 -187 l 96 0 l 42 0 l 42 151 l 196 151 l 196 25 l 132 -187 l 54 -187 z "},":":{"ha":263,"x_min":54,"x_max":208,"o":"m 54 0 l 54 151 l 208 151 l 208 0 l 54 0 m 54 554 l 54 706 l 208 706 l 208 554 l 54 554 z "},";":{"ha":263,"x_min":54,"x_max":208,"o":"m 67 -187 l 108 0 l 54 0 l 54 151 l 208 151 l 208 25 l 144 -187 l 67 -187 m 54 554 l 54 706 l 208 706 l 208 554 l 54 554 z "},"…":{"ha":815,"x_min":46,"x_max":769,"o":"m 46 0 l 46 151 l 200 151 l 200 0 l 46 0 m 331 0 l 331 151 l 485 151 l 485 0 l 331 0 m 615 0 l 615 151 l 769 151 l 769 0 l 615 0 z "},"!":{"ha":269,"x_min":54,"x_max":215,"o":"m 76 281 l 54 986 l 215 986 l 192 281 l 76 281 m 58 0 l 58 151 l 213 151 l 213 0 l 58 0 z "},"¡":{"ha":261,"x_min":50,"x_max":211,"o":"m 54 707 l 208 707 l 208 556 l 54 556 l 54 707 m 72 426 l 188 426 l 211 -279 l 50 -279 l 72 426 z "},"?":{"ha":526,"x_min":6,"x_max":507,"o":"m 200 279 l 199 321 q 205 415 197 376 q 231 492 213 454 q 282 578 250 529 q 333 666 315 629 q 350 758 350 703 q 326 846 350 818 q 265 874 301 874 q 186 825 213 874 q 169 653 160 776 l 22 657 q 73 916 6 829 q 268 1003 140 1003 q 443 941 379 1003 q 507 765 507 879 q 478 628 507 688 q 400 506 449 569 q 358 445 375 472 q 334 386 342 418 q 324 306 326 354 l 322 279 l 200 279 m 186 0 l 186 151 l 340 151 l 340 0 l 186 0 z "},"¿":{"ha":522,"x_min":17,"x_max":518,"o":"m 338 707 l 338 556 l 183 556 l 183 707 l 338 707 m 324 428 l 325 386 q 319 292 328 332 q 292 216 311 253 q 242 129 274 179 q 191 42 208 78 q 174 -51 174 6 q 199 -139 174 -111 q 258 -167 224 -167 q 338 -117 311 -167 q 354 54 364 -68 l 501 50 q 451 -209 518 -122 q 256 -296 383 -296 q 81 -234 144 -296 q 17 -58 17 -172 q 47 78 17 19 q 124 201 76 138 q 166 263 150 236 q 190 321 182 289 q 200 401 199 353 l 201 428 l 324 428 z "},"·":{"ha":251,"x_min":49,"x_max":203,"o":"m 49 339 l 49 490 l 203 490 l 203 339 l 49 339 z "},"•":{"ha":339,"x_min":69,"x_max":269,"o":"m 69 336 l 69 539 l 269 539 l 269 336 l 69 336 z "},"*":{"ha":464,"x_min":26,"x_max":438,"o":"m 154 583 l 74 643 l 169 760 l 26 796 l 58 892 l 193 835 l 181 986 l 283 986 l 271 835 l 406 892 l 438 796 l 294 760 l 390 643 l 308 583 l 232 711 l 154 583 z "},"‽":{"ha":522,"x_min":4,"x_max":503,"o":"m 203 281 l 194 790 l 328 790 l 321 547 q 355 620 343 590 q 372 680 367 650 q 378 750 378 710 q 264 882 378 882 q 164 831 196 882 q 143 653 132 781 l 22 657 q 72 917 4 831 q 267 1003 140 1003 q 441 941 379 1003 q 503 765 503 879 q 475 628 503 688 q 399 506 447 569 q 356 444 372 471 q 331 388 339 418 q 319 310 322 358 l 318 281 l 203 281 m 183 0 l 183 151 l 338 151 l 338 0 l 183 0 z "},"⸘":{"ha":518,"x_min":17,"x_max":515,"o":"m 336 707 l 336 556 l 182 556 l 182 707 l 336 707 m 317 426 l 325 -83 l 192 -83 l 199 160 q 165 87 176 117 q 147 27 153 57 q 142 -43 142 -3 q 256 -175 142 -175 q 356 -124 324 -175 q 376 54 388 -72 l 497 50 q 448 -210 515 -124 q 253 -296 381 -296 q 78 -234 140 -296 q 17 -58 17 -172 q 45 78 17 19 q 121 201 74 138 q 164 263 147 238 q 190 319 181 289 q 200 397 199 350 l 201 426 l 317 426 z "},"#":{"ha":711,"x_min":32,"x_max":679,"o":"m 103 0 l 139 261 l 32 261 l 32 375 l 156 375 l 183 581 l 63 581 l 63 694 l 200 694 l 236 956 l 361 956 l 325 694 l 447 694 l 483 956 l 608 956 l 572 694 l 679 694 l 679 581 l 556 581 l 528 375 l 649 375 l 649 261 l 511 261 l 475 0 l 350 0 l 386 261 l 264 261 l 228 0 l 103 0 m 281 375 l 403 375 l 431 581 l 308 581 l 281 375 z "},"/":{"ha":353,"x_min":13,"x_max":339,"o":"m 13 -150 l 203 1017 l 339 1017 l 149 -150 l 13 -150 z "},"\\":{"ha":353,"x_min":14,"x_max":340,"o":"m 340 -150 l 204 -150 l 14 1017 l 150 1017 l 340 -150 z "},"-":{"ha":392,"x_min":43,"x_max":349,"o":"m 43 290 l 43 414 l 349 414 l 349 290 l 43 290 z "},"–":{"ha":551,"x_min":40,"x_max":511,"o":"m 40 294 l 40 414 l 511 414 l 511 294 l 40 294 z "},"—":{"ha":889,"x_min":40,"x_max":849,"o":"m 40 294 l 40 414 l 849 414 l 849 294 l 40 294 z "},"_":{"ha":428,"x_min":33,"x_max":394,"o":"m 33 -144 l 33 -35 l 394 -35 l 394 -144 l 33 -144 z "},"(":{"ha":313,"x_min":38,"x_max":297,"o":"m 167 -133 q 71 156 104 8 q 38 447 38 304 q 71 738 38 589 q 167 1026 104 886 l 297 1026 q 210 739 239 879 q 181 447 181 599 q 210 163 181 307 q 297 -133 240 19 l 167 -133 z "},")":{"ha":313,"x_min":15,"x_max":275,"o":"m 146 -133 l 15 -133 q 102 163 72 19 q 132 447 132 307 q 103 739 132 599 q 15 1026 74 879 l 146 1026 q 242 738 208 886 q 275 447 275 589 q 242 156 275 304 q 146 -133 208 8 z "},"{":{"ha":364,"x_min":28,"x_max":339,"o":"m 282 -133 q 158 -92 199 -133 q 117 38 117 -51 l 117 328 q 106 374 117 361 q 67 388 94 388 l 28 388 l 28 506 l 67 506 q 106 519 94 506 q 117 564 117 532 l 117 854 q 158 985 117 944 q 282 1025 199 1025 l 339 1025 l 339 907 l 299 907 q 259 894 271 907 q 247 850 247 882 l 247 576 q 172 446 247 478 q 247 315 247 417 l 247 43 q 260 -1 247 11 q 304 -14 272 -14 l 339 -14 l 339 -133 l 282 -133 z "},"}":{"ha":364,"x_min":25,"x_max":336,"o":"m 82 -133 l 25 -133 l 25 -14 l 60 -14 q 104 -1 92 -14 q 117 43 117 11 l 117 315 q 192 446 117 417 q 117 576 117 478 l 117 850 q 105 894 117 882 q 65 907 93 907 l 25 907 l 25 1025 l 82 1025 q 206 985 165 1025 q 247 854 247 944 l 247 564 q 259 519 247 532 q 297 506 271 506 l 336 506 l 336 388 l 297 388 q 259 374 271 388 q 247 328 247 361 l 247 38 q 206 -92 247 -51 q 82 -133 165 -133 z "},"[":{"ha":313,"x_min":64,"x_max":286,"o":"m 64 -133 l 64 1025 l 286 1025 l 286 907 l 194 907 l 194 -14 l 286 -14 l 286 -133 l 64 -133 z "},"]":{"ha":313,"x_min":26,"x_max":249,"o":"m 249 -133 l 26 -133 l 26 -14 l 118 -14 l 118 907 l 26 907 l 26 1025 l 249 1025 l 249 -133 z "},"‚":{"ha":239,"x_min":35,"x_max":200,"o":"m 200 146 l 200 24 l 117 -142 l 35 -142 l 96 0 l 42 0 l 42 146 l 200 146 z "},"„":{"ha":432,"x_min":28,"x_max":393,"o":"m 393 146 l 393 24 l 310 -142 l 233 -142 l 294 0 l 247 0 l 247 146 l 393 146 m 188 146 l 188 24 l 104 -142 l 28 -142 l 89 0 l 42 0 l 42 146 l 188 146 z "},"“":{"ha":431,"x_min":35,"x_max":400,"o":"m 35 729 l 35 851 l 118 1017 l 194 1017 l 133 875 l 181 875 l 181 729 l 35 729 m 240 729 l 240 851 l 324 1017 l 400 1017 l 339 875 l 386 875 l 386 729 l 240 729 z "},"”":{"ha":426,"x_min":33,"x_max":399,"o":"m 399 1017 l 399 894 l 315 729 l 239 729 l 300 871 l 253 871 l 253 1017 l 399 1017 m 193 1017 l 193 894 l 110 729 l 33 729 l 94 871 l 47 871 l 47 1017 l 193 1017 z "},"‘":{"ha":235,"x_min":35,"x_max":200,"o":"m 35 729 l 35 851 l 118 1017 l 200 1017 l 139 875 l 193 875 l 193 729 l 35 729 z "},"’":{"ha":231,"x_min":38,"x_max":203,"o":"m 203 1017 l 203 894 l 119 729 l 38 729 l 99 871 l 44 871 l 44 1017 l 203 1017 z "},"«":{"ha":538,"x_min":36,"x_max":496,"o":"m 358 83 l 269 349 l 358 614 l 496 614 l 408 349 l 496 83 l 358 83 m 125 83 l 36 349 l 125 614 l 263 614 l 175 349 l 263 83 l 125 83 z "},"»":{"ha":538,"x_min":42,"x_max":501,"o":"m 179 83 l 42 83 l 129 349 l 42 614 l 179 614 l 268 349 l 179 83 m 413 83 l 275 83 l 363 349 l 275 614 l 413 614 l 501 349 l 413 83 z "},"‹":{"ha":311,"x_min":36,"x_max":269,"o":"m 125 83 l 36 349 l 125 614 l 269 614 l 182 349 l 269 83 l 125 83 z "},"›":{"ha":311,"x_min":42,"x_max":275,"o":"m 186 83 l 42 83 l 129 349 l 42 614 l 186 614 l 275 349 l 186 83 z "},"\"":{"ha":424,"x_min":35,"x_max":389,"o":"m 56 729 l 35 1017 l 178 1017 l 160 729 l 56 729 m 267 729 l 246 1017 l 389 1017 l 371 729 l 267 729 z "},"'":{"ha":218,"x_min":35,"x_max":183,"o":"m 56 729 l 35 1017 l 183 1017 l 164 729 l 56 729 z "},"ƒ":{"ha":571,"x_min":11,"x_max":560,"o":"m 129 -17 q 72 -10 101 -17 q 11 11 43 -4 l 40 118 q 74 110 60 113 q 100 107 88 107 q 153 127 132 107 q 181 203 175 147 l 204 449 l 104 449 l 104 567 l 215 567 l 236 793 q 306 952 247 901 q 443 1003 364 1003 q 499 997 471 1003 q 560 976 528 992 l 531 868 q 498 877 513 875 q 471 879 483 879 q 417 860 439 879 q 390 783 396 840 l 369 567 l 471 567 l 471 449 l 358 449 l 335 193 q 268 35 325 86 q 129 -17 211 -17 z "},"฿":{"ha":615,"x_min":63,"x_max":578,"o":"m 63 38 l 63 949 l 261 949 l 261 1053 l 347 1053 l 347 947 q 515 876 461 939 q 568 710 568 814 q 542 590 568 644 q 456 506 515 536 q 549 424 521 478 q 578 292 578 371 q 522 117 578 186 q 347 39 467 47 l 347 -67 l 261 -67 l 261 38 l 63 38 m 197 821 l 197 564 l 261 564 l 261 821 l 197 821 m 431 713 q 347 819 431 810 l 347 565 q 408 595 386 569 q 431 671 431 621 l 431 713 m 197 168 l 261 168 l 261 443 l 197 443 l 197 168 m 438 326 q 414 410 438 382 q 347 443 390 439 l 347 169 q 438 286 438 178 l 438 326 z "},"@":{"ha":807,"x_min":36,"x_max":772,"o":"m 407 -129 q 213 -69 296 -129 q 83 96 129 -10 q 36 339 36 201 q 87 626 36 503 q 228 819 138 750 q 439 888 318 888 q 613 831 538 888 q 730 677 688 775 q 772 453 772 579 q 749 272 772 350 q 682 149 725 193 q 581 106 639 106 q 520 122 547 106 q 476 175 493 138 q 368 106 439 106 q 258 169 300 106 q 224 360 217 233 q 251 504 228 440 q 312 606 274 568 q 400 644 350 644 q 490 585 460 644 l 503 632 l 594 632 l 563 296 q 568 220 557 240 q 597 200 579 200 q 633 222 615 200 q 663 300 650 244 q 675 454 675 356 q 646 632 675 554 q 563 753 617 710 q 435 797 510 797 q 276 739 343 797 q 171 579 208 681 q 133 347 133 478 q 167 149 133 236 q 263 10 200 61 q 411 -40 325 -40 q 522 -15 472 -40 q 601 42 572 11 l 638 -33 q 530 -105 592 -81 q 407 -129 468 -129 m 388 206 q 433 233 417 206 q 456 319 450 260 l 467 435 q 458 519 472 492 q 418 546 444 546 q 361 500 383 546 q 332 367 339 454 q 342 244 326 282 q 388 206 358 206 z "},"&":{"ha":625,"x_min":28,"x_max":614,"o":"m 257 -17 q 89 56 150 -17 q 28 242 28 129 q 67 397 28 332 q 168 521 106 463 q 105 650 131 589 q 79 785 79 711 q 102 894 79 844 q 172 973 125 943 q 289 1003 218 1003 q 438 944 388 1003 q 488 794 488 885 q 465 681 488 731 q 405 588 442 631 q 326 506 368 546 l 438 311 q 454 415 449 363 q 464 528 460 468 l 590 528 q 571 338 586 431 q 518 168 556 246 l 614 0 l 451 0 l 425 50 q 257 -17 358 -17 m 221 775 q 235 694 221 735 q 269 611 249 653 q 326 689 304 649 q 347 781 347 729 q 332 851 347 825 q 285 876 317 876 q 235 850 250 876 q 221 775 221 824 m 175 256 q 206 150 175 188 q 279 113 236 113 q 364 160 336 113 l 231 406 q 190 343 206 378 q 175 256 175 308 z "},"¶":{"ha":629,"x_min":17,"x_max":565,"o":"m 250 -143 l 250 400 q 83 475 150 400 q 17 693 17 550 q 83 912 17 838 q 250 986 150 986 l 367 986 l 367 -143 l 250 -143 m 450 -143 l 450 985 l 565 986 l 565 -143 l 450 -143 z "},"§":{"ha":561,"x_min":38,"x_max":525,"o":"m 276 -190 q 103 -119 157 -190 q 51 58 50 -49 l 182 63 q 276 -75 186 -75 q 330 -53 308 -75 q 351 11 351 -32 q 328 85 351 57 q 263 144 306 113 l 172 213 q 107 267 138 239 q 57 335 76 296 q 38 429 38 374 q 69 542 38 494 q 149 617 101 589 q 94 691 115 650 q 72 789 72 732 q 101 908 72 861 q 179 979 131 956 q 286 1003 228 1003 q 449 936 393 1003 q 503 767 506 869 l 372 764 q 348 858 371 829 q 288 888 325 888 q 233 866 254 888 q 211 803 211 844 q 234 729 211 757 q 300 668 257 701 l 390 600 q 456 545 425 574 q 506 478 486 517 q 525 383 525 440 q 493 272 525 318 q 414 197 461 225 q 469 122 447 164 q 490 25 490 81 q 461 -94 490 -46 q 383 -166 432 -142 q 276 -190 335 -190 m 267 314 l 336 263 q 376 306 363 281 q 390 365 390 331 q 367 439 390 413 q 296 500 343 465 l 226 551 q 186 508 200 533 q 172 449 172 483 q 196 376 172 401 q 267 314 219 350 z "},"©":{"ha":857,"x_min":44,"x_max":814,"o":"m 429 -17 q 227 47 314 -17 q 92 224 140 110 q 44 493 44 339 q 92 763 44 649 q 226 940 140 876 q 429 1003 313 1003 q 631 940 544 1003 q 765 763 717 876 q 814 493 814 649 q 766 224 814 339 q 632 47 718 110 q 429 -17 546 -17 m 429 76 q 583 127 518 76 q 683 272 647 178 q 719 493 719 365 q 683 715 719 621 q 583 860 647 808 q 429 911 518 911 q 276 860 342 911 q 175 715 211 808 q 139 493 139 621 q 175 272 139 365 q 276 127 211 178 q 429 76 342 76 m 433 201 q 292 268 347 201 q 236 496 236 335 q 292 724 236 657 q 433 790 347 790 q 522 769 482 790 q 585 699 561 749 q 613 561 610 649 l 497 550 q 481 651 494 622 q 435 681 468 681 q 385 651 401 681 q 368 550 368 622 l 368 443 q 385 342 368 371 q 435 313 401 313 q 481 343 468 313 q 497 443 494 374 l 613 433 q 585 295 610 346 q 522 223 561 244 q 433 201 483 201 z "},"®":{"ha":496,"x_min":38,"x_max":460,"o":"m 249 401 q 97 483 156 401 q 38 703 38 565 q 96 921 38 839 q 249 1003 154 1003 q 401 921 343 1003 q 460 703 460 839 q 401 483 460 565 q 249 401 343 401 m 249 464 q 358 529 318 464 q 397 703 397 594 q 358 876 397 811 q 249 942 318 942 q 140 876 181 942 q 99 703 99 811 q 140 529 99 594 q 249 464 181 464 m 168 550 l 168 864 l 257 864 q 320 839 300 864 q 340 775 340 814 q 331 727 340 749 q 301 694 322 706 l 346 550 l 279 550 l 244 681 l 231 681 l 231 550 l 168 550 m 249 810 l 231 810 l 231 735 l 249 735 q 272 743 265 735 q 279 774 279 751 q 249 810 279 810 z "},"℗":{"ha":496,"x_min":38,"x_max":460,"o":"m 249 401 q 97 483 156 401 q 38 703 38 565 q 96 921 38 839 q 249 1003 154 1003 q 401 921 343 1003 q 460 703 460 839 q 401 483 460 565 q 249 401 343 401 m 249 464 q 358 529 318 464 q 397 703 397 594 q 358 876 397 811 q 249 942 318 942 q 140 876 181 942 q 99 703 99 811 q 140 529 99 594 q 249 464 181 464 m 179 550 l 179 864 l 261 864 q 327 836 306 864 q 349 765 349 808 q 327 697 349 724 q 261 671 306 671 l 240 671 l 240 550 l 179 550 m 254 810 l 240 810 l 240 725 l 254 725 q 280 734 272 725 q 288 767 288 743 q 254 810 288 810 z "},"™":{"ha":583,"x_min":21,"x_max":531,"o":"m 243 621 l 243 986 l 347 986 l 388 729 l 426 986 l 531 986 l 531 621 l 468 621 l 468 911 l 467 911 l 418 621 l 353 621 l 306 911 l 304 911 l 304 621 l 243 621 m 86 621 l 86 932 l 21 932 l 21 986 l 215 986 l 215 932 l 151 932 l 151 621 l 86 621 z "},"°":{"ha":425,"x_min":40,"x_max":386,"o":"m 213 663 q 126 685 165 663 q 63 747 86 708 q 40 833 40 786 q 63 920 40 882 q 126 981 86 958 q 213 1003 165 1003 q 301 981 261 1003 q 363 920 340 958 q 386 833 386 882 q 363 747 386 786 q 301 685 340 708 q 213 663 261 663 m 213 756 q 267 777 246 756 q 288 833 288 799 q 267 888 288 867 q 213 910 246 910 q 160 888 181 910 q 139 833 139 867 q 160 777 139 799 q 213 756 181 756 z "},"|":{"ha":264,"x_min":63,"x_max":201,"o":"m 63 -150 l 63 1025 l 201 1025 l 201 -150 l 63 -150 z "},"¦":{"ha":264,"x_min":63,"x_max":201,"o":"m 63 589 l 63 1025 l 201 1025 l 201 589 l 63 589 m 63 -150 l 63 286 l 201 286 l 201 -150 l 63 -150 z "},"†":{"ha":375,"x_min":25,"x_max":350,"o":"m 136 499 l 136 806 l 25 806 l 25 901 l 136 901 l 136 1025 l 239 1025 l 239 901 l 350 901 l 350 806 l 239 806 l 239 499 l 136 499 z "},"‡":{"ha":403,"x_min":39,"x_max":364,"o":"m 150 499 l 150 617 l 39 617 l 39 708 l 150 708 l 150 817 l 39 817 l 39 908 l 150 908 l 150 1025 l 253 1025 l 253 908 l 364 908 l 364 817 l 253 817 l 253 708 l 364 708 l 364 617 l 253 617 l 253 499 l 150 499 z "},"№":{"ha":1124,"x_min":63,"x_max":1104,"o":"m 871 478 q 703 548 769 478 q 638 740 638 618 q 703 933 638 864 q 871 1003 769 1003 q 1039 933 974 1003 q 1104 740 1104 864 q 1039 548 1104 618 q 871 478 974 478 m 63 0 l 63 986 l 222 986 l 417 394 l 418 394 l 418 986 l 557 986 l 557 0 l 417 0 l 203 644 l 201 644 l 201 0 l 63 0 m 871 594 q 946 631 919 594 q 972 740 972 668 q 946 850 972 814 q 871 886 919 886 q 771 740 771 886 q 871 594 771 594 m 707 268 l 707 381 l 1035 381 l 1035 268 l 707 268 z "},"₿":{"ha":613,"x_min":61,"x_max":576,"o":"m 172 -67 l 172 38 l 61 38 l 61 949 l 172 949 l 172 1053 l 258 1053 l 258 949 l 322 949 l 322 1053 l 408 1053 l 408 938 q 525 858 486 917 q 564 711 564 800 q 538 589 564 642 q 451 506 511 536 q 546 427 515 479 q 576 292 576 375 q 536 137 576 201 q 408 49 496 72 l 408 -67 l 322 -67 l 322 38 l 258 38 l 258 -67 l 172 -67 m 217 564 l 307 564 q 408 672 408 564 l 408 714 q 300 824 408 824 l 217 824 l 217 564 m 217 165 l 311 165 q 417 286 417 165 l 417 326 q 389 415 417 388 q 313 443 361 443 l 217 443 l 217 165 z "},"¢":{"ha":535,"x_min":44,"x_max":493,"o":"m 238 -64 l 238 25 q 98 119 151 39 q 44 372 44 199 q 98 626 44 544 q 238 721 151 707 l 238 810 l 324 810 l 324 719 q 441 647 394 708 q 492 449 488 585 l 382 442 q 365 548 378 510 q 324 600 351 586 l 324 146 q 365 198 351 160 q 382 306 378 236 l 493 297 q 442 99 489 160 q 324 26 396 38 l 324 -64 l 238 -64 m 178 315 q 193 199 178 239 q 238 146 208 160 l 238 600 q 193 547 208 586 q 178 431 178 507 l 178 315 z "},"¤":{"ha":689,"x_min":42,"x_max":647,"o":"m 126 122 l 42 207 l 131 296 q 97 425 97 353 q 131 554 97 497 l 42 644 l 125 728 l 215 638 q 344 671 274 671 q 472 638 415 671 l 563 728 l 647 643 l 558 554 q 592 425 592 497 q 558 296 592 353 l 647 206 l 564 122 l 474 213 q 344 179 415 179 q 217 213 274 179 l 126 122 m 344 304 q 428 337 394 304 q 463 425 463 369 q 428 515 463 482 q 344 547 394 547 q 260 515 294 547 q 226 425 226 482 q 260 337 226 369 q 344 304 294 304 z "},"$":{"ha":557,"x_min":33,"x_max":522,"o":"m 239 -67 l 239 24 q 87 110 139 35 q 33 331 35 185 l 158 336 q 179 204 161 250 q 239 146 197 158 l 239 449 l 199 476 q 91 583 135 522 q 47 732 47 643 q 101 890 47 831 q 239 961 156 949 l 239 1053 l 325 1053 l 325 963 q 467 885 417 953 q 521 679 517 818 l 396 674 q 376 789 390 749 q 325 840 363 829 l 325 561 l 378 524 q 483 417 443 476 q 522 268 522 358 q 466 94 522 154 q 325 24 410 35 l 325 -67 l 239 -67 m 176 747 q 192 678 176 706 q 239 624 208 650 l 239 840 q 190 808 204 832 q 176 747 176 785 m 393 256 q 376 329 393 300 q 325 386 358 358 l 325 146 q 393 256 393 164 z "},"₫":{"ha":633,"x_min":38,"x_max":611,"o":"m 242 175 q 140 201 186 175 q 65 288 93 228 q 38 449 38 347 q 65 612 38 551 q 140 699 93 672 q 244 725 188 725 q 322 710 288 725 q 378 658 356 694 l 378 800 l 265 800 l 265 900 l 378 900 l 378 986 l 533 986 l 533 900 l 611 900 l 611 800 l 533 800 l 533 192 l 381 192 l 381 247 q 323 192 358 208 q 242 175 288 175 m 196 415 q 219 317 196 347 q 285 286 242 286 q 351 310 324 286 q 378 408 378 333 l 378 488 q 351 588 378 564 q 285 613 324 613 q 219 582 242 613 q 196 483 196 551 l 196 415 m 56 0 l 56 106 l 533 106 l 533 0 l 56 0 z "},"€":{"ha":692,"x_min":44,"x_max":650,"o":"m 44 351 l 44 460 l 114 460 q 114 493 114 475 q 114 526 114 511 l 44 526 l 44 635 l 119 635 q 169 855 132 775 q 265 969 207 935 q 396 1003 322 1003 q 525 968 468 1003 q 615 851 582 933 q 650 629 649 769 l 504 624 q 472 817 499 761 q 394 874 446 874 q 338 852 363 874 q 299 779 314 831 q 278 635 283 728 l 446 635 l 436 526 l 276 526 l 276 460 l 429 460 l 419 351 l 278 351 q 299 207 283 258 q 340 134 315 156 q 397 113 365 113 q 474 169 449 113 q 504 361 499 226 l 650 356 q 614 135 647 217 q 524 18 581 53 q 396 -17 468 -17 q 265 17 322 -17 q 169 132 207 51 q 119 351 132 213 l 44 351 z "},"₣":{"ha":572,"x_min":24,"x_max":546,"o":"m 103 0 l 103 176 l 24 176 l 24 292 l 103 292 l 103 986 l 546 986 l 546 853 l 261 853 l 261 585 l 528 585 l 528 457 l 261 457 l 261 292 l 399 292 l 399 176 l 261 176 l 261 0 l 103 0 z "},"₴":{"ha":613,"x_min":47,"x_max":565,"o":"m 47 529 l 47 638 l 353 638 q 390 694 376 664 q 403 763 403 725 q 378 847 403 817 q 310 876 354 876 q 233 836 258 876 q 201 708 208 796 l 54 714 q 125 933 58 864 q 318 1003 192 1003 q 487 949 421 1003 q 553 801 553 896 q 537 710 553 750 q 493 638 521 669 l 565 638 l 565 529 l 47 529 m 296 -17 q 126 37 192 -17 q 60 185 60 90 q 76 278 60 238 q 121 350 92 318 l 47 350 l 47 458 l 565 458 l 565 350 l 260 350 q 224 292 238 324 q 211 224 211 261 q 304 110 211 110 q 381 149 356 110 q 411 279 406 189 l 558 272 q 487 53 554 124 q 296 -17 419 -17 z "},"₭":{"ha":668,"x_min":40,"x_max":635,"o":"m 119 0 l 119 450 l 40 450 l 40 564 l 119 564 l 119 986 l 278 986 l 278 564 l 318 564 l 461 986 l 622 986 l 469 564 l 617 564 l 617 450 l 475 450 l 635 0 l 468 0 l 315 450 l 278 450 l 278 0 l 119 0 z "},"₺":{"ha":608,"x_min":40,"x_max":593,"o":"m 136 0 l 136 289 l 40 235 l 40 353 l 136 407 l 136 479 l 40 425 l 40 543 l 136 597 l 136 986 l 294 986 l 294 686 l 407 749 l 407 631 l 294 568 l 294 496 l 407 558 l 407 440 l 294 378 l 294 133 l 346 133 q 420 174 399 133 q 446 315 442 215 l 593 315 q 535 74 592 147 q 347 0 479 0 l 136 0 z "},"₦":{"ha":738,"x_min":46,"x_max":692,"o":"m 126 0 l 126 343 l 46 343 l 46 460 l 126 460 l 126 528 l 46 528 l 46 644 l 126 644 l 126 986 l 289 986 l 471 411 l 472 411 l 472 986 l 611 986 l 611 644 l 692 644 l 692 528 l 611 528 l 611 460 l 692 460 l 692 343 l 611 343 l 611 0 l 474 0 l 267 644 l 265 644 l 265 0 l 126 0 z "},"₧":{"ha":686,"x_min":31,"x_max":667,"o":"m 104 0 l 104 619 l 31 619 l 31 736 l 104 736 l 104 986 l 343 986 q 526 919 464 986 q 599 736 588 853 l 667 736 l 667 619 l 599 619 q 524 438 586 504 q 343 372 461 372 l 263 372 l 263 0 l 104 0 m 342 861 l 263 861 l 263 736 l 443 736 q 342 861 438 861 m 342 496 q 443 619 436 496 l 263 619 l 263 496 l 342 496 z "},"₱":{"ha":714,"x_min":35,"x_max":685,"o":"m 117 0 l 117 529 l 35 529 l 35 646 l 117 646 l 117 714 l 35 714 l 35 831 l 117 831 l 117 986 l 353 986 q 504 945 446 986 q 589 831 563 904 l 685 831 l 685 714 l 610 714 q 611 679 611 697 q 610 646 611 661 l 685 646 l 685 529 l 589 529 q 505 413 563 454 q 353 372 447 372 l 275 372 l 275 0 l 117 0 m 351 858 l 275 858 l 275 500 l 351 500 q 428 535 401 500 q 454 644 454 569 l 454 721 q 351 858 454 858 z "},"₽":{"ha":642,"x_min":40,"x_max":618,"o":"m 121 0 l 121 211 l 40 211 l 40 326 l 121 326 l 121 396 l 40 396 l 40 513 l 121 513 l 121 986 l 360 986 q 556 905 494 986 q 618 689 618 824 q 557 474 618 551 q 360 396 496 396 l 279 396 l 279 326 l 408 326 l 408 211 l 279 211 l 279 0 l 121 0 m 358 858 l 279 858 l 279 513 l 358 513 q 460 642 460 513 l 460 729 q 433 824 460 790 q 358 858 407 858 z "},"₹":{"ha":575,"x_min":40,"x_max":547,"o":"m 314 0 l 176 407 l 40 407 l 40 535 l 194 535 q 281 563 253 535 q 313 646 308 592 l 40 646 l 40 761 l 313 761 q 280 842 308 814 q 194 871 251 871 l 40 871 l 40 986 l 547 986 l 547 871 l 403 871 q 444 822 429 850 q 465 761 458 794 l 547 761 l 547 646 l 471 646 q 433 515 465 572 q 332 432 400 458 l 488 0 l 314 0 z "},"₪":{"ha":774,"x_min":63,"x_max":713,"o":"m 253 0 l 253 781 l 354 781 l 354 136 l 521 136 q 597 215 597 136 l 597 986 l 713 986 l 713 176 q 668 48 713 96 q 540 0 624 0 l 253 0 m 63 0 l 63 986 l 351 986 q 480 940 435 986 q 525 811 525 893 l 525 207 l 426 207 l 426 772 q 350 851 426 851 l 179 851 l 179 0 l 63 0 z "},"£":{"ha":596,"x_min":21,"x_max":563,"o":"m 164 -17 q 60 24 99 -17 q 21 133 21 65 q 60 243 21 204 q 157 282 100 282 q 208 269 183 282 q 188 349 200 310 q 164 429 176 389 l 57 429 l 57 546 l 126 546 q 105 642 114 593 q 96 740 96 690 q 158 940 96 876 q 319 1003 221 1003 q 491 926 435 1003 q 547 688 547 849 l 400 688 q 374 832 396 790 q 321 874 353 874 q 269 844 290 874 q 247 736 247 814 q 254 639 247 686 q 271 546 261 592 l 433 546 l 433 429 l 297 429 q 318 321 310 376 q 326 204 326 265 q 324 157 326 179 q 353 127 339 139 q 383 115 368 115 q 419 146 411 115 q 426 250 426 176 l 426 296 l 563 296 l 563 224 q 531 51 563 118 q 417 -17 499 -17 q 347 3 376 -17 q 293 53 317 24 q 243 1 275 19 q 164 -17 211 -17 m 124 138 q 137 97 124 111 q 168 82 150 82 q 203 99 188 82 q 218 158 218 115 q 193 181 206 172 q 165 190 181 190 q 124 138 124 190 z "},"₸":{"ha":553,"x_min":22,"x_max":531,"o":"m 22 878 l 22 986 l 531 986 l 531 878 l 22 878 m 197 0 l 197 703 l 22 703 l 22 811 l 531 811 l 531 703 l 356 703 l 356 0 l 197 0 z "},"₩":{"ha":906,"x_min":40,"x_max":865,"o":"m 193 0 l 158 344 l 40 344 l 40 461 l 146 461 l 139 528 l 40 528 l 40 644 l 126 644 l 92 986 l 244 986 l 296 243 l 365 986 l 549 986 l 618 243 l 669 986 l 814 986 l 779 644 l 865 644 l 865 528 l 767 528 l 760 461 l 865 461 l 865 344 l 747 344 l 713 0 l 521 0 l 453 757 l 385 0 l 193 0 z "},"¥":{"ha":636,"x_min":25,"x_max":613,"o":"m 51 210 l 51 326 l 239 326 l 239 393 l 51 393 l 51 510 l 186 510 l 25 986 l 194 986 l 321 549 l 446 986 l 613 986 l 451 510 l 586 510 l 586 393 l 397 393 l 397 326 l 586 326 l 586 210 l 397 210 l 397 0 l 239 0 l 239 210 l 51 210 z "},"∕":{"ha":353,"x_min":13,"x_max":339,"o":"m 13 -150 l 203 1017 l 339 1017 l 149 -150 l 13 -150 z "},"+":{"ha":486,"x_min":61,"x_max":426,"o":"m 188 279 l 188 407 l 61 407 l 61 517 l 188 517 l 188 644 l 300 644 l 300 517 l 426 517 l 426 407 l 300 407 l 300 279 l 188 279 z "},"−":{"ha":486,"x_min":47,"x_max":440,"o":"m 47 407 l 47 517 l 440 517 l 440 407 l 47 407 z "},"×":{"ha":486,"x_min":63,"x_max":425,"o":"m 142 282 l 63 361 l 164 463 l 63 564 l 142 643 l 243 542 l 344 643 l 424 564 l 322 463 l 425 360 l 346 281 l 243 383 l 142 282 z "},"÷":{"ha":486,"x_min":47,"x_max":440,"o":"m 183 568 l 183 686 l 304 686 l 304 568 l 183 568 m 47 410 l 47 514 l 440 514 l 440 410 l 47 410 m 183 238 l 183 357 l 304 357 l 304 238 l 183 238 z "},"=":{"ha":486,"x_min":47,"x_max":440,"o":"m 47 519 l 47 624 l 440 624 l 440 519 l 47 519 m 47 299 l 47 403 l 440 403 l 440 299 l 47 299 z "},"≠":{"ha":486,"x_min":47,"x_max":440,"o":"m 163 207 l 97 236 l 126 299 l 47 299 l 47 403 l 175 403 l 229 519 l 47 519 l 47 624 l 278 624 l 322 718 l 388 688 l 358 624 l 440 624 l 440 519 l 310 519 l 254 403 l 440 403 l 440 299 l 206 299 l 163 207 z "},">":{"ha":486,"x_min":61,"x_max":426,"o":"m 61 240 l 61 351 l 319 463 l 61 574 l 61 683 l 426 521 l 426 404 l 61 240 z "},"<":{"ha":486,"x_min":61,"x_max":426,"o":"m 426 240 l 61 404 l 61 521 l 426 683 l 426 574 l 168 463 l 426 351 l 426 240 z "},"≥":{"ha":486,"x_min":61,"x_max":426,"o":"m 61 338 l 61 449 l 325 532 l 61 615 l 61 725 l 426 590 l 426 474 l 61 338 m 61 199 l 61 286 l 426 286 l 426 199 l 61 199 z "},"≤":{"ha":486,"x_min":61,"x_max":426,"o":"m 426 338 l 61 474 l 61 590 l 426 725 l 426 615 l 163 532 l 426 449 l 426 338 m 426 199 l 61 199 l 61 286 l 426 286 l 426 199 z "},"±":{"ha":486,"x_min":61,"x_max":426,"o":"m 188 349 l 188 482 l 61 482 l 61 582 l 188 582 l 188 715 l 300 715 l 300 582 l 426 582 l 426 482 l 300 482 l 300 349 l 188 349 m 61 199 l 61 286 l 426 286 l 426 199 l 61 199 z "},"≈":{"ha":486,"x_min":47,"x_max":440,"o":"m 328 479 q 280 494 303 479 q 238 526 257 508 q 203 559 218 544 q 175 574 188 574 q 135 483 142 574 l 47 483 q 83 637 53 586 q 160 688 113 688 q 206 673 183 688 q 249 640 229 658 q 285 608 268 622 q 313 593 301 593 q 340 617 332 593 q 353 683 349 640 l 440 683 q 408 530 439 581 q 328 479 376 479 m 328 236 q 280 251 303 236 q 238 283 257 265 q 203 316 218 301 q 175 331 188 331 q 135 240 142 331 l 47 240 q 83 394 53 343 q 160 446 113 446 q 206 431 183 446 q 249 399 229 417 q 285 366 268 381 q 313 351 301 351 q 340 375 332 351 q 353 442 349 399 l 440 442 q 408 288 439 339 q 328 236 376 236 z "},"~":{"ha":486,"x_min":46,"x_max":440,"o":"m 326 354 q 278 369 301 354 q 237 401 256 383 q 203 434 218 419 q 175 449 188 449 q 147 426 156 449 q 133 358 138 403 l 46 358 q 82 519 51 467 q 158 571 113 571 q 205 556 182 571 q 248 524 228 542 q 284 491 268 506 q 313 476 300 476 q 340 500 332 476 q 353 567 349 524 l 440 567 q 408 406 439 458 q 326 354 376 354 z "},"¬":{"ha":486,"x_min":47,"x_max":440,"o":"m 47 407 l 47 517 l 440 517 l 440 301 l 328 301 l 328 407 l 47 407 z "},"^":{"ha":486,"x_min":26,"x_max":461,"o":"m 26 743 l 188 986 l 300 986 l 461 743 l 333 743 l 244 885 l 154 743 l 26 743 z "},"∞":{"ha":826,"x_min":42,"x_max":785,"o":"m 229 178 q 120 216 161 178 q 60 317 79 254 q 42 451 42 379 q 60 586 42 524 q 120 687 79 649 q 229 725 161 725 q 328 690 285 725 q 413 575 371 656 q 499 690 456 656 q 597 725 542 725 q 706 687 665 725 q 766 586 747 649 q 785 451 785 524 q 766 317 785 379 q 706 216 747 254 q 597 178 665 178 q 499 213 542 178 q 414 328 456 247 q 328 213 371 247 q 229 178 285 178 m 169 451 q 189 340 169 375 q 242 306 208 306 q 292 331 269 306 q 349 432 315 357 l 357 451 l 349 472 q 293 572 317 546 q 242 599 269 599 q 189 563 208 599 q 169 451 169 528 m 478 432 q 535 331 511 357 q 585 306 558 306 q 638 340 618 306 q 657 451 657 375 q 638 563 657 528 q 585 599 618 599 q 534 572 558 599 q 478 472 510 546 l 469 451 l 478 432 z "},"∫":{"ha":593,"x_min":11,"x_max":583,"o":"m 129 -246 q 72 -240 101 -246 q 11 -218 43 -233 l 40 -111 q 74 -119 60 -117 q 101 -122 88 -122 q 154 -102 133 -122 q 181 -26 175 -82 l 260 793 q 328 952 271 901 q 467 1003 386 1003 q 522 997 493 1003 q 583 976 551 992 l 554 868 q 522 877 536 875 q 493 879 507 879 q 440 860 461 879 q 414 783 419 840 l 335 -36 q 268 -194 325 -143 q 129 -246 211 -246 z "},"∆":{"ha":694,"x_min":11,"x_max":683,"o":"m 11 0 l 253 986 l 442 986 l 683 0 l 11 0 m 193 138 l 501 138 l 349 774 l 193 138 z "},"∏":{"ha":753,"x_min":13,"x_max":740,"o":"m 125 -229 l 125 853 l 13 853 l 13 986 l 740 986 l 740 853 l 628 853 l 628 -229 l 469 -229 l 469 853 l 283 853 l 283 -229 l 125 -229 z "},"∑":{"ha":521,"x_min":26,"x_max":494,"o":"m 26 -229 l 26 -118 l 222 378 l 26 875 l 26 986 l 494 986 l 494 853 l 199 853 l 385 378 l 199 -96 l 494 -96 l 494 -229 l 26 -229 z "},"√":{"ha":765,"x_min":26,"x_max":742,"o":"m 146 -229 l 26 364 l 183 363 l 265 -44 l 475 986 l 742 986 l 742 847 l 603 847 l 383 -229 l 146 -229 z "},"µ":{"ha":578,"x_min":58,"x_max":521,"o":"m 58 -229 l 58 707 l 214 707 l 214 211 q 233 128 214 150 q 285 107 253 107 q 340 129 315 107 q 365 211 365 151 l 365 707 l 521 707 l 521 0 l 367 0 l 367 69 q 254 -17 328 -17 q 214 -10 232 -17 l 214 -229 l 58 -229 z "},"∂":{"ha":578,"x_min":38,"x_max":540,"o":"m 289 -17 q 158 19 215 -17 q 69 136 101 54 q 38 354 38 218 q 65 571 38 490 q 140 688 93 651 q 244 724 188 724 q 286 719 267 724 q 325 704 306 715 q 235 815 290 774 q 106 883 179 857 l 172 1003 q 337 913 271 968 q 444 788 403 857 q 506 649 485 719 q 533 512 526 578 q 540 396 540 446 q 508 149 540 239 q 419 21 476 58 q 289 -17 363 -17 m 194 281 q 219 143 194 182 q 289 104 244 104 q 340 124 319 104 q 372 201 361 144 q 383 368 383 258 q 365 581 383 492 q 293 603 332 603 q 220 564 246 603 q 194 426 194 525 l 194 281 z "},"%":{"ha":788,"x_min":22,"x_max":765,"o":"m 181 485 q 61 550 100 485 q 22 739 22 615 q 61 929 22 864 q 181 994 100 994 q 300 929 263 994 q 338 739 338 864 q 300 550 338 615 q 181 485 263 485 m 104 0 l 572 986 l 683 986 l 215 0 l 104 0 m 181 581 q 219 608 206 581 q 232 713 232 636 l 232 769 q 219 872 232 846 q 181 899 206 899 q 142 872 156 899 q 129 769 129 844 l 129 713 q 142 608 129 636 q 181 581 156 581 m 608 -8 q 489 57 528 -8 q 450 246 450 122 q 489 436 450 371 q 608 501 528 501 q 728 436 690 501 q 765 246 765 371 q 728 57 765 122 q 608 -8 690 -8 m 608 88 q 647 115 633 88 q 660 219 660 143 l 660 276 q 647 379 660 353 q 608 406 633 406 q 570 378 583 406 q 557 276 557 351 l 557 219 q 570 115 557 143 q 608 88 583 88 z "},"‰":{"ha":1103,"x_min":24,"x_max":1083,"o":"m 182 485 q 63 550 101 485 q 24 739 24 615 q 63 929 24 864 q 182 994 101 994 q 301 929 264 994 q 339 739 339 864 q 301 550 339 615 q 182 485 264 485 m 88 0 l 556 986 l 667 986 l 199 0 l 88 0 m 182 581 q 220 608 207 581 q 233 713 233 636 l 233 769 q 220 872 233 846 q 182 899 207 899 q 144 872 157 899 q 131 769 131 844 l 131 713 q 144 608 131 636 q 182 581 157 581 m 574 -8 q 454 57 493 -8 q 415 246 415 122 q 454 436 415 371 q 574 501 493 501 q 693 436 656 501 q 731 246 731 371 q 693 57 731 122 q 574 -8 656 -8 m 926 -8 q 807 57 846 -8 q 768 246 768 122 q 807 436 768 371 q 926 501 846 501 q 1046 436 1008 501 q 1083 246 1083 371 q 1046 57 1083 122 q 926 -8 1008 -8 m 574 88 q 612 115 599 88 q 625 219 625 143 l 625 276 q 612 379 625 353 q 574 406 599 406 q 535 378 549 406 q 522 276 522 351 l 522 219 q 535 115 522 143 q 574 88 549 88 m 926 88 q 965 115 951 88 q 978 219 978 143 l 978 276 q 965 379 978 353 q 926 406 951 406 q 888 378 901 406 q 875 276 875 351 l 875 219 q 888 115 875 143 q 926 88 901 88 z "},"↑":{"ha":635,"x_min":17,"x_max":619,"o":"m 247 28 l 247 738 l 108 582 l 17 674 l 318 975 l 619 674 l 528 582 l 389 738 l 389 28 l 247 28 z "},"↗":{"ha":776,"x_min":19,"x_max":739,"o":"m 19 257 l 522 760 l 313 747 l 313 876 l 739 876 l 739 450 l 608 450 l 621 658 l 119 157 l 19 257 z "},"→":{"ha":1021,"x_min":40,"x_max":988,"o":"m 40 546 l 750 546 l 594 685 l 686 776 l 988 475 l 686 174 l 594 265 l 750 404 l 40 404 l 40 546 z "},"↘":{"ha":776,"x_min":19,"x_max":739,"o":"m 610 553 l 739 553 l 739 126 l 313 126 l 313 257 l 521 244 l 19 746 l 119 846 l 622 343 l 610 553 z "},"↓":{"ha":633,"x_min":17,"x_max":619,"o":"m 108 404 l 247 249 l 247 958 l 389 958 l 389 249 l 528 404 l 619 313 l 318 11 l 17 313 l 108 404 z "},"↙":{"ha":776,"x_min":38,"x_max":757,"o":"m 167 553 l 154 343 l 657 846 l 757 746 l 256 244 l 464 257 l 464 126 l 38 126 l 38 553 l 167 553 z "},"←":{"ha":1021,"x_min":35,"x_max":982,"o":"m 428 267 l 336 175 l 35 476 l 336 778 l 428 686 l 272 547 l 982 547 l 982 406 l 272 406 l 428 267 z "},"↖":{"ha":776,"x_min":38,"x_max":757,"o":"m 757 257 l 657 157 l 156 658 l 168 450 l 38 450 l 38 876 l 464 876 l 464 747 l 254 760 l 757 257 z "},"●":{"ha":1106,"x_min":43,"x_max":1063,"o":"m 553 -17 q 355 23 447 -17 q 192 133 263 63 q 83 295 122 203 q 43 493 43 388 q 83 691 43 599 q 192 853 122 783 q 355 963 263 924 q 553 1003 447 1003 q 751 963 658 1003 q 913 853 843 924 q 1023 691 983 783 q 1063 493 1063 599 q 1023 295 1063 388 q 913 133 983 203 q 751 23 843 63 q 553 -17 658 -17 z "},"○":{"ha":1106,"x_min":43,"x_max":1063,"o":"m 553 -17 q 355 23 447 -17 q 192 133 263 63 q 83 295 122 203 q 43 493 43 388 q 83 691 43 599 q 192 853 122 783 q 355 963 263 924 q 553 1003 447 1003 q 751 963 658 1003 q 913 853 843 924 q 1023 691 983 783 q 1063 493 1063 599 q 1023 295 1063 388 q 913 133 983 203 q 751 23 843 63 q 553 -17 658 -17 m 553 146 q 728 193 650 146 q 854 319 807 240 q 901 493 901 397 q 854 669 901 590 q 728 794 807 747 q 553 842 650 842 q 378 794 457 842 q 253 669 300 747 q 206 493 206 590 q 253 319 206 397 q 378 193 300 240 q 553 146 457 146 z "},"◊":{"ha":650,"x_min":38,"x_max":613,"o":"m 197 493 l 325 154 l 453 493 l 325 832 l 197 493 m 238 0 l 38 493 l 238 986 l 413 986 l 613 493 l 413 0 l 238 0 z "},"■":{"ha":1110,"x_min":63,"x_max":1049,"o":"m 63 0 l 63 986 l 1049 986 l 1049 0 l 63 0 z "},"□":{"ha":1110,"x_min":63,"x_max":1049,"o":"m 63 0 l 63 986 l 1049 986 l 1049 0 l 63 0 m 224 163 l 886 163 l 886 825 l 224 825 l 224 163 z "},"̈":{"ha":0,"x_min":0,"x_max":315,"o":"m 183 811 l 183 958 l 315 958 l 315 811 l 183 811 m 0 811 l 0 958 l 132 958 l 132 811 l 0 811 z "},"̇":{"ha":0,"x_min":0,"x_max":156,"o":"m 0 811 l 0 958 l 156 958 l 156 811 l 0 811 z "},"̀":{"ha":0,"x_min":139,"x_max":360,"o":"m 269 794 l 139 1015 l 247 1057 l 360 819 l 269 794 z "},"́":{"ha":0,"x_min":0,"x_max":221,"o":"m 90 794 l 0 819 l 113 1057 l 221 1015 l 90 794 z "},"̋":{"ha":0,"x_min":0,"x_max":393,"o":"m 251 778 l 183 814 l 294 1054 l 393 1000 l 251 778 m 68 778 l 0 814 l 111 1054 l 211 1000 l 68 778 z "},"̂":{"ha":0,"x_min":0,"x_max":343,"o":"m 0 808 l 119 976 l 224 976 l 343 808 l 233 808 l 172 897 l 111 808 l 0 808 z "},"̌":{"ha":0,"x_min":0,"x_max":338,"o":"m 119 808 l 0 976 l 108 976 l 169 888 l 231 976 l 338 976 l 218 808 l 119 808 z "},"̆":{"ha":0,"x_min":0,"x_max":283,"o":"m 142 800 q 42 842 81 800 q 0 978 4 885 l 93 978 q 108 905 96 922 q 142 888 119 888 q 176 905 164 888 q 192 978 189 922 l 283 978 q 241 842 279 885 q 142 800 203 800 z "},"̊":{"ha":0,"x_min":0,"x_max":261,"o":"m 131 794 q 38 831 75 794 q 0 919 0 867 q 38 1009 0 974 q 131 1044 75 1044 q 224 1009 188 1044 q 261 919 261 974 q 224 831 261 867 q 131 794 188 794 m 131 863 q 169 878 154 863 q 183 919 183 893 q 169 963 183 947 q 131 978 154 978 q 94 963 108 978 q 79 919 79 947 q 94 878 79 893 q 131 863 108 863 z "},"̃":{"ha":0,"x_min":0,"x_max":331,"o":"m 233 826 q 181 840 203 826 q 142 866 158 853 q 113 879 126 879 q 88 866 94 879 q 79 829 82 853 l 0 829 q 31 938 3 907 q 96 969 58 969 q 150 957 128 969 q 189 931 172 944 q 219 918 206 918 q 251 969 249 918 l 331 969 q 301 858 329 889 q 233 826 272 826 z "},"̄":{"ha":0,"x_min":0,"x_max":351,"o":"m 0 828 l 0 926 l 351 926 l 351 828 l 0 828 z "},"̒":{"ha":0,"x_min":0,"x_max":150,"o":"m 0 807 l 0 915 l 58 1060 l 128 1060 l 89 939 l 150 939 l 150 807 l 0 807 z "},"̦":{"ha":0,"x_min":0,"x_max":150,"o":"m 22 -353 l 61 -232 l 0 -232 l 0 -100 l 150 -100 l 150 -208 l 92 -353 l 22 -353 z "},"̧":{"ha":0,"x_min":0,"x_max":204,"o":"m 75 -232 q 40 -230 57 -232 q 0 -224 24 -228 l 0 -142 q 50 -149 25 -147 q 92 -144 75 -150 q 108 -119 108 -137 q 92 -94 108 -103 q 38 -78 76 -85 l 43 3 l 121 3 l 121 -36 q 180 -69 156 -46 q 204 -131 204 -92 q 167 -207 204 -182 q 75 -232 131 -232 z "},"̨":{"ha":0,"x_min":0,"x_max":179,"o":"m 179 -224 q 97 -222 139 -229 q 28 -188 56 -214 q 0 -117 0 -162 q 18 -51 0 -81 q 63 3 36 -21 l 63 17 l 150 0 q 118 -36 132 -14 q 103 -85 104 -58 q 128 -127 103 -115 q 179 -136 153 -139 l 179 -224 z "},"¨":{"ha":307,"x_min":0,"x_max":315,"o":"m 183 811 l 183 958 l 315 958 l 315 811 l 183 811 m 0 811 l 0 958 l 132 958 l 132 811 l 0 811 z "},"˙":{"ha":156,"x_min":0,"x_max":156,"o":"m 0 811 l 0 958 l 156 958 l 156 811 l 0 811 z "},"`":{"ha":499,"x_min":139,"x_max":360,"o":"m 269 794 l 139 1015 l 247 1057 l 360 819 l 269 794 z "},"´":{"ha":221,"x_min":0,"x_max":221,"o":"m 90 794 l 0 819 l 113 1057 l 221 1015 l 90 794 z "},"˝":{"ha":393,"x_min":0,"x_max":393,"o":"m 251 778 l 183 814 l 294 1054 l 393 1000 l 251 778 m 68 778 l 0 814 l 111 1054 l 211 1000 l 68 778 z "},"ˆ":{"ha":343,"x_min":0,"x_max":343,"o":"m 0 808 l 119 976 l 224 976 l 343 808 l 233 808 l 172 897 l 111 808 l 0 808 z "},"ˇ":{"ha":338,"x_min":0,"x_max":338,"o":"m 119 808 l 0 976 l 108 976 l 169 888 l 231 976 l 338 976 l 218 808 l 119 808 z "},"˘":{"ha":283,"x_min":0,"x_max":283,"o":"m 142 800 q 42 842 81 800 q 0 978 4 885 l 93 978 q 108 905 96 922 q 142 888 119 888 q 176 905 164 888 q 192 978 189 922 l 283 978 q 241 842 279 885 q 142 800 203 800 z "},"˚":{"ha":261,"x_min":0,"x_max":261,"o":"m 131 794 q 38 831 75 794 q 0 919 0 867 q 38 1009 0 974 q 131 1044 75 1044 q 224 1009 188 1044 q 261 919 261 974 q 224 831 261 867 q 131 794 188 794 m 131 863 q 169 878 154 863 q 183 919 183 893 q 169 963 183 947 q 131 978 154 978 q 94 963 108 978 q 79 919 79 947 q 94 878 79 893 q 131 863 108 863 z "},"˜":{"ha":331,"x_min":0,"x_max":331,"o":"m 233 826 q 181 840 203 826 q 142 866 158 853 q 113 879 126 879 q 88 866 94 879 q 79 829 82 853 l 0 829 q 31 938 3 907 q 96 969 58 969 q 150 957 128 969 q 189 931 172 944 q 219 918 206 918 q 251 969 249 918 l 331 969 q 301 858 329 889 q 233 826 272 826 z "},"¯":{"ha":351,"x_min":0,"x_max":351,"o":"m 0 828 l 0 926 l 351 926 l 351 828 l 0 828 z "},"¸":{"ha":204,"x_min":0,"x_max":204,"o":"m 75 -232 q 40 -230 57 -232 q 0 -224 24 -228 l 0 -142 q 50 -149 25 -147 q 92 -144 75 -150 q 108 -119 108 -137 q 92 -94 108 -103 q 38 -78 76 -85 l 43 3 l 121 3 l 121 -36 q 180 -69 156 -46 q 204 -131 204 -92 q 167 -207 204 -182 q 75 -232 131 -232 z "},"˛":{"ha":179,"x_min":0,"x_max":179,"o":"m 179 -224 q 97 -222 139 -229 q 28 -188 56 -214 q 0 -117 0 -162 q 18 -51 0 -81 q 63 3 36 -21 l 63 17 l 150 0 q 118 -36 132 -14 q 103 -85 104 -58 q 128 -127 103 -115 q 179 -136 153 -139 l 179 -224 z "},"⁄":{"ha":153,"x_min":-197,"x_max":350,"o":"m -197 0 l 261 986 l 350 986 l -108 0 l -197 0 z "},"½":{"ha":771,"x_min":31,"x_max":744,"o":"m 31 493 l 31 574 l 113 574 l 113 867 l 31 867 l 31 935 l 78 938 q 115 950 104 940 q 136 986 126 960 l 207 986 l 207 574 l 288 574 l 288 493 l 31 493 m 124 0 l 582 986 l 671 986 l 213 0 l 124 0 m 476 0 l 476 71 l 593 239 q 635 308 621 279 q 650 367 650 336 q 607 425 650 425 q 569 403 582 425 q 560 325 556 381 l 471 328 q 500 456 461 411 q 607 501 539 501 q 710 464 676 501 q 744 369 744 426 q 722 277 744 315 q 674 203 699 239 l 586 81 l 742 81 l 742 0 l 476 0 z "},"⅓":{"ha":789,"x_min":31,"x_max":765,"o":"m 31 493 l 31 574 l 113 574 l 113 867 l 31 867 l 31 935 l 78 938 q 115 950 104 940 q 136 986 126 960 l 207 986 l 207 574 l 288 574 l 288 493 l 31 493 m 124 0 l 582 986 l 671 986 l 213 0 l 124 0 m 624 -8 q 531 17 564 -8 q 487 81 499 43 q 475 151 475 118 l 565 156 q 581 89 567 108 q 621 69 594 69 q 671 139 671 69 q 606 213 671 213 l 568 213 l 568 289 l 604 289 q 652 308 639 289 q 665 358 665 328 q 651 410 665 394 q 617 425 638 425 q 580 408 593 425 q 564 349 567 390 l 475 351 q 487 417 475 382 q 530 476 499 451 q 621 501 561 501 q 724 464 688 501 q 760 369 760 426 q 738 293 760 322 q 688 253 717 264 q 740 217 715 246 q 765 133 765 188 q 729 33 765 74 q 624 -8 693 -8 z "},"⅔":{"ha":792,"x_min":21,"x_max":768,"o":"m 36 493 l 36 564 l 153 732 q 195 801 181 772 q 210 860 210 829 q 167 918 210 918 q 128 896 142 918 q 119 818 115 874 l 31 821 q 60 949 21 904 q 167 994 99 994 q 270 957 236 994 q 304 863 304 919 q 281 770 304 808 q 233 696 258 732 l 146 574 l 301 574 l 301 493 l 36 493 m 128 0 l 586 986 l 675 986 l 217 0 l 128 0 m 626 -8 q 534 17 567 -8 q 490 81 501 43 q 478 151 478 118 l 568 156 q 583 89 569 108 q 624 69 597 69 q 674 139 674 69 q 608 213 674 213 l 571 213 l 571 289 l 607 289 q 655 308 642 289 q 668 358 668 328 q 654 410 668 394 q 619 425 640 425 q 583 408 596 425 q 567 349 569 390 l 478 351 q 490 417 478 382 q 533 476 501 451 q 624 501 564 501 q 726 464 690 501 q 763 369 763 426 q 741 293 763 322 q 690 253 719 264 q 743 217 718 246 q 768 133 768 188 q 732 33 768 74 q 626 -8 696 -8 z "},"¼":{"ha":738,"x_min":31,"x_max":718,"o":"m 31 493 l 31 574 l 113 574 l 113 867 l 31 867 l 31 935 l 78 938 q 115 950 104 940 q 136 986 126 960 l 207 986 l 207 574 l 288 574 l 288 493 l 31 493 m 124 0 l 582 986 l 671 986 l 213 0 l 124 0 m 419 97 l 419 158 l 550 493 l 672 493 l 672 172 l 718 172 l 718 97 l 672 97 l 672 0 l 578 0 l 578 97 l 419 97 m 497 172 l 578 172 l 578 378 l 497 172 z "},"¾":{"ha":740,"x_min":28,"x_max":719,"o":"m 176 485 q 84 510 117 485 q 40 574 51 536 q 28 644 28 611 l 118 649 q 133 582 119 601 q 174 563 147 563 q 224 632 224 563 q 158 706 224 706 l 121 706 l 121 782 l 157 782 q 205 801 192 782 q 218 851 218 821 q 204 903 218 888 q 169 918 190 918 q 133 901 146 918 q 117 842 119 883 l 28 844 q 40 910 28 875 q 83 969 51 944 q 174 994 114 994 q 276 957 240 994 q 313 863 313 919 q 291 786 313 815 q 240 746 269 757 q 293 710 268 739 q 318 626 318 681 q 282 526 318 567 q 176 485 246 485 m 125 0 l 583 986 l 672 986 l 214 0 l 125 0 m 421 97 l 421 158 l 551 493 l 674 493 l 674 172 l 719 172 l 719 97 l 674 97 l 674 0 l 579 0 l 579 97 l 421 97 m 499 172 l 579 172 l 579 378 l 499 172 z "},"⅕":{"ha":796,"x_min":31,"x_max":775,"o":"m 31 493 l 31 574 l 113 574 l 113 867 l 31 867 l 31 935 l 78 938 q 115 950 104 940 q 136 986 126 960 l 207 986 l 207 574 l 288 574 l 288 493 l 31 493 m 124 0 l 582 986 l 671 986 l 213 0 l 124 0 m 629 -8 q 526 33 564 -8 q 488 150 488 74 l 576 153 q 592 88 579 106 q 628 69 606 69 q 667 93 653 69 q 681 171 681 117 q 629 269 681 269 q 597 256 610 269 q 576 208 583 243 l 499 218 l 511 493 l 746 493 l 746 413 l 586 413 l 583 310 q 653 336 610 336 q 743 291 711 336 q 775 168 775 246 q 736 40 775 89 q 629 -8 697 -8 z "},"⅖":{"ha":800,"x_min":21,"x_max":779,"o":"m 36 493 l 36 564 l 153 732 q 195 801 181 772 q 210 860 210 829 q 167 918 210 918 q 128 896 142 918 q 119 818 115 874 l 31 821 q 60 949 21 904 q 167 994 99 994 q 270 957 236 994 q 304 863 304 919 q 281 770 304 808 q 233 696 258 732 l 146 574 l 301 574 l 301 493 l 36 493 m 128 0 l 586 986 l 675 986 l 217 0 l 128 0 m 633 -8 q 530 33 568 -8 q 492 150 492 74 l 581 153 q 597 88 583 106 q 632 69 610 69 q 671 93 657 69 q 685 171 685 117 q 633 269 685 269 q 601 256 614 269 q 581 208 588 243 l 503 218 l 515 493 l 750 493 l 750 413 l 590 413 l 588 310 q 657 336 614 336 q 747 291 715 336 q 779 168 779 246 q 740 40 779 89 q 633 -8 701 -8 z "},"⅗":{"ha":799,"x_min":28,"x_max":776,"o":"m 176 485 q 84 510 117 485 q 40 574 51 536 q 28 644 28 611 l 118 649 q 133 582 119 601 q 174 563 147 563 q 224 632 224 563 q 158 706 224 706 l 121 706 l 121 782 l 157 782 q 205 801 192 782 q 218 851 218 821 q 204 903 218 888 q 169 918 190 918 q 133 901 146 918 q 117 842 119 883 l 28 844 q 40 910 28 875 q 83 969 51 944 q 174 994 114 994 q 276 957 240 994 q 313 863 313 919 q 291 786 313 815 q 240 746 269 757 q 293 710 268 739 q 318 626 318 681 q 282 526 318 567 q 176 485 246 485 m 125 0 l 583 986 l 672 986 l 214 0 l 125 0 m 631 -8 q 527 33 565 -8 q 489 150 489 74 l 578 153 q 594 88 581 106 q 629 69 607 69 q 668 93 654 69 q 682 171 682 117 q 631 269 682 269 q 598 256 611 269 q 578 208 585 243 l 500 218 l 513 493 l 747 493 l 747 413 l 588 413 l 585 310 q 654 336 611 336 q 744 291 713 336 q 776 168 776 246 q 738 40 776 89 q 631 -8 699 -8 z "},"⅘":{"ha":803,"x_min":21,"x_max":778,"o":"m 21 590 l 21 651 l 151 986 l 274 986 l 274 665 l 319 665 l 319 590 l 274 590 l 274 493 l 179 493 l 179 590 l 21 590 m 99 665 l 179 665 l 179 871 l 99 665 m 126 0 l 585 986 l 674 986 l 215 0 l 126 0 m 632 -8 q 528 33 567 -8 q 490 150 490 74 l 579 153 q 595 88 582 106 q 631 69 608 69 q 669 93 656 69 q 683 171 683 117 q 632 269 683 269 q 599 256 613 269 q 579 208 586 243 l 501 218 l 514 493 l 749 493 l 749 413 l 589 413 l 586 310 q 656 336 613 336 q 746 291 714 336 q 778 168 778 246 q 739 40 778 89 q 632 -8 700 -8 z "},"⅙":{"ha":776,"x_min":31,"x_max":753,"o":"m 31 493 l 31 574 l 113 574 l 113 867 l 31 867 l 31 935 l 78 938 q 115 950 104 940 q 136 986 126 960 l 207 986 l 207 574 l 288 574 l 288 493 l 31 493 m 124 0 l 582 986 l 671 986 l 213 0 l 124 0 m 607 -8 q 492 56 529 -8 q 454 226 454 119 q 468 358 454 294 q 517 461 482 421 q 617 501 553 501 q 704 470 669 501 q 747 361 739 439 l 661 354 q 645 408 656 390 q 613 425 635 425 q 565 384 581 425 q 547 269 549 343 q 587 304 564 293 q 635 315 610 315 q 722 270 690 315 q 753 160 753 225 q 717 41 753 90 q 607 -8 682 -8 m 611 69 q 651 95 640 69 q 663 153 663 121 q 650 214 663 189 q 611 239 638 239 q 572 218 588 239 q 556 156 556 197 q 569 95 556 121 q 611 69 582 69 z "},"⅚":{"ha":761,"x_min":24,"x_max":739,"o":"m 165 485 q 62 526 100 485 q 24 643 24 567 l 113 646 q 128 581 115 599 q 164 563 142 563 q 203 586 189 563 q 217 664 217 610 q 165 763 217 763 q 133 749 146 763 q 113 701 119 736 l 35 711 l 47 986 l 282 986 l 282 906 l 122 906 l 119 803 q 189 829 146 829 q 279 784 247 829 q 311 661 311 739 q 272 533 311 582 q 165 485 233 485 m 110 0 l 568 986 l 657 986 l 199 0 l 110 0 m 593 -8 q 478 56 515 -8 q 440 226 440 119 q 454 358 440 294 q 503 461 468 421 q 603 501 539 501 q 690 470 656 501 q 733 361 725 439 l 647 354 q 631 408 642 390 q 599 425 621 425 q 551 384 567 425 q 533 269 535 343 q 573 304 550 293 q 621 315 596 315 q 708 270 676 315 q 739 160 739 225 q 703 41 739 90 q 593 -8 668 -8 m 597 69 q 638 95 626 69 q 649 153 649 121 q 636 214 649 189 q 597 239 624 239 q 558 218 574 239 q 542 156 542 197 q 555 95 542 121 q 597 69 568 69 z "},"⅛":{"ha":788,"x_min":31,"x_max":765,"o":"m 31 493 l 31 574 l 113 574 l 113 867 l 31 867 l 31 935 l 78 938 q 115 950 104 940 q 136 986 126 960 l 207 986 l 207 574 l 288 574 l 288 493 l 31 493 m 124 0 l 582 986 l 671 986 l 213 0 l 124 0 m 613 -8 q 501 26 543 -8 q 460 124 460 61 q 480 199 460 168 q 535 254 500 229 q 488 307 504 279 q 471 374 471 335 q 513 469 471 438 q 615 501 556 501 q 713 471 671 501 q 754 381 754 440 q 689 258 754 317 q 745 206 725 235 q 765 129 765 178 q 724 28 765 65 q 613 -8 683 -8 m 621 301 l 632 294 q 664 369 664 332 q 652 409 664 393 q 613 425 640 425 q 574 411 586 425 q 561 376 561 397 q 578 334 561 351 q 621 301 594 317 m 553 138 q 570 86 553 103 q 613 69 588 69 q 656 84 639 69 q 674 128 674 99 q 662 168 674 154 q 622 199 650 182 l 590 218 q 563 183 572 201 q 553 138 553 164 z "},"⅜":{"ha":790,"x_min":28,"x_max":767,"o":"m 176 485 q 84 510 117 485 q 40 574 51 536 q 28 644 28 611 l 118 649 q 133 582 119 601 q 174 563 147 563 q 224 632 224 563 q 158 706 224 706 l 121 706 l 121 782 l 157 782 q 205 801 192 782 q 218 851 218 821 q 204 903 218 888 q 169 918 190 918 q 133 901 146 918 q 117 842 119 883 l 28 844 q 40 910 28 875 q 83 969 51 944 q 174 994 114 994 q 276 957 240 994 q 313 863 313 919 q 291 786 313 815 q 240 746 269 757 q 293 710 268 739 q 318 626 318 681 q 282 526 318 567 q 176 485 246 485 m 125 0 l 583 986 l 672 986 l 214 0 l 125 0 m 614 -8 q 503 26 544 -8 q 461 124 461 61 q 481 199 461 168 q 536 254 501 229 q 489 307 506 279 q 472 374 472 335 q 515 469 472 438 q 617 501 557 501 q 714 471 672 501 q 756 381 756 440 q 690 258 756 317 q 747 206 726 235 q 767 129 767 178 q 726 28 767 65 q 614 -8 685 -8 m 622 301 l 633 294 q 665 369 665 332 q 653 409 665 393 q 614 425 642 425 q 575 411 588 425 q 563 376 563 397 q 579 334 563 351 q 622 301 596 317 m 554 138 q 572 86 554 103 q 614 69 589 69 q 658 84 640 69 q 675 128 675 99 q 663 168 675 154 q 624 199 651 182 l 592 218 q 564 183 574 201 q 554 138 554 164 z "},"⅝":{"ha":775,"x_min":24,"x_max":751,"o":"m 165 485 q 62 526 100 485 q 24 643 24 567 l 113 646 q 128 581 115 599 q 164 563 142 563 q 203 586 189 563 q 217 664 217 610 q 165 763 217 763 q 133 749 146 763 q 113 701 119 736 l 35 711 l 47 986 l 282 986 l 282 906 l 122 906 l 119 803 q 189 829 146 829 q 279 784 247 829 q 311 661 311 739 q 272 533 311 582 q 165 485 233 485 m 111 0 l 569 986 l 658 986 l 200 0 l 111 0 m 599 -8 q 488 26 529 -8 q 446 124 446 61 q 466 199 446 168 q 521 254 486 229 q 474 307 490 279 q 457 374 457 335 q 499 469 457 438 q 601 501 542 501 q 699 471 657 501 q 740 381 740 440 q 675 258 740 317 q 731 206 711 235 q 751 129 751 178 q 710 28 751 65 q 599 -8 669 -8 m 607 301 l 618 294 q 650 369 650 332 q 638 409 650 393 q 599 425 626 425 q 560 411 572 425 q 547 376 547 397 q 564 334 547 351 q 607 301 581 317 m 539 138 q 556 86 539 103 q 599 69 574 69 q 642 84 625 69 q 660 128 660 99 q 648 168 660 154 q 608 199 636 182 l 576 218 q 549 183 558 201 q 539 138 539 164 z "},"⅞":{"ha":731,"x_min":19,"x_max":707,"o":"m 68 493 l 186 906 l 19 906 l 19 986 l 286 986 l 286 925 l 163 493 l 68 493 m 67 0 l 525 986 l 614 986 l 156 0 l 67 0 m 554 -8 q 443 26 485 -8 q 401 124 401 61 q 422 199 401 168 q 476 254 442 229 q 429 307 446 279 q 413 374 413 335 q 455 469 413 438 q 557 501 497 501 q 654 471 613 501 q 696 381 696 440 q 631 258 696 317 q 687 206 667 235 q 707 129 707 178 q 666 28 707 65 q 554 -8 625 -8 m 563 301 l 574 294 q 606 369 606 332 q 594 409 606 393 q 554 425 582 425 q 515 411 528 425 q 503 376 503 397 q 519 334 503 351 q 563 301 536 317 m 494 138 q 512 86 494 103 q 554 69 529 69 q 598 84 581 69 q 615 128 615 99 q 603 168 615 154 q 564 199 592 182 l 532 218 q 504 183 514 201 q 494 138 494 164 z "},"₀":{"ha":376,"x_min":32,"x_max":344,"o":"m 188 -147 q 70 -82 108 -147 q 32 107 32 -17 q 70 297 32 232 q 188 363 108 363 q 306 297 268 363 q 344 107 344 232 q 306 -82 344 -17 q 188 -147 268 -147 m 188 -69 q 231 -40 215 -69 q 246 76 246 -10 l 246 140 q 231 256 246 226 q 188 286 215 286 q 145 256 161 286 q 129 140 129 226 l 129 76 q 145 -39 129 -8 q 188 -69 161 -69 z "},"₁":{"ha":303,"x_min":29,"x_max":286,"o":"m 29 -139 l 29 -58 l 111 -58 l 111 235 l 29 235 l 29 303 l 76 306 q 114 318 103 308 q 135 354 125 328 l 206 354 l 206 -58 l 286 -58 l 286 -139 l 29 -139 z "},"₂":{"ha":332,"x_min":19,"x_max":303,"o":"m 35 -139 l 35 -68 l 151 100 q 194 169 179 140 q 208 228 208 197 q 165 286 208 286 q 127 264 140 286 q 118 186 114 242 l 29 189 q 58 317 19 272 q 165 363 97 363 q 269 325 235 363 q 303 231 303 288 q 280 138 303 176 q 232 64 257 100 l 144 -58 l 300 -58 l 300 -139 l 35 -139 z "},"₃":{"ha":350,"x_min":28,"x_max":318,"o":"m 176 -147 q 84 -122 117 -147 q 40 -58 51 -96 q 28 13 28 -21 l 118 17 q 133 -50 119 -31 q 174 -69 147 -69 q 224 0 224 -69 q 158 74 224 74 l 121 74 l 121 150 l 157 150 q 205 169 192 150 q 218 219 218 189 q 204 271 218 256 q 169 286 190 286 q 133 269 146 286 q 117 210 119 251 l 28 213 q 40 278 28 243 q 83 338 51 313 q 174 363 114 363 q 276 325 240 363 q 313 231 313 288 q 291 154 313 183 q 240 114 269 125 q 293 78 268 107 q 318 -6 318 49 q 282 -106 318 -65 q 176 -147 246 -147 z "},"₄":{"ha":340,"x_min":19,"x_max":318,"o":"m 19 -42 l 19 19 l 150 354 l 272 354 l 272 33 l 318 33 l 318 -42 l 272 -42 l 272 -139 l 178 -139 l 178 -42 l 19 -42 m 97 33 l 178 33 l 178 239 l 97 33 z "},"₅":{"ha":342,"x_min":28,"x_max":315,"o":"m 169 -147 q 66 -106 104 -147 q 28 11 28 -65 l 117 14 q 133 -51 119 -33 q 168 -69 146 -69 q 207 -46 193 -69 q 221 32 221 -22 q 169 131 221 131 q 137 117 150 131 q 117 69 124 104 l 39 79 l 51 354 l 286 354 l 286 274 l 126 274 l 124 171 q 193 197 150 197 q 283 152 251 197 q 315 29 315 107 q 276 -99 315 -50 q 169 -147 238 -147 z "},"₆":{"ha":358,"x_min":32,"x_max":331,"o":"m 185 -147 q 69 -83 107 -147 q 32 88 32 -19 q 46 219 32 156 q 95 322 60 282 q 194 363 131 363 q 282 331 247 363 q 325 222 317 300 l 239 215 q 223 269 233 251 q 190 286 213 286 q 142 245 158 286 q 125 131 126 204 q 165 165 142 154 q 213 176 188 176 q 299 131 268 176 q 331 21 331 86 q 295 -98 331 -49 q 185 -147 260 -147 m 189 -69 q 229 -44 218 -69 q 240 14 240 -18 q 228 75 240 50 q 189 100 215 100 q 149 79 165 100 q 133 17 133 58 q 147 -44 133 -18 q 189 -69 160 -69 z "},"₇":{"ha":306,"x_min":18,"x_max":285,"o":"m 67 -139 l 185 274 l 18 274 l 18 354 l 285 354 l 285 293 l 161 -139 l 67 -139 z "},"₈":{"ha":364,"x_min":29,"x_max":335,"o":"m 182 -147 q 71 -112 113 -147 q 29 -15 29 -78 q 49 60 29 29 q 104 115 69 90 q 57 168 74 140 q 40 235 40 196 q 83 331 40 299 q 185 363 125 363 q 282 332 240 363 q 324 242 324 301 q 258 119 324 178 q 315 67 294 96 q 335 -10 335 39 q 294 -110 335 -74 q 182 -147 253 -147 m 190 163 l 201 156 q 233 231 233 193 q 222 270 233 254 q 182 286 210 286 q 143 272 156 286 q 131 238 131 258 q 147 195 131 213 q 190 163 164 178 m 122 -1 q 140 -53 122 -36 q 182 -69 157 -69 q 226 -55 208 -69 q 243 -11 243 -40 q 231 29 243 15 q 192 60 219 43 l 160 79 q 132 44 142 63 q 122 -1 122 25 z "},"₉":{"ha":357,"x_min":28,"x_max":325,"o":"m 174 -147 q 86 -119 125 -147 q 35 -14 47 -90 l 119 -4 q 138 -54 125 -39 q 174 -69 151 -69 q 220 -31 208 -69 q 233 83 232 7 q 197 49 218 58 q 151 39 176 39 q 62 83 96 39 q 28 200 28 128 q 62 315 28 268 q 169 363 96 363 q 287 295 249 363 q 325 117 325 228 q 313 -16 325 44 q 267 -112 300 -76 q 174 -147 235 -147 m 169 115 q 208 137 193 115 q 224 199 224 158 q 210 260 224 235 q 169 286 197 286 q 128 260 139 286 q 117 200 117 233 q 130 140 117 164 q 169 115 143 115 z "},"⁰":{"ha":376,"x_min":32,"x_max":344,"o":"m 188 561 q 70 626 108 561 q 32 815 32 692 q 70 1006 32 940 q 188 1071 108 1071 q 306 1006 268 1071 q 344 815 344 940 q 306 626 344 692 q 188 561 268 561 m 188 639 q 231 669 215 639 q 246 785 246 699 l 246 849 q 231 965 246 935 q 188 994 215 994 q 145 965 161 994 q 129 849 129 935 l 129 785 q 145 669 129 700 q 188 639 161 639 z "},"¹":{"ha":303,"x_min":29,"x_max":286,"o":"m 29 569 l 29 650 l 111 650 l 111 943 l 29 943 l 29 1011 l 76 1014 q 114 1026 103 1017 q 135 1063 125 1036 l 206 1063 l 206 650 l 286 650 l 286 569 l 29 569 z "},"²":{"ha":332,"x_min":19,"x_max":303,"o":"m 35 569 l 35 640 l 151 808 q 194 877 179 849 q 208 936 208 906 q 165 994 208 994 q 127 972 140 994 q 118 894 114 950 l 29 897 q 58 1026 19 981 q 165 1071 97 1071 q 269 1033 235 1071 q 303 939 303 996 q 280 847 303 885 q 232 772 257 808 l 144 650 l 300 650 l 300 569 l 35 569 z "},"³":{"ha":350,"x_min":28,"x_max":318,"o":"m 176 561 q 84 587 117 561 q 40 650 51 613 q 28 721 28 688 l 118 725 q 133 658 119 678 q 174 639 147 639 q 224 708 224 639 q 158 782 224 782 l 121 782 l 121 858 l 157 858 q 205 878 192 858 q 218 928 218 897 q 204 979 218 964 q 169 994 190 994 q 133 977 146 994 q 117 918 119 960 l 28 921 q 40 986 28 951 q 83 1046 51 1021 q 174 1071 114 1071 q 276 1033 240 1071 q 313 939 313 996 q 291 863 313 892 q 240 822 269 833 q 293 786 268 815 q 318 703 318 757 q 282 602 318 643 q 176 561 246 561 z "},"⁴":{"ha":340,"x_min":19,"x_max":318,"o":"m 19 667 l 19 728 l 150 1063 l 272 1063 l 272 742 l 318 742 l 318 667 l 272 667 l 272 569 l 178 569 l 178 667 l 19 667 m 97 742 l 178 742 l 178 947 l 97 742 z "},"⁵":{"ha":342,"x_min":28,"x_max":315,"o":"m 169 561 q 66 602 104 561 q 28 719 28 643 l 117 722 q 133 657 119 675 q 168 639 146 639 q 207 663 193 639 q 221 740 221 686 q 169 839 221 839 q 137 826 150 839 q 117 778 124 813 l 39 788 l 51 1063 l 286 1063 l 286 982 l 126 982 l 124 879 q 193 906 150 906 q 283 860 251 906 q 315 738 315 815 q 276 610 315 658 q 169 561 238 561 z "},"⁶":{"ha":358,"x_min":32,"x_max":331,"o":"m 185 561 q 69 625 107 561 q 32 796 32 689 q 46 927 32 864 q 95 1031 60 990 q 194 1071 131 1071 q 282 1040 247 1071 q 325 931 317 1008 l 239 924 q 223 977 233 960 q 190 994 213 994 q 142 953 158 994 q 125 839 126 913 q 165 874 142 863 q 213 885 188 885 q 299 840 268 885 q 331 729 331 794 q 295 610 331 660 q 185 561 260 561 m 189 639 q 229 665 218 639 q 240 722 240 690 q 228 783 240 758 q 189 808 215 808 q 149 788 165 808 q 133 725 133 767 q 147 665 133 690 q 189 639 160 639 z "},"⁷":{"ha":306,"x_min":18,"x_max":285,"o":"m 67 569 l 185 982 l 18 982 l 18 1063 l 285 1063 l 285 1001 l 161 569 l 67 569 z "},"⁸":{"ha":364,"x_min":29,"x_max":335,"o":"m 182 561 q 71 596 113 561 q 29 693 29 631 q 49 768 29 738 q 104 824 69 799 q 57 876 74 849 q 40 943 40 904 q 83 1039 40 1007 q 185 1071 125 1071 q 282 1040 240 1071 q 324 950 324 1010 q 258 828 324 886 q 315 776 294 804 q 335 699 335 747 q 294 598 335 635 q 182 561 253 561 m 190 871 l 201 864 q 233 939 233 901 q 222 978 233 963 q 182 994 210 994 q 143 981 156 994 q 131 946 131 967 q 147 903 131 921 q 190 871 164 886 m 122 707 q 140 656 122 672 q 182 639 157 639 q 226 653 208 639 q 243 697 243 668 q 231 738 243 724 q 192 768 219 751 l 160 788 q 132 752 142 771 q 122 707 122 733 z "},"⁹":{"ha":357,"x_min":28,"x_max":325,"o":"m 174 561 q 86 590 125 561 q 35 694 47 618 l 119 704 q 138 654 125 669 q 174 639 151 639 q 220 677 208 639 q 233 792 232 715 q 197 757 218 767 q 151 747 176 747 q 62 792 96 747 q 28 908 28 836 q 62 1024 28 976 q 169 1071 96 1071 q 287 1003 249 1071 q 325 825 325 936 q 313 692 325 753 q 267 597 300 632 q 174 561 235 561 m 169 824 q 208 845 193 824 q 224 907 224 867 q 210 969 224 943 q 169 994 197 994 q 128 968 139 994 q 117 908 117 942 q 130 848 117 872 q 169 824 143 824 z "}}}
